# Blender 5.1.1
# www.blender.org
mtllib arrow.mtl
o Cone
v 0.000000 2.400000 -1.491053
v 0.290890 2.400000 -1.462403
v 0.570601 2.400000 -1.377553
v 0.828385 2.400000 -1.239765
v 1.054334 2.400000 -1.054334
v 1.239765 2.400000 -0.828385
v 1.377553 2.400000 -0.570601
v 1.462403 2.400000 -0.290890
v 1.491053 2.400000 0.000000
v 1.462403 2.400000 0.290890
v 1.377553 2.400000 0.570601
v 1.239765 2.400000 0.828385
v 1.054334 2.400000 1.054334
v 0.828385 2.400000 1.239765
v 0.570601 2.400000 1.377553
v 0.290890 2.400000 1.462403
v 0.000000 2.400000 1.491053
v -0.290890 2.400000 1.462403
v -0.570601 2.400000 1.377553
v -0.828385 2.400000 1.239765
v -1.054334 2.400000 1.054334
v -1.239765 2.400000 0.828385
v -1.377553 2.400000 0.570601
v -1.462403 2.400000 0.290890
v -1.491053 2.400000 0.000000
v -1.462403 2.400000 -0.290890
v -1.377553 2.400000 -0.570601
v -1.239765 2.400000 -0.828385
v -1.054334 2.400000 -1.054334
v -0.828385 2.400000 -1.239765
v -0.570601 2.400000 -1.377553
v -0.290890 2.400000 -1.462403
v 0.000000 5.382106 0.000000
v 0.000000 -2.400000 -1.000000
v 0.000000 2.400000 -1.000000
v 0.195090 -2.400000 -0.980785
v 0.195090 2.400000 -0.980785
v 0.382683 -2.400000 -0.923880
v 0.382683 2.400000 -0.923880
v 0.555570 -2.400000 -0.831470
v 0.555570 2.400000 -0.831470
v 0.707107 -2.400000 -0.707107
v 0.707107 2.400000 -0.707107
v 0.831470 -2.400000 -0.555570
v 0.831470 2.400000 -0.555570
v 0.923880 -2.400000 -0.382683
v 0.923880 2.400000 -0.382683
v 0.980785 -2.400000 -0.195090
v 0.980785 2.400000 -0.195090
v 1.000000 -2.400000 0.000000
v 1.000000 2.400000 0.000000
v 0.980785 -2.400000 0.195090
v 0.980785 2.400000 0.195090
v 0.923880 -2.400000 0.382683
v 0.923880 2.400000 0.382683
v 0.831470 -2.400000 0.555570
v 0.831470 2.400000 0.555570
v 0.707107 -2.400000 0.707107
v 0.707107 2.400000 0.707107
v 0.555570 -2.400000 0.831470
v 0.555570 2.400000 0.831470
v 0.382683 -2.400000 0.923880
v 0.382683 2.400000 0.923880
v 0.195090 -2.400000 0.980785
v 0.195090 2.400000 0.980785
v 0.000000 -2.400000 1.000000
v 0.000000 2.400000 1.000000
v -0.195090 -2.400000 0.980785
v -0.195090 2.400000 0.980785
v -0.382683 -2.400000 0.923880
v -0.382683 2.400000 0.923880
v -0.555570 -2.400000 0.831470
v -0.555570 2.400000 0.831470
v -0.707107 -2.400000 0.707107
v -0.707107 2.400000 0.707107
v -0.831470 -2.400000 0.555570
v -0.831470 2.400000 0.555570
v -0.923880 -2.400000 0.382683
v -0.923880 2.400000 0.382683
v -0.980785 -2.400000 0.195090
v -0.980785 2.400000 0.195090
v -1.000000 -2.400000 0.000000
v -1.000000 2.400000 0.000000
v -0.980785 -2.400000 -0.195090
v -0.980785 2.400000 -0.195090
v -0.923880 -2.400000 -0.382683
v -0.923880 2.400000 -0.382683
v -0.831470 -2.400000 -0.555570
v -0.831470 2.400000 -0.555570
v -0.707107 -2.400000 -0.707107
v -0.707107 2.400000 -0.707107
v -0.555570 -2.400000 -0.831470
v -0.555570 2.400000 -0.831470
v -0.382683 -2.400000 -0.923880
v -0.382683 2.400000 -0.923880
v -0.195090 -2.400000 -0.980785
v -0.195090 2.400000 -0.980785
vn 0.0878 0.4455 -0.8910
vn 0.2599 0.4455 -0.8567
vn 0.4220 0.4455 -0.7896
vn 0.5680 0.4455 -0.6921
vn 0.6921 0.4455 -0.5680
vn 0.7896 0.4455 -0.4220
vn 0.8567 0.4455 -0.2599
vn 0.8910 0.4455 -0.0878
vn 0.8910 0.4455 0.0878
vn 0.8567 0.4455 0.2599
vn 0.7896 0.4455 0.4220
vn 0.6921 0.4455 0.5680
vn 0.5680 0.4455 0.6921
vn 0.4220 0.4455 0.7896
vn 0.2599 0.4455 0.8567
vn 0.0878 0.4455 0.8910
vn -0.0878 0.4455 0.8910
vn -0.2599 0.4455 0.8567
vn -0.4220 0.4455 0.7896
vn -0.5680 0.4455 0.6921
vn -0.6921 0.4455 0.5680
vn -0.7896 0.4455 0.4220
vn -0.8567 0.4455 0.2599
vn -0.8910 0.4455 0.0878
vn -0.8910 0.4455 -0.0878
vn -0.8567 0.4455 -0.2599
vn -0.7896 0.4455 -0.4220
vn -0.6921 0.4455 -0.5680
vn -0.5680 0.4455 -0.6921
vn -0.4220 0.4455 -0.7896
vn -0.0000 -1.0000 -0.0000
vn -0.2599 0.4455 -0.8567
vn -0.0878 0.4455 -0.8910
vn 0.0980 -0.0000 -0.9952
vn 0.2903 -0.0000 -0.9569
vn 0.4714 -0.0000 -0.8819
vn 0.6344 -0.0000 -0.7730
vn 0.7730 -0.0000 -0.6344
vn 0.8819 -0.0000 -0.4714
vn 0.9569 -0.0000 -0.2903
vn 0.9952 -0.0000 -0.0980
vn 0.9952 -0.0000 0.0980
vn 0.9569 -0.0000 0.2903
vn 0.8819 -0.0000 0.4714
vn 0.7730 -0.0000 0.6344
vn 0.6344 -0.0000 0.7730
vn 0.4714 -0.0000 0.8819
vn 0.2903 -0.0000 0.9569
vn 0.0980 -0.0000 0.9952
vn -0.0980 -0.0000 0.9952
vn -0.2903 -0.0000 0.9569
vn -0.4714 -0.0000 0.8819
vn -0.6344 -0.0000 0.7730
vn -0.7730 -0.0000 0.6344
vn -0.8819 -0.0000 0.4714
vn -0.9569 -0.0000 0.2903
vn -0.9952 -0.0000 0.0980
vn -0.9952 -0.0000 -0.0980
vn -0.9569 -0.0000 -0.2903
vn -0.8819 -0.0000 -0.4714
vn -0.7730 -0.0000 -0.6344
vn -0.6344 -0.0000 -0.7730
vn -0.4714 -0.0000 -0.8819
vn -0.0000 1.0000 -0.0000
vn -0.2903 -0.0000 -0.9569
vn -0.0980 -0.0000 -0.9952
vt 0.388195 0.776315
vt 0.493841 0.476135
vt 0.416023 0.784702
vt 0.443605 0.791970
vt 0.469881 0.797841
vt 0.493841 0.802088
vt 0.692584 0.747806
vt 0.872696 0.476135
vt 0.714901 0.757505
vt 0.740045 0.767132
vt 0.767050 0.776315
vt 0.794878 0.784702
vt 0.822460 0.791970
vt 0.848736 0.797841
vt 0.872696 0.802088
vt 0.493841 0.738406
vt 0.692584 0.476135
vt 0.512473 0.747806
vt 0.534789 0.757505
vt 0.559933 0.767132
vt 0.586938 0.776315
vt 0.614767 0.784701
vt 0.642349 0.791970
vt 0.668625 0.797841
vt 0.692584 0.802088
vt 0.000000 0.544332
vt 0.214866 0.295097
vt 0.018003 0.554887
vt 0.039664 0.565972
vt 0.064152 0.577163
vt 0.090525 0.588028
vt 0.117770 0.598151
vt 0.144840 0.607142
vt 0.170694 0.614656
vt 0.194339 0.620403
vt 0.214866 0.624164
vt 0.295097 0.738406
vt 0.313729 0.747806
vt 0.336046 0.757505
vt 0.032940 0.241606
vt 0.016793 0.217439
vt 0.005670 0.190587
vt 0.000000 0.162081
vt 0.000000 0.133016
vt 0.005670 0.104510
vt 0.016793 0.077658
vt 0.032940 0.053492
vt 0.053492 0.032940
vt 0.077658 0.016793
vt 0.104510 0.005670
vt 0.133016 0.000000
vt 0.162081 0.000000
vt 0.190587 0.005670
vt 0.217439 0.016793
vt 0.241606 0.032940
vt 0.262157 0.053492
vt 0.278305 0.077658
vt 0.289427 0.104510
vt 0.295097 0.133016
vt 0.295097 0.162081
vt 0.289427 0.190587
vt 0.278305 0.217439
vt 0.262157 0.241606
vt 0.241606 0.262157
vt 0.217439 0.278305
vt 0.190587 0.289427
vt 0.162081 0.295097
vt 0.133016 0.295097
vt 0.104510 0.289427
vt 0.077658 0.278305
vt 0.053492 0.262157
vt 0.361190 0.767132
vt 0.515944 0.476135
vt 0.515944 0.006326
vt 0.535436 0.006326
vt 0.535436 0.476135
vt 0.554554 0.005655
vt 0.554554 0.475464
vt 0.572563 0.004340
vt 0.572563 0.474149
vt 0.588771 0.002430
vt 0.588771 0.472239
vt 0.728716 0.469809
vt 0.728716 0.000000
vt 0.744923 0.001910
vt 0.744923 0.471719
vt 0.762932 0.003225
vt 0.762932 0.473034
vt 0.782050 0.003895
vt 0.782050 0.473705
vt 0.801543 0.003895
vt 0.801543 0.473705
vt 0.820661 0.003225
vt 0.820661 0.473034
vt 0.838670 0.001910
vt 0.838670 0.471719
vt 0.854877 0.000000
vt 0.854877 0.469809
vt 0.588771 0.469809
vt 0.588771 0.000000
vt 0.602554 0.002430
vt 0.602554 0.472239
vt 0.618762 0.004340
vt 0.618762 0.474149
vt 0.636771 0.005655
vt 0.636771 0.475464
vt 0.655889 0.006326
vt 0.655889 0.476135
vt 0.675381 0.006326
vt 0.675381 0.476135
vt 0.694499 0.005655
vt 0.694499 0.475464
vt 0.712508 0.004340
vt 0.712508 0.474149
vt 0.728716 0.002430
vt 0.728716 0.472239
vt 0.295097 0.469809
vt 0.295097 0.000000
vt 0.308881 0.002430
vt 0.308881 0.472239
vt 0.325088 0.004340
vt 0.325088 0.474149
vt 0.343097 0.005655
vt 0.343097 0.475464
vt 0.362215 0.006326
vt 0.362215 0.476135
vt 0.381708 0.006326
vt 0.381708 0.476135
vt 0.400826 0.005655
vt 0.400826 0.475464
vt 0.418835 0.004340
vt 0.418835 0.474149
vt 0.435042 0.002430
vt 0.435042 0.472239
vt 0.448826 0.000000
vt 0.448826 0.469809
vt 0.448826 0.469809
vt 0.448826 0.000000
vt 0.462609 0.002430
vt 0.462609 0.472239
vt 0.478817 0.004340
vt 0.478817 0.474149
vt 0.003803 0.751985
vt 0.000000 0.732867
vt 0.000000 0.713374
vt 0.003803 0.694256
vt 0.011262 0.676247
vt 0.022092 0.660040
vt 0.035875 0.646256
vt 0.052083 0.635427
vt 0.070092 0.627967
vt 0.089210 0.624164
vt 0.108702 0.624164
vt 0.127820 0.627967
vt 0.145829 0.635427
vt 0.162037 0.646256
vt 0.175820 0.660040
vt 0.186650 0.676247
vt 0.194109 0.694256
vt 0.197912 0.713374
vt 0.197912 0.732867
vt 0.194109 0.751985
vt 0.186650 0.769994
vt 0.175820 0.786201
vt 0.162037 0.799985
vt 0.145829 0.810814
vt 0.127820 0.818274
vt 0.108702 0.822076
vt 0.089210 0.822076
vt 0.070092 0.818274
vt 0.052083 0.810814
vt 0.035875 0.799985
vt 0.022092 0.786201
vt 0.011262 0.769994
vt 0.496826 0.005655
vt 0.496826 0.475464
vt 0.295097 0.910790
vt 0.295097 0.891298
vt 0.298900 0.872180
vt 0.306360 0.854171
vt 0.317189 0.837963
vt 0.330973 0.824180
vt 0.347180 0.813350
vt 0.365189 0.805891
vt 0.384307 0.802088
vt 0.403800 0.802088
vt 0.422918 0.805891
vt 0.440927 0.813350
vt 0.457134 0.824180
vt 0.470918 0.837963
vt 0.481747 0.854171
vt 0.489207 0.872180
vt 0.493010 0.891298
vt 0.493010 0.910790
vt 0.489207 0.929908
vt 0.481747 0.947917
vt 0.470918 0.964125
vt 0.457134 0.977908
vt 0.440927 0.988738
vt 0.422918 0.996197
vt 0.403800 1.000000
vt 0.384307 1.000000
vt 0.365189 0.996197
vt 0.347180 0.988738
vt 0.330973 0.977908
vt 0.317189 0.964125
vt 0.306360 0.947917
vt 0.298900 0.929908
s 0
f 1/1/1 33/2/1 2/3/1
f 2/3/2 33/2/2 3/4/2
f 3/4/3 33/2/3 4/5/3
f 4/5/4 33/2/4 5/6/4
f 5/7/5 33/8/5 6/9/5
f 6/9/6 33/8/6 7/10/6
f 7/10/7 33/8/7 8/11/7
f 8/11/8 33/8/8 9/12/8
f 9/12/9 33/8/9 10/13/9
f 10/13/10 33/8/10 11/14/10
f 11/14/11 33/8/11 12/15/11
f 12/16/12 33/17/12 13/18/12
f 13/18/13 33/17/13 14/19/13
f 14/19/14 33/17/14 15/20/14
f 15/20/15 33/17/15 16/21/15
f 16/21/16 33/17/16 17/22/16
f 17/22/17 33/17/17 18/23/17
f 18/23/18 33/17/18 19/24/18
f 19/24/19 33/17/19 20/25/19
f 20/26/20 33/27/20 21/28/20
f 21/28/21 33/27/21 22/29/21
f 22/29/22 33/27/22 23/30/22
f 23/30/23 33/27/23 24/31/23
f 24/31/24 33/27/24 25/32/24
f 25/32/25 33/27/25 26/33/25
f 26/33/26 33/27/26 27/34/26
f 27/34/27 33/27/27 28/35/27
f 28/35/28 33/27/28 29/36/28
f 29/37/29 33/2/29 30/38/29
f 30/38/30 33/2/30 31/39/30
f 1/40/31 2/41/31 3/42/31 4/43/31 5/44/31 6/45/31 7/46/31 8/47/31 9/48/31 10/49/31 11/50/31 12/51/31 13/52/31 14/53/31 15/54/31 16/55/31 17/56/31 18/57/31 19/58/31 20/59/31 21/60/31 22/61/31 23/62/31 24/63/31 25/64/31 26/65/31 27/66/31 28/67/31 29/68/31 30/69/31 31/70/31 32/71/31
f 31/39/32 33/2/32 32/72/32
f 32/72/33 33/2/33 1/1/33
f 34/73/34 35/74/34 37/75/34 36/76/34
f 36/76/35 37/75/35 39/77/35 38/78/35
f 38/78/36 39/77/36 41/79/36 40/80/36
f 40/80/37 41/79/37 43/81/37 42/82/37
f 42/83/38 43/84/38 45/85/38 44/86/38
f 44/86/39 45/85/39 47/87/39 46/88/39
f 46/88/40 47/87/40 49/89/40 48/90/40
f 48/90/41 49/89/41 51/91/41 50/92/41
f 50/92/42 51/91/42 53/93/42 52/94/42
f 52/94/43 53/93/43 55/95/43 54/96/43
f 54/96/44 55/95/44 57/97/44 56/98/44
f 56/99/45 57/100/45 59/101/45 58/102/45
f 58/102/46 59/101/46 61/103/46 60/104/46
f 60/104/47 61/103/47 63/105/47 62/106/47
f 62/106/48 63/105/48 65/107/48 64/108/48
f 64/108/49 65/107/49 67/109/49 66/110/49
f 66/110/50 67/109/50 69/111/50 68/112/50
f 68/112/51 69/111/51 71/113/51 70/114/51
f 70/114/52 71/113/52 73/115/52 72/116/52
f 72/117/53 73/118/53 75/119/53 74/120/53
f 74/120/54 75/119/54 77/121/54 76/122/54
f 76/122/55 77/121/55 79/123/55 78/124/55
f 78/124/56 79/123/56 81/125/56 80/126/56
f 80/126/57 81/125/57 83/127/57 82/128/57
f 82/128/58 83/127/58 85/129/58 84/130/58
f 84/130/59 85/129/59 87/131/59 86/132/59
f 86/132/60 87/131/60 89/133/60 88/134/60
f 88/134/61 89/133/61 91/135/61 90/136/61
f 90/137/62 91/138/62 93/139/62 92/140/62
f 92/140/63 93/139/63 95/141/63 94/142/63
f 37/143/64 35/144/64 97/145/64 95/146/64 93/147/64 91/148/64 89/149/64 87/150/64 85/151/64 83/152/64 81/153/64 79/154/64 77/155/64 75/156/64 73/157/64 71/158/64 69/159/64 67/160/64 65/161/64 63/162/64 61/163/64 59/164/64 57/165/64 55/166/64 53/167/64 51/168/64 49/169/64 47/170/64 45/171/64 43/172/64 41/173/64 39/174/64
f 94/142/65 95/141/65 97/175/65 96/176/65
f 96/176/66 97/175/66 35/74/66 34/73/66
f 34/177/31 36/178/31 38/179/31 40/180/31 42/181/31 44/182/31 46/183/31 48/184/31 50/185/31 52/186/31 54/187/31 56/188/31 58/189/31 60/190/31 62/191/31 64/192/31 66/193/31 68/194/31 70/195/31 72/196/31 74/197/31 76/198/31 78/199/31 80/200/31 82/201/31 84/202/31 86/203/31 88/204/31 90/205/31 92/206/31 94/207/31 96/208/31
