# Blender 5.1.1
# www.blender.org
o Cylinder
v 0.000000 2.500000 -2.000000
v 0.000000 -2.500000 -1.000000
v 0.000000 2.500000 -1.000000
v 0.390181 2.500000 -1.961571
v 0.765367 2.500000 -1.847759
v 0.195090 -2.500000 -0.980785
v 1.111140 2.500000 -1.662939
v 0.195090 2.500000 -0.980785
v 1.414214 2.500000 -1.414214
v 0.382683 -2.500000 -0.923880
v 0.382683 2.500000 -0.923880
v 1.662939 2.500000 -1.111140
v 1.847759 2.500000 -0.765367
v 0.555570 -2.500000 -0.831470
v 0.555570 2.500000 -0.831470
v 1.961571 2.500000 -0.390181
v 0.707107 -2.500000 -0.707107
v 2.000000 2.500000 0.000000
v 1.961571 2.500000 0.390181
v 0.707107 2.500000 -0.707107
v 1.847759 2.500000 0.765367
v 0.831470 -2.500000 -0.555570
v 0.831470 2.500000 -0.555570
v 1.662939 2.500000 1.111140
v 1.414214 2.500000 1.414214
v 0.923880 -2.500000 -0.382683
v 1.111140 2.500000 1.662939
v 0.923880 2.500000 -0.382683
v 0.980785 -2.500000 -0.195090
v 0.765367 2.500000 1.847759
v 0.390181 2.500000 1.961571
v 0.980785 2.500000 -0.195090
v 1.000000 -2.500000 0.000000
v 0.000000 2.500000 2.000000
v 1.000000 2.500000 0.000000
v -0.390181 2.500000 1.961571
v 0.980785 -2.500000 0.195090
v -0.765367 2.500000 1.847759
v 0.980785 2.500000 0.195090
v -1.111140 2.500000 1.662939
v -1.414214 2.500000 1.414214
v 0.923880 -2.500000 0.382683
v -1.662939 2.500000 1.111140
v 0.923880 2.500000 0.382683
v -1.847759 2.500000 0.765367
v 0.831470 -2.500000 0.555570
v -1.961571 2.500000 0.390181
v 0.831470 2.500000 0.555570
v 0.707107 -2.500000 0.707107
v -2.000000 2.500000 0.000000
v 0.707107 2.500000 0.707107
v -1.961571 2.500000 -0.390181
v 0.555570 -2.500000 0.831470
v -1.847759 2.500000 -0.765367
v -1.662939 2.500000 -1.111140
v 0.555570 2.500000 0.831470
v -1.414214 2.500000 -1.414214
v 0.382683 -2.500000 0.923880
v -1.111140 2.500000 -1.662939
v 0.382683 2.500000 0.923880
v -0.765367 2.500000 -1.847759
v 0.195090 -2.500000 0.980785
v -0.390181 2.500000 -1.961571
v 0.195090 2.500000 0.980785
v 0.000000 4.500000 0.000000
v 0.000000 -2.500000 1.000000
v 0.000000 2.500000 1.000000
v -0.195090 -2.500000 0.980785
v -0.195090 2.500000 0.980785
v -0.382683 -2.500000 0.923880
v -0.382683 2.500000 0.923880
v -0.555570 -2.500000 0.831470
v -0.555570 2.500000 0.831470
v -0.707107 -2.500000 0.707107
v -0.707107 2.500000 0.707107
v -0.831470 -2.500000 0.555570
v -0.831470 2.500000 0.555570
v -0.923880 -2.500000 0.382683
v -0.923880 2.500000 0.382683
v -0.980785 -2.500000 0.195090
v -0.980785 2.500000 0.195090
v -1.000000 -2.500000 0.000000
v -1.000000 2.500000 0.000000
v -0.980785 -2.500000 -0.195090
v -0.980785 2.500000 -0.195090
v -0.923880 -2.500000 -0.382683
v -0.923880 2.500000 -0.382683
v -0.831470 -2.500000 -0.555570
v -0.831470 2.500000 -0.555570
v -0.707107 -2.500000 -0.707107
v -0.707107 2.500000 -0.707107
v -0.555570 -2.500000 -0.831470
v -0.555570 2.500000 -0.831470
v -0.382683 -2.500000 -0.923880
v -0.382683 2.500000 -0.923880
v -0.195090 -2.500000 -0.980785
v -0.195090 2.500000 -0.980785
vn 0.0980 -0.0000 -0.9952
vn 0.2903 -0.0000 -0.9569
vn 0.4714 -0.0000 -0.8819
vn 0.6344 -0.0000 -0.7730
vn 0.7730 -0.0000 -0.6344
vn 0.8819 -0.0000 -0.4714
vn 0.9569 -0.0000 -0.2903
vn 0.9952 -0.0000 -0.0980
vn 0.9952 -0.0000 0.0980
vn 0.9569 -0.0000 0.2903
vn 0.8819 -0.0000 0.4714
vn 0.7730 -0.0000 0.6344
vn 0.6344 -0.0000 0.7730
vn 0.4714 -0.0000 0.8819
vn 0.2903 -0.0000 0.9569
vn 0.0980 -0.0000 0.9952
vn -0.0980 -0.0000 0.9952
vn -0.2903 -0.0000 0.9569
vn -0.4714 -0.0000 0.8819
vn -0.6344 -0.0000 0.7730
vn -0.7730 -0.0000 0.6344
vn -0.8819 -0.0000 0.4714
vn -0.9569 -0.0000 0.2903
vn -0.9952 -0.0000 0.0980
vn -0.9952 -0.0000 -0.0980
vn -0.9569 -0.0000 -0.2903
vn -0.8819 -0.0000 -0.4714
vn -0.7730 -0.0000 -0.6344
vn -0.6344 -0.0000 -0.7730
vn -0.4714 -0.0000 -0.8819
vn -0.2903 -0.0000 -0.9569
vn -0.0980 -0.0000 -0.9952
vn -0.0000 -1.0000 -0.0000
vn 0.0695 0.7054 -0.7054
vn 0.2058 0.7054 -0.6783
vn 0.3341 0.7054 -0.6251
vn 0.4497 0.7054 -0.5479
vn 0.5479 0.7054 -0.4497
vn 0.6251 0.7054 -0.3341
vn 0.6783 0.7054 -0.2058
vn 0.7054 0.7054 -0.0695
vn 0.7054 0.7054 0.0695
vn 0.6783 0.7054 0.2058
vn 0.6251 0.7054 0.3341
vn 0.5479 0.7054 0.4497
vn 0.4497 0.7054 0.5479
vn 0.3341 0.7054 0.6251
vn 0.2058 0.7054 0.6783
vn 0.0695 0.7054 0.7054
vn -0.0695 0.7054 0.7054
vn -0.2058 0.7054 0.6783
vn -0.3341 0.7054 0.6251
vn -0.4497 0.7054 0.5479
vn -0.5479 0.7054 0.4497
vn -0.6251 0.7054 0.3341
vn -0.6783 0.7054 0.2058
vn -0.7054 0.7054 0.0695
vn -0.7054 0.7054 -0.0695
vn -0.6783 0.7054 -0.2058
vn -0.6251 0.7054 -0.3341
vn -0.5479 0.7054 -0.4497
vn -0.4497 0.7054 -0.5479
vn -0.3341 0.7054 -0.6251
vn -0.2058 0.7054 -0.6783
vn -0.0695 0.7054 -0.7054
vt 1.000000 1.000000
vt 0.968750 0.500000
vt 1.000000 0.500000
vt 0.968750 1.000000
vt 0.937500 0.500000
vt 0.937500 1.000000
vt 0.906250 0.500000
vt 0.906250 1.000000
vt 0.875000 0.500000
vt 0.875000 1.000000
vt 0.843750 0.500000
vt 0.843750 1.000000
vt 0.812500 0.500000
vt 0.812500 1.000000
vt 0.781250 0.500000
vt 0.781250 1.000000
vt 0.750000 0.500000
vt 0.750000 1.000000
vt 0.718750 0.500000
vt 0.718750 1.000000
vt 0.687500 0.500000
vt 0.687500 1.000000
vt 0.656250 0.500000
vt 0.656250 1.000000
vt 0.625000 0.500000
vt 0.625000 1.000000
vt 0.593750 0.500000
vt 0.593750 1.000000
vt 0.562500 0.500000
vt 0.562500 1.000000
vt 0.531250 0.500000
vt 0.531250 1.000000
vt 0.500000 0.500000
vt 0.500000 1.000000
vt 0.468750 0.500000
vt 0.468750 1.000000
vt 0.437500 0.500000
vt 0.437500 1.000000
vt 0.406250 0.500000
vt 0.406250 1.000000
vt 0.375000 0.500000
vt 0.375000 1.000000
vt 0.343750 0.500000
vt 0.343750 1.000000
vt 0.312500 0.500000
vt 0.312500 1.000000
vt 0.281250 0.500000
vt 0.281250 1.000000
vt 0.250000 0.500000
vt 0.250000 1.000000
vt 0.218750 0.500000
vt 0.218750 1.000000
vt 0.187500 0.500000
vt 0.187500 1.000000
vt 0.156250 0.500000
vt 0.156250 1.000000
vt 0.125000 0.500000
vt 0.125000 1.000000
vt 0.093750 0.500000
vt 0.093750 1.000000
vt 0.062500 0.500000
vt 0.062500 1.000000
vt 0.031250 0.500000
vt 0.031250 1.000000
vt 0.000000 0.500000
vt 0.841844 0.028269
vt 0.528269 0.158156
vt 0.658156 0.471731
vt 0.250000 0.490000
vt 0.250000 0.250000
vt 0.296822 0.485388
vt 0.341844 0.471731
vt 0.383337 0.449553
vt 0.419706 0.419706
vt 0.449553 0.383337
vt 0.471731 0.341844
vt 0.485388 0.296822
vt 0.490000 0.250000
vt 0.485388 0.203178
vt 0.471731 0.158156
vt 0.449553 0.116663
vt 0.419706 0.080294
vt 0.383337 0.050447
vt 0.341844 0.028269
vt 0.296822 0.014612
vt 0.250000 0.010000
vt 0.203178 0.014612
vt 0.158156 0.028269
vt 0.116663 0.050447
vt 0.080294 0.080294
vt 0.050447 0.116663
vt 0.028269 0.158156
vt 0.014612 0.203178
vt 0.010000 0.250000
vt 0.014612 0.296822
vt 0.028269 0.341844
vt 0.050447 0.383337
vt 0.080294 0.419706
vt 0.116663 0.449553
vt 0.158156 0.471731
vt 0.841844 0.471731
vt 0.816668 0.349776
vt 0.795922 0.360866
vt 0.704078 0.139134
vt 0.796822 0.014612
vt 0.514612 0.203178
vt 0.203178 0.485388
vt 0.000000 1.000000
vt 0.703178 0.485388
vt 0.750000 0.490000
vt 0.796822 0.485388
vt 0.883337 0.449553
vt 0.919706 0.419706
vt 0.949553 0.383337
vt 0.971731 0.341844
vt 0.985388 0.296822
vt 0.990000 0.250000
vt 0.985388 0.203178
vt 0.971731 0.158156
vt 0.949553 0.116663
vt 0.919706 0.080294
vt 0.883337 0.050447
vt 0.750000 0.010000
vt 0.703178 0.014612
vt 0.658156 0.028269
vt 0.616663 0.050447
vt 0.580294 0.080294
vt 0.550447 0.116663
vt 0.510000 0.250000
vt 0.514612 0.296822
vt 0.528269 0.341844
vt 0.550447 0.383337
vt 0.580294 0.419706
vt 0.616663 0.449553
vt 0.773411 0.132306
vt 0.795922 0.139134
vt 0.632306 0.226589
vt 0.630000 0.250000
vt 0.816668 0.150224
vt 0.632306 0.273411
vt 0.639134 0.295922
vt 0.834853 0.165147
vt 0.849776 0.183332
vt 0.650224 0.316668
vt 0.665147 0.334853
vt 0.860865 0.204078
vt 0.867694 0.226589
vt 0.683332 0.349776
vt 0.870000 0.250000
vt 0.867694 0.273411
vt 0.704078 0.360866
vt 0.726589 0.367694
vt 0.860865 0.295922
vt 0.750000 0.370000
vt 0.773411 0.367694
vt 0.849776 0.316668
vt 0.834853 0.334853
vt 0.639134 0.204078
vt 0.650224 0.183332
vt 0.750000 0.130000
vt 0.726589 0.132306
vt 0.665147 0.165147
vt 0.683332 0.150224
s 0
f 3/1/1 6/2/1 2/3/1
f 8/4/2 10/5/2 6/2/2
f 11/6/3 14/7/3 10/5/3
f 15/8/4 17/9/4 14/7/4
f 20/10/5 22/11/5 17/9/5
f 23/12/6 26/13/6 22/11/6
f 28/14/7 29/15/7 26/13/7
f 32/16/8 33/17/8 29/15/8
f 35/18/9 37/19/9 33/17/9
f 39/20/10 42/21/10 37/19/10
f 44/22/11 46/23/11 42/21/11
f 48/24/12 49/25/12 46/23/12
f 51/26/13 53/27/13 49/25/13
f 56/28/14 58/29/14 53/27/14
f 60/30/15 62/31/15 58/29/15
f 64/32/16 66/33/16 62/31/16
f 67/34/17 68/35/17 66/33/17
f 69/36/18 70/37/18 68/35/18
f 71/38/19 72/39/19 70/37/19
f 73/40/20 74/41/20 72/39/20
f 75/42/21 76/43/21 74/41/21
f 77/44/22 78/45/22 76/43/22
f 79/46/23 80/47/23 78/45/23
f 81/48/24 82/49/24 80/47/24
f 83/50/25 84/51/25 82/49/25
f 85/52/26 86/53/26 84/51/26
f 87/54/27 88/55/27 86/53/27
f 89/56/28 90/57/28 88/55/28
f 91/58/29 92/59/29 90/57/29
f 93/60/30 94/61/30 92/59/30
f 95/62/31 96/63/31 94/61/31
f 97/64/32 2/65/32 96/63/32
f 58/66/33 78/67/33 94/68/33
f 1/69/34 65/70/34 4/71/34
f 4/71/35 65/70/35 5/72/35
f 5/72/36 65/70/36 7/73/36
f 7/73/37 65/70/37 9/74/37
f 9/74/38 65/70/38 12/75/38
f 12/75/39 65/70/39 13/76/39
f 13/76/40 65/70/40 16/77/40
f 16/77/41 65/70/41 18/78/41
f 65/70/42 19/79/42 18/78/42
f 65/70/43 21/80/43 19/79/43
f 65/70/44 24/81/44 21/80/44
f 65/70/45 25/82/45 24/81/45
f 65/70/46 27/83/46 25/82/46
f 65/70/47 30/84/47 27/83/47
f 65/70/48 31/85/48 30/84/48
f 65/70/49 34/86/49 31/85/49
f 36/87/50 34/86/50 65/70/50
f 38/88/51 36/87/51 65/70/51
f 40/89/52 38/88/52 65/70/52
f 41/90/53 40/89/53 65/70/53
f 43/91/54 41/90/54 65/70/54
f 45/92/55 43/91/55 65/70/55
f 47/93/56 45/92/56 65/70/56
f 50/94/57 47/93/57 65/70/57
f 52/95/58 50/94/58 65/70/58
f 54/96/59 52/95/59 65/70/59
f 55/97/60 54/96/60 65/70/60
f 57/98/61 55/97/61 65/70/61
f 59/99/62 57/98/62 65/70/62
f 61/100/63 59/99/63 65/70/63
f 5/101/33 15/102/33 11/103/33
f 71/104/33 31/105/33 47/106/33
f 63/107/64 61/100/64 65/70/64
f 63/107/65 65/70/65 1/69/65
f 3/1/1 8/4/1 6/2/1
f 8/4/2 11/6/2 10/5/2
f 11/6/3 15/8/3 14/7/3
f 15/8/4 20/10/4 17/9/4
f 20/10/5 23/12/5 22/11/5
f 23/12/6 28/14/6 26/13/6
f 28/14/7 32/16/7 29/15/7
f 32/16/8 35/18/8 33/17/8
f 35/18/9 39/20/9 37/19/9
f 39/20/10 44/22/10 42/21/10
f 44/22/11 48/24/11 46/23/11
f 48/24/12 51/26/12 49/25/12
f 51/26/13 56/28/13 53/27/13
f 56/28/14 60/30/14 58/29/14
f 60/30/15 64/32/15 62/31/15
f 64/32/16 67/34/16 66/33/16
f 67/34/17 69/36/17 68/35/17
f 69/36/18 71/38/18 70/37/18
f 71/38/19 73/40/19 72/39/19
f 73/40/20 75/42/20 74/41/20
f 75/42/21 77/44/21 76/43/21
f 77/44/22 79/46/22 78/45/22
f 79/46/23 81/48/23 80/47/23
f 81/48/24 83/50/24 82/49/24
f 83/50/25 85/52/25 84/51/25
f 85/52/26 87/54/26 86/53/26
f 87/54/27 89/56/27 88/55/27
f 89/56/28 91/58/28 90/57/28
f 91/58/29 93/60/29 92/59/29
f 93/60/30 95/62/30 94/61/30
f 95/62/31 97/64/31 96/63/31
f 97/64/32 3/108/32 2/65/32
f 94/68/33 96/109/33 2/110/33
f 2/110/33 6/111/33 10/101/33
f 10/101/33 14/112/33 17/113/33
f 17/113/33 22/114/33 26/115/33
f 26/115/33 29/116/33 33/117/33
f 33/117/33 37/118/33 42/119/33
f 42/119/33 46/120/33 49/121/33
f 49/121/33 53/122/33 58/66/33
f 58/66/33 62/105/33 66/123/33
f 66/123/33 68/124/33 70/125/33
f 70/125/33 72/126/33 74/127/33
f 74/127/33 76/128/33 78/67/33
f 78/67/33 80/106/33 82/129/33
f 82/129/33 84/130/33 86/131/33
f 86/131/33 88/132/33 90/133/33
f 90/133/33 92/134/33 94/68/33
f 94/68/33 2/110/33 10/101/33
f 10/101/33 17/113/33 26/115/33
f 26/115/33 33/117/33 42/119/33
f 42/119/33 49/121/33 58/66/33
f 58/66/33 66/123/33 70/125/33
f 70/125/33 74/127/33 78/67/33
f 78/67/33 82/129/33 86/131/33
f 86/131/33 90/133/33 94/68/33
f 94/68/33 10/101/33 26/115/33
f 26/115/33 42/119/33 58/66/33
f 58/66/33 70/125/33 78/67/33
f 78/67/33 86/131/33 94/68/33
f 94/68/33 26/115/33 58/66/33
f 61/68/33 63/109/33 1/110/33
f 1/110/33 4/111/33 5/101/33
f 5/101/33 7/112/33 9/113/33
f 9/113/33 12/114/33 13/115/33
f 13/115/33 16/116/33 18/117/33
f 18/117/33 19/118/33 21/119/33
f 21/119/33 24/120/33 25/121/33
f 25/121/33 27/122/33 30/66/33
f 30/66/33 31/105/33 64/135/33
f 30/66/33 64/135/33 60/136/33
f 21/119/33 25/121/33 30/66/33
f 13/115/33 18/117/33 21/119/33
f 5/101/33 9/113/33 13/115/33
f 61/68/33 1/110/33 5/101/33
f 57/133/33 59/134/33 61/68/33
f 54/131/33 55/132/33 57/133/33
f 50/129/33 52/130/33 54/131/33
f 81/137/33 47/106/33 50/129/33
f 83/138/33 81/137/33 50/129/33
f 50/129/33 54/131/33 57/133/33
f 57/133/33 61/68/33 5/101/33
f 5/101/33 13/115/33 21/119/33
f 21/119/33 30/66/33 60/136/33
f 21/119/33 60/136/33 56/139/33
f 50/129/33 57/133/33 5/101/33
f 85/140/33 83/138/33 50/129/33
f 87/141/33 85/140/33 50/129/33
f 21/119/33 56/139/33 51/142/33
f 21/119/33 51/142/33 48/143/33
f 89/144/33 87/141/33 50/129/33
f 91/145/33 89/144/33 50/129/33
f 21/119/33 48/143/33 44/146/33
f 21/119/33 44/146/33 39/147/33
f 93/148/33 91/145/33 50/129/33
f 93/148/33 50/129/33 5/101/33
f 21/119/33 39/147/33 35/149/33
f 21/119/33 35/149/33 32/150/33
f 95/151/33 93/148/33 5/101/33
f 97/152/33 95/151/33 5/101/33
f 5/101/33 21/119/33 32/150/33
f 5/101/33 32/150/33 28/153/33
f 3/154/33 97/152/33 5/101/33
f 8/155/33 3/154/33 5/101/33
f 5/101/33 28/153/33 23/156/33
f 5/101/33 23/156/33 20/157/33
f 11/103/33 8/155/33 5/101/33
f 5/101/33 20/157/33 15/102/33
f 47/106/33 81/137/33 79/158/33
f 47/106/33 79/158/33 77/159/33
f 43/128/33 45/67/33 47/106/33
f 40/126/33 41/127/33 43/128/33
f 36/124/33 38/125/33 40/126/33
f 31/105/33 34/123/33 36/124/33
f 67/160/33 64/135/33 31/105/33
f 69/161/33 67/160/33 31/105/33
f 31/105/33 36/124/33 40/126/33
f 40/126/33 43/128/33 47/106/33
f 47/106/33 77/159/33 75/162/33
f 47/106/33 75/162/33 73/163/33
f 31/105/33 40/126/33 47/106/33
f 71/104/33 69/161/33 31/105/33
f 47/106/33 73/163/33 71/104/33
