# Blender 5.1.1
# www.blender.org
o Cylinder.002
v 0.000000 -0.625000 -0.800000
v 0.000000 -0.500000 -0.500000
v 0.000000 -0.375000 -0.800000
v 0.000000 0.375000 -0.800000
v 0.000000 0.625000 -0.800000
v 0.156072 -0.625000 -0.784628
v 0.156072 -0.375000 -0.784628
v 0.000000 0.500000 -0.500000
v 0.306147 -0.625000 -0.739104
v 0.097545 -0.500000 -0.490393
v 0.306147 -0.375000 -0.739104
v 0.156072 0.375000 -0.784628
v 0.444456 -0.625000 -0.665176
v 0.156072 0.625000 -0.784628
v 0.097545 0.500000 -0.490393
v 0.444456 -0.375000 -0.665176
v 0.306147 0.375000 -0.739104
v 0.565685 -0.625000 -0.565685
v 0.565685 -0.375000 -0.565685
v 0.191342 -0.500000 -0.461940
v 0.665176 -0.625000 -0.444456
v 0.306147 0.625000 -0.739104
v 0.191342 0.500000 -0.461940
v 0.665176 -0.375000 -0.444456
v 0.739104 -0.625000 -0.306147
v 0.277785 -0.500000 -0.415735
v 0.739104 -0.375000 -0.306147
v 0.444456 0.375000 -0.665176
v 0.277785 0.500000 -0.415735
v 0.784628 -0.625000 -0.156072
v 0.444456 0.625000 -0.665176
v 0.784628 -0.375000 -0.156072
v 0.800000 -0.625000 0.000000
v 0.353553 -0.500000 -0.353553
v 0.565685 0.375000 -0.565685
v 0.800000 -0.375000 0.000000
v 0.784628 -0.625000 0.156072
v 0.353553 0.500000 -0.353553
v 0.565685 0.625000 -0.565685
v 0.784628 -0.375000 0.156072
v 0.415735 -0.500000 -0.277785
v 0.739104 -0.625000 0.306147
v 0.665176 0.375000 -0.444456
v 0.739104 -0.375000 0.306147
v 0.665176 -0.625000 0.444456
v 0.415735 0.500000 -0.277785
v 0.665176 0.625000 -0.444456
v 0.665176 -0.375000 0.444456
v 0.565685 -0.625000 0.565685
v 0.739104 0.375000 -0.306147
v 0.565685 -0.375000 0.565685
v 0.461940 -0.500000 -0.191342
v 0.444456 -0.625000 0.665176
v 0.461940 0.500000 -0.191342
v 0.444456 -0.375000 0.665176
v 0.739104 0.625000 -0.306147
v 0.784628 0.375000 -0.156072
v 0.306147 -0.625000 0.739104
v 0.490393 -0.500000 -0.097545
v 0.306147 -0.375000 0.739104
v 0.156072 -0.625000 0.784628
v 0.490393 0.500000 -0.097545
v 0.156072 -0.375000 0.784628
v 0.784628 0.625000 -0.156072
v 0.800000 0.375000 0.000000
v 0.000000 -0.625000 0.800000
v 0.500000 -0.500000 0.000000
v 0.000000 -0.375000 0.800000
v -0.156072 -0.625000 0.784628
v 0.500000 0.500000 0.000000
v 0.800000 0.625000 0.000000
v -0.156072 -0.375000 0.784628
v -0.306147 -0.625000 0.739104
v 0.784628 0.375000 0.156072
v -0.306147 -0.375000 0.739104
v 0.490393 -0.500000 0.097545
v -0.444456 -0.625000 0.665176
v 0.784628 0.625000 0.156072
v 0.490393 0.500000 0.097545
v -0.444456 -0.375000 0.665176
v 0.461940 -0.500000 0.191342
v -0.565685 -0.625000 0.565685
v 0.739104 0.375000 0.306147
v -0.565685 -0.375000 0.565685
v 0.739104 0.625000 0.306147
v -0.665176 -0.625000 0.444456
v 0.461940 0.500000 0.191342
v -0.665176 -0.375000 0.444456
v -0.739104 -0.625000 0.306147
v 0.665176 0.375000 0.444456
v 0.415735 -0.500000 0.277785
v -0.739104 -0.375000 0.306147
v 0.665176 0.625000 0.444456
v -0.784628 -0.625000 0.156072
v 0.415735 0.500000 0.277785
v -0.784628 -0.375000 0.156072
v 0.565685 0.375000 0.565685
v -0.800000 -0.625000 0.000000
v 0.353553 -0.500000 0.353553
v -0.800000 -0.375000 0.000000
v -0.784628 -0.625000 -0.156072
v 0.353553 0.500000 0.353553
v -0.784628 -0.375000 -0.156072
v 0.565685 0.625000 0.565685
v -0.739104 -0.625000 -0.306147
v 0.444456 0.375000 0.665176
v -0.739104 -0.375000 -0.306147
v 0.277785 -0.500000 0.415735
v -0.665176 -0.625000 -0.444456
v 0.444456 0.625000 0.665176
v -0.665176 -0.375000 -0.444456
v 0.277785 0.500000 0.415735
v 0.191342 -0.500000 0.461940
v -0.565685 -0.625000 -0.565685
v 0.306147 0.375000 0.739104
v -0.565685 -0.375000 -0.565685
v -0.444456 -0.625000 -0.665176
v 0.306147 0.625000 0.739104
v -0.444456 -0.375000 -0.665176
v 0.191342 0.500000 0.461940
v 0.156072 0.375000 0.784628
v -0.306147 -0.625000 -0.739104
v 0.097545 -0.500000 0.490393
v -0.306147 -0.375000 -0.739104
v -0.156072 -0.625000 -0.784628
v 0.156072 0.625000 0.784628
v 0.097545 0.500000 0.490393
v -0.156072 -0.375000 -0.784628
v 0.000000 0.375000 0.800000
v -0.500000 -0.375000 0.000000
v -0.461940 -0.375000 0.191342
v 0.000000 -0.500000 0.500000
v 0.000000 0.625000 0.800000
v -0.490393 -0.375000 0.097545
v 0.000000 0.500000 0.500000
v -0.490393 -0.375000 -0.097545
v -0.415735 -0.375000 0.277785
v -0.156072 0.375000 0.784628
v -0.097545 -0.500000 0.490393
v -0.415735 -0.375000 -0.277785
v -0.461940 -0.375000 -0.191342
v -0.097545 0.500000 0.490393
v -0.353553 -0.375000 -0.353553
v -0.156072 0.625000 0.784628
v -0.277785 -0.375000 0.415735
v -0.306147 0.375000 0.739104
v -0.277785 -0.375000 -0.415735
v -0.191342 -0.500000 0.461940
v 0.000000 -0.375000 -0.500000
v -0.306147 0.625000 0.739104
v -0.097545 -0.375000 -0.490393
v -0.191342 0.500000 0.461940
v -0.444456 0.375000 0.665176
v 0.191342 -0.375000 -0.461940
v 0.097545 -0.375000 -0.490393
v -0.277785 -0.500000 0.415735
v -0.191342 -0.375000 -0.461940
v -0.444456 0.625000 0.665176
v -0.277785 0.500000 0.415735
v -0.353553 -0.375000 0.353553
v -0.191342 -0.375000 0.461940
v -0.565685 0.375000 0.565685
v 0.000000 -0.375000 0.500000
v -0.353553 -0.500000 0.353553
v -0.353553 0.500000 0.353553
v 0.097545 -0.375000 0.490393
v -0.097545 -0.375000 0.490393
v -0.565685 0.625000 0.565685
v -0.415735 -0.500000 0.277785
v 0.191342 -0.375000 0.461940
v -0.665176 0.375000 0.444456
v 0.277785 -0.375000 -0.415735
v 0.277785 -0.375000 0.415735
v -0.665176 0.625000 0.444456
v -0.415735 0.500000 0.277785
v 0.415735 -0.375000 -0.277785
v -0.461940 -0.500000 0.191342
v 0.415735 -0.375000 0.277785
v -0.739104 0.375000 0.306147
v 0.353553 -0.375000 -0.353553
v -0.739104 0.625000 0.306147
v 0.500000 -0.375000 0.000000
v -0.461940 0.500000 0.191342
v 0.490393 -0.375000 -0.097545
v -0.784628 0.375000 0.156072
v 0.461940 -0.375000 0.191342
v -0.490393 -0.500000 0.097545
v 0.490393 -0.375000 0.097545
v 0.461940 -0.375000 -0.191342
v -0.490393 0.500000 0.097545
v 0.353553 -0.375000 0.353553
v -0.784628 0.625000 0.156072
v -0.097545 -0.625000 -0.490393
v -0.500000 -0.500000 0.000000
v 0.097545 -0.625000 -0.490393
v -0.800000 0.375000 0.000000
v -0.800000 0.625000 0.000000
v 0.000000 -0.625000 -0.500000
v 0.191342 -0.625000 0.461940
v -0.500000 0.500000 0.000000
v -0.784628 0.375000 -0.156072
v 0.277785 -0.625000 -0.415735
v 0.277785 -0.625000 0.415735
v -0.490393 -0.500000 -0.097545
v 0.191342 -0.625000 -0.461940
v -0.490393 0.500000 -0.097545
v -0.784628 0.625000 -0.156072
v 0.415735 -0.625000 0.277785
v 0.353553 -0.625000 0.353553
v -0.461940 -0.500000 -0.191342
v -0.739104 0.375000 -0.306147
v 0.415735 -0.625000 -0.277785
v 0.500000 -0.625000 0.000000
v -0.739104 0.625000 -0.306147
v -0.461940 0.500000 -0.191342
v 0.490393 -0.625000 -0.097545
v -0.415735 -0.500000 -0.277785
v 0.461940 -0.625000 0.191342
v 0.490393 -0.625000 0.097545
v -0.665176 0.375000 -0.444456
v 0.461940 -0.625000 -0.191342
v -0.415735 0.500000 -0.277785
v 0.353553 -0.625000 -0.353553
v -0.665176 0.625000 -0.444456
v -0.500000 -0.625000 0.000000
v -0.565685 0.375000 -0.565685
v -0.461940 -0.625000 0.191342
v -0.353553 -0.500000 -0.353553
v -0.490393 -0.625000 0.097545
v -0.565685 0.625000 -0.565685
v -0.490393 -0.625000 -0.097545
v -0.353553 0.500000 -0.353553
v -0.415735 -0.625000 0.277785
v -0.444456 0.375000 -0.665176
v -0.415735 -0.625000 -0.277785
v -0.277785 -0.500000 -0.415735
v -0.277785 0.500000 -0.415735
v -0.353553 -0.625000 0.353553
v -0.461940 -0.625000 -0.191342
v -0.444456 0.625000 -0.665176
v -0.191342 -0.625000 -0.461940
v -0.306147 0.375000 -0.739104
v -0.191342 -0.500000 -0.461940
v -0.277785 -0.625000 0.415735
v -0.277785 -0.625000 -0.415735
v -0.306147 0.625000 -0.739104
v -0.097545 -0.625000 0.490393
v -0.191342 0.500000 -0.461940
v 0.097545 -0.625000 0.490393
v -0.156072 0.375000 -0.784628
v 0.000000 -0.625000 0.500000
v -0.097545 -0.500000 -0.490393
v -0.191342 -0.625000 0.461940
v -0.097545 0.500000 -0.490393
v -0.353553 -0.625000 -0.353553
v -0.156072 0.625000 -0.784628
v -0.500000 0.625000 0.000000
v -0.461940 0.625000 0.191342
v -0.490393 0.625000 0.097545
v -0.490393 0.625000 -0.097545
v -0.415735 0.625000 0.277785
v -0.415735 0.625000 -0.277785
v -0.461940 0.625000 -0.191342
v -0.353553 0.625000 -0.353553
v -0.277785 0.625000 0.415735
v -0.277785 0.625000 -0.415735
v 0.000000 0.625000 -0.500000
v -0.097545 0.625000 -0.490393
v 0.191342 0.625000 -0.461940
v 0.097545 0.625000 -0.490393
v -0.191342 0.625000 -0.461940
v -0.353553 0.625000 0.353553
v -0.191342 0.625000 0.461940
v 0.000000 0.625000 0.500000
v 0.097545 0.625000 0.490393
v -0.097545 0.625000 0.490393
v 0.191342 0.625000 0.461940
v 0.277785 0.625000 -0.415735
v 0.277785 0.625000 0.415735
v 0.415735 0.625000 -0.277785
v 0.415735 0.625000 0.277785
v 0.353553 0.625000 -0.353553
v 0.500000 0.625000 0.000000
v 0.490393 0.625000 -0.097545
v 0.461940 0.625000 0.191342
v 0.490393 0.625000 0.097545
v 0.461940 0.625000 -0.191342
v 0.353553 0.625000 0.353553
v -0.097545 0.375000 -0.490393
v 0.097545 0.375000 -0.490393
v 0.000000 0.375000 -0.500000
v 0.191342 0.375000 0.461940
v 0.277785 0.375000 -0.415735
v 0.277785 0.375000 0.415735
v 0.191342 0.375000 -0.461940
v 0.415735 0.375000 0.277785
v 0.353553 0.375000 0.353553
v 0.415735 0.375000 -0.277785
v 0.500000 0.375000 0.000000
v 0.490393 0.375000 -0.097545
v 0.461940 0.375000 0.191342
v 0.490393 0.375000 0.097545
v 0.461940 0.375000 -0.191342
v 0.353553 0.375000 -0.353553
v -0.500000 0.375000 0.000000
v -0.461940 0.375000 0.191342
v -0.490393 0.375000 0.097545
v -0.490393 0.375000 -0.097545
v -0.415735 0.375000 0.277785
v -0.415735 0.375000 -0.277785
v -0.353553 0.375000 0.353553
v -0.461940 0.375000 -0.191342
v -0.191342 0.375000 -0.461940
v -0.277785 0.375000 0.415735
v -0.277785 0.375000 -0.415735
v -0.097545 0.375000 0.490393
v 0.097545 0.375000 0.490393
v 0.000000 0.375000 0.500000
v -0.191342 0.375000 0.461940
v -0.353553 0.375000 -0.353553
vn 0.0980 -0.0000 -0.9952
vn 0.2903 -0.0000 -0.9569
vn 0.4714 -0.0000 -0.8819
vn 0.6344 -0.0000 -0.7730
vn 0.7730 -0.0000 -0.6344
vn 0.8819 -0.0000 -0.4714
vn 0.9569 -0.0000 -0.2903
vn 0.9952 -0.0000 -0.0980
vn 0.9952 -0.0000 0.0980
vn 0.9569 -0.0000 0.2903
vn 0.8819 -0.0000 0.4714
vn 0.7730 -0.0000 0.6344
vn 0.6344 -0.0000 0.7730
vn 0.4714 -0.0000 0.8819
vn 0.2903 -0.0000 0.9569
vn 0.0980 -0.0000 0.9952
vn -0.0980 -0.0000 0.9952
vn -0.2903 -0.0000 0.9569
vn -0.4714 -0.0000 0.8819
vn -0.6344 -0.0000 0.7730
vn -0.7730 -0.0000 0.6344
vn -0.8819 -0.0000 0.4714
vn -0.9569 -0.0000 0.2903
vn -0.9952 -0.0000 0.0980
vn -0.9952 -0.0000 -0.0980
vn -0.9569 -0.0000 -0.2903
vn -0.8819 -0.0000 -0.4714
vn -0.7730 -0.0000 -0.6344
vn -0.6344 -0.0000 -0.7730
vn -0.4714 -0.0000 -0.8819
vn -0.0000 1.0000 -0.0000
vn -0.2903 -0.0000 -0.9569
vn -0.0980 -0.0000 -0.9952
vn -0.0000 -1.0000 -0.0000
vn 0.0001 1.0000 -0.0000
vt 0.968750 0.937500
vt 1.000000 0.562500
vt 1.000000 0.937500
vt 0.937500 0.937500
vt 0.968750 0.562500
vt 0.906250 0.937500
vt 0.937500 0.562500
vt 0.875000 0.937500
vt 0.906250 0.562500
vt 0.843750 0.562500
vt 0.875000 0.562500
vt 0.843750 0.937500
vt 0.812500 0.562500
vt 0.812500 0.937500
vt 0.781250 0.562500
vt 0.781250 0.937500
vt 0.750000 0.562500
vt 0.750000 0.937500
vt 0.718750 0.562500
vt 0.718750 0.937500
vt 0.687500 0.562500
vt 0.687500 0.937500
vt 0.656250 0.562500
vt 0.656250 0.937500
vt 0.625000 0.562500
vt 0.625000 0.937500
vt 0.593750 0.562500
vt 0.593750 0.937500
vt 0.562500 0.562500
vt 0.562500 0.937500
vt 0.531250 0.562500
vt 0.531250 0.937500
vt 0.500000 0.562500
vt 0.500000 0.937500
vt 0.468750 0.562500
vt 0.468750 0.937500
vt 0.437500 0.562500
vt 0.437500 0.937500
vt 0.406250 0.562500
vt 0.406250 0.937500
vt 0.375000 0.562500
vt 0.343750 0.937500
vt 0.375000 0.937500
vt 0.312500 0.937500
vt 0.343750 0.562500
vt 0.281250 0.937500
vt 0.312500 0.562500
vt 0.250000 0.937500
vt 0.281250 0.562500
vt 0.218750 0.937500
vt 0.250000 0.562500
vt 0.187500 0.937500
vt 0.218750 0.562500
vt 0.156250 0.937500
vt 0.187500 0.562500
vt 0.125000 0.937500
vt 0.156250 0.562500
vt 0.093750 0.937500
vt 0.125000 0.562500
vt 0.062500 0.937500
vt 0.093750 0.562500
vt 0.449553 0.383337
vt 0.116663 0.449553
vt 0.050447 0.116663
vt 0.031250 0.937500
vt 0.062500 0.562500
vt 0.000000 0.937500
vt 0.031250 0.562500
vt 0.883337 0.050447
vt 0.550447 0.116663
vt 0.616663 0.449553
vt 1.000000 1.000000
vt 0.968750 0.500000
vt 1.000000 0.500000
vt 0.968750 1.000000
vt 0.937500 0.500000
vt 0.937500 1.000000
vt 0.906250 0.500000
vt 0.906250 1.000000
vt 0.875000 0.500000
vt 0.875000 1.000000
vt 0.843750 0.500000
vt 0.843750 1.000000
vt 0.812500 0.500000
vt 0.812500 1.000000
vt 0.781250 0.500000
vt 0.781250 1.000000
vt 0.750000 0.500000
vt 0.750000 1.000000
vt 0.718750 0.500000
vt 0.718750 1.000000
vt 0.687500 0.500000
vt 0.687500 1.000000
vt 0.656250 0.500000
vt 0.656250 1.000000
vt 0.625000 0.500000
vt 0.625000 1.000000
vt 0.593750 0.500000
vt 0.593750 1.000000
vt 0.562500 0.500000
vt 0.562500 1.000000
vt 0.531250 0.500000
vt 0.531250 1.000000
vt 0.500000 0.500000
vt 0.500000 1.000000
vt 0.468750 0.500000
vt 0.468750 1.000000
vt 0.437500 0.500000
vt 0.437500 1.000000
vt 0.406250 0.500000
vt 0.406250 1.000000
vt 0.375000 0.500000
vt 0.375000 1.000000
vt 0.343750 0.500000
vt 0.343750 1.000000
vt 0.312500 0.500000
vt 0.312500 1.000000
vt 0.281250 0.500000
vt 0.281250 1.000000
vt 0.250000 0.500000
vt 0.250000 1.000000
vt 0.218750 0.500000
vt 0.218750 1.000000
vt 0.187500 0.500000
vt 0.187500 1.000000
vt 0.156250 0.500000
vt 0.156250 1.000000
vt 0.125000 0.500000
vt 0.125000 1.000000
vt 0.093750 0.500000
vt 0.093750 1.000000
vt 0.062500 0.500000
vt 0.116663 0.050447
vt 0.192597 0.111418
vt 0.166664 0.125280
vt 0.341844 0.471731
vt 0.307402 0.388582
vt 0.333336 0.374720
vt 0.062500 1.000000
vt 0.031250 0.500000
vt 0.031250 1.000000
vt 0.000000 0.500000
vt 0.796822 0.014612
vt 0.779263 0.102882
vt 0.807402 0.111418
vt 0.703178 0.485388
vt 0.720737 0.397118
vt 0.692597 0.388582
vt 0.968750 0.769290
vt 1.000000 0.750000
vt 0.968750 0.750000
vt 0.937500 0.769290
vt 0.937500 0.750000
vt 0.906250 0.769290
vt 0.906250 0.750000
vt 0.875000 0.769290
vt 0.875000 0.750000
vt 0.843750 0.750000
vt 0.843750 0.769290
vt 0.812500 0.750000
vt 0.812500 0.769290
vt 0.781250 0.750000
vt 0.781250 0.769290
vt 0.750000 0.750000
vt 0.750000 0.769290
vt 0.718750 0.750000
vt 0.718750 0.769290
vt 0.687500 0.750000
vt 0.687500 0.769290
vt 0.656250 0.750000
vt 0.656250 0.769290
vt 0.625000 0.750000
vt 0.625000 0.769290
vt 0.593750 0.750000
vt 0.593750 0.769290
vt 0.562500 0.750000
vt 0.562500 0.769290
vt 0.531250 0.750000
vt 0.531250 0.769290
vt 0.500000 0.750000
vt 0.500000 0.769290
vt 0.468750 0.750000
vt 0.468750 0.769290
vt 0.437500 0.750000
vt 0.437500 0.769290
vt 0.406250 0.750000
vt 0.406250 0.769290
vt 0.375000 0.750000
vt 0.375000 0.769290
vt 0.343750 0.769290
vt 0.343750 0.750000
vt 0.312500 0.769290
vt 0.312500 0.750000
vt 0.281250 0.769290
vt 0.281250 0.750000
vt 0.250000 0.769290
vt 0.250000 0.750000
vt 0.218750 0.769290
vt 0.218750 0.750000
vt 0.187500 0.769290
vt 0.187500 0.750000
vt 0.156250 0.769290
vt 0.156250 0.750000
vt 0.125000 0.769290
vt 0.125000 0.750000
vt 0.093750 0.769290
vt 0.093750 0.750000
vt 0.062500 0.769290
vt 0.062500 0.750000
vt 0.031250 0.769290
vt 0.031250 0.750000
vt 0.000000 0.769290
vt 0.000000 0.750000
vt 0.158156 0.028269
vt 0.383337 0.449553
vt 1.000000 0.730710
vt 0.968750 0.730710
vt 0.937500 0.730710
vt 0.906250 0.730710
vt 0.843750 0.730710
vt 0.875000 0.730710
vt 0.812500 0.730710
vt 0.781250 0.730710
vt 0.750000 0.730710
vt 0.718750 0.730710
vt 0.687500 0.730710
vt 0.656250 0.730710
vt 0.625000 0.730710
vt 0.593750 0.730710
vt 0.562500 0.730710
vt 0.531250 0.730710
vt 0.500000 0.730710
vt 0.468750 0.730710
vt 0.437500 0.730710
vt 0.406250 0.730710
vt 0.375000 0.730710
vt 0.343750 0.730710
vt 0.312500 0.730710
vt 0.281250 0.730710
vt 0.250000 0.730710
vt 0.218750 0.730710
vt 0.187500 0.730710
vt 0.156250 0.730710
vt 0.125000 0.730710
vt 0.093750 0.730710
vt 0.062500 0.730710
vt 0.031250 0.730710
vt 0.080294 0.080294
vt 0.158156 0.028269
vt 0.203178 0.014612
vt 0.250000 0.010000
vt 0.296822 0.014612
vt 0.341844 0.028269
vt 0.383337 0.050447
vt 0.419706 0.080294
vt 0.449553 0.116663
vt 0.471731 0.158156
vt 0.485388 0.203178
vt 0.490000 0.250000
vt 0.485388 0.296822
vt 0.471731 0.341844
vt 0.419706 0.419706
vt 0.296822 0.485388
vt 0.250000 0.490000
vt 0.203178 0.485388
vt 0.158156 0.471731
vt 0.080294 0.419706
vt 0.050447 0.383337
vt 0.028269 0.341844
vt 0.014612 0.296822
vt 0.010000 0.250000
vt 0.014612 0.203178
vt 0.028269 0.158156
vt 0.000000 0.562500
vt 0.658156 0.471731
vt 0.750000 0.490000
vt 0.796822 0.485388
vt 0.841844 0.471731
vt 0.883337 0.449553
vt 0.919706 0.419706
vt 0.949553 0.383337
vt 0.971731 0.341844
vt 0.985388 0.296822
vt 0.990000 0.250000
vt 0.985388 0.203178
vt 0.971731 0.158156
vt 0.949553 0.116663
vt 0.919706 0.080294
vt 0.841844 0.028269
vt 0.796822 0.014612
vt 0.750000 0.010000
vt 0.703178 0.014612
vt 0.658156 0.028269
vt 0.616663 0.050447
vt 0.580294 0.080294
vt 0.528269 0.158156
vt 0.514612 0.203178
vt 0.510000 0.250000
vt 0.514612 0.296822
vt 0.528269 0.341844
vt 0.550447 0.383337
vt 0.580294 0.419706
vt 0.014612 0.203178
vt 0.028269 0.158156
vt 0.203178 0.014612
vt 0.250000 0.010000
vt 0.296822 0.014612
vt 0.341844 0.028269
vt 0.388582 0.192597
vt 0.374720 0.166664
vt 0.014612 0.296822
vt 0.010000 0.250000
vt 0.111418 0.307403
vt 0.028269 0.341844
vt 0.102882 0.279263
vt 0.356066 0.143934
vt 0.333336 0.125280
vt 0.100000 0.250000
vt 0.102882 0.220736
vt 0.307403 0.111418
vt 0.279264 0.102882
vt 0.111418 0.192597
vt 0.250000 0.100000
vt 0.125280 0.166664
vt 0.143934 0.143934
vt 0.220736 0.102882
vt 0.397118 0.220736
vt 0.490000 0.250000
vt 0.250000 0.490000
vt 0.125280 0.333336
vt 0.143934 0.356066
vt 0.400000 0.250000
vt 0.397118 0.279264
vt 0.166664 0.374720
vt 0.192597 0.388582
vt 0.388582 0.307402
vt 0.220736 0.397118
vt 0.374720 0.333336
vt 0.356066 0.356066
vt 0.250000 0.400000
vt 0.279264 0.397118
vt 0.000000 1.000000
vt 0.900000 0.250000
vt 0.897118 0.279264
vt 0.841844 0.028269
vt 0.750000 0.010000
vt 0.703178 0.014612
vt 0.658156 0.028269
vt 0.602882 0.220736
vt 0.611418 0.192597
vt 0.625280 0.166664
vt 0.897118 0.220736
vt 0.888582 0.192597
vt 0.643934 0.143934
vt 0.666664 0.125280
vt 0.874720 0.166664
vt 0.692597 0.111418
vt 0.856066 0.143934
vt 0.833335 0.125280
vt 0.720737 0.102882
vt 0.750000 0.100000
vt 0.750000 0.490000
vt 0.888582 0.307402
vt 0.874720 0.333336
vt 0.602882 0.279264
vt 0.611418 0.307403
vt 0.856066 0.356066
vt 0.833335 0.374720
vt 0.625280 0.333336
vt 0.807402 0.388582
vt 0.643934 0.356066
vt 0.666664 0.374720
vt 0.779263 0.397118
vt 0.750000 0.400000
vt 1.000000 0.769290
vt 0.600000 0.250000
vt 0.000000 0.730710
s 0
f 290/1/1 149/2/1 291/3/1
f 295/4/2 155/5/2 290/1/2
f 293/6/3 154/7/3 295/4/3
f 304/8/4 172/9/4 293/6/4
f 304/8/5 176/10/5 180/11/5
f 298/12/6 189/13/6 176/10/6
f 303/14/7 184/15/7 189/13/7
f 300/16/8 182/17/8 184/15/8
f 299/18/9 188/19/9 182/17/9
f 302/20/10 186/21/10 188/19/10
f 301/22/11 178/23/11 186/21/11
f 296/24/12 191/25/12 178/23/12
f 297/26/13 173/27/13 191/25/13
f 294/28/14 170/29/14 173/27/14
f 292/30/15 166/31/15 170/29/15
f 317/32/16 163/33/16 166/31/16
f 318/34/17 167/35/17 163/33/17
f 316/36/18 161/37/18 167/35/18
f 319/38/19 145/39/19 161/37/19
f 314/40/20 160/41/20 145/39/20
f 309/42/21 160/41/21 311/43/21
f 306/44/22 137/45/22 309/42/22
f 307/46/23 131/47/23 306/44/23
f 305/48/24 134/49/24 307/46/24
f 308/50/25 130/51/25 305/48/25
f 312/52/26 136/53/26 308/50/26
f 310/54/27 141/55/27 312/52/27
f 320/56/28 140/57/28 310/54/28
f 315/58/29 143/59/29 320/56/29
f 313/60/30 147/61/30 315/58/30
f 46/62/31 237/63/31 175/64/31
f 289/65/32 157/66/32 313/60/32
f 291/67/33 151/68/33 289/65/33
f 108/69/34 169/70/34 236/71/34
f 5/72/1 12/73/1 4/74/1
f 14/75/2 17/76/2 12/73/2
f 22/77/3 28/78/3 17/76/3
f 31/79/4 35/80/4 28/78/4
f 39/81/5 43/82/5 35/80/5
f 47/83/6 50/84/6 43/82/6
f 56/85/7 57/86/7 50/84/7
f 64/87/8 65/88/8 57/86/8
f 71/89/9 74/90/9 65/88/9
f 78/91/10 83/92/10 74/90/10
f 85/93/11 90/94/11 83/92/11
f 93/95/12 97/96/12 90/94/12
f 104/97/13 106/98/13 97/96/13
f 110/99/14 115/100/14 106/98/14
f 118/101/15 121/102/15 115/100/15
f 126/103/16 129/104/16 121/102/16
f 133/105/17 138/106/17 129/104/17
f 144/107/18 146/108/18 138/106/18
f 150/109/19 153/110/19 146/108/19
f 158/111/20 162/112/20 153/110/20
f 168/113/21 171/114/21 162/112/21
f 174/115/22 179/116/22 171/114/22
f 181/117/23 185/118/23 179/116/23
f 192/119/24 196/120/24 185/118/24
f 197/121/25 201/122/25 196/120/25
f 207/123/26 211/124/26 201/122/26
f 214/125/27 220/126/27 211/124/27
f 224/127/28 226/128/28 220/126/28
f 230/129/29 234/130/29 226/128/29
f 240/131/30 242/132/30 234/130/30
f 158/133/31 273/134/31 265/135/31
f 22/136/31 269/137/31 278/138/31
f 246/139/32 250/140/32 242/132/32
f 256/141/33 4/142/33 250/140/33
f 121/143/34 317/144/34 292/145/34
f 250/146/34 289/147/34 313/148/34
f 270/149/17 8/150/17 15/151/17
f 269/152/18 15/151/18 23/153/18
f 278/154/19 23/153/19 29/155/19
f 282/156/20 29/155/20 38/157/20
f 282/156/21 46/158/21 280/159/21
f 280/159/22 54/160/22 287/161/22
f 287/161/23 62/162/23 284/163/23
f 284/163/24 70/164/24 283/165/24
f 283/165/25 79/166/25 286/167/25
f 286/167/26 87/168/26 285/169/26
f 285/169/27 95/170/27 281/171/27
f 281/171/28 102/172/28 288/173/28
f 288/173/29 112/174/29 279/175/29
f 279/175/30 120/176/30 277/177/30
f 277/177/32 127/178/32 275/179/32
f 275/179/33 135/180/33 274/181/33
f 274/181/1 142/182/1 276/183/1
f 276/183/2 152/184/2 273/185/2
f 273/185/3 159/186/3 265/187/3
f 265/187/4 165/188/4 272/189/4
f 261/190/5 165/188/5 175/191/5
f 258/192/6 175/191/6 183/193/6
f 259/194/7 183/193/7 190/195/7
f 257/196/8 190/195/8 200/197/8
f 260/198/9 200/197/9 206/199/9
f 263/200/10 206/199/10 215/201/10
f 262/202/11 215/201/11 222/203/11
f 264/204/12 222/203/12 232/205/12
f 266/206/13 232/205/13 237/207/13
f 271/208/14 237/207/14 248/209/14
f 268/210/15 248/209/15 254/211/15
f 267/212/16 254/211/16 8/213/16
f 3/72/1 6/73/1 1/74/1
f 7/75/2 9/76/2 6/73/2
f 11/77/3 13/78/3 9/76/3
f 16/79/4 18/80/4 13/78/4
f 19/81/5 21/82/5 18/80/5
f 24/83/6 25/84/6 21/82/6
f 27/85/7 30/86/7 25/84/7
f 32/87/8 33/88/8 30/86/8
f 36/89/9 37/90/9 33/88/9
f 40/91/10 42/92/10 37/90/10
f 44/93/11 45/94/11 42/92/11
f 48/95/12 49/96/12 45/94/12
f 51/97/13 53/98/13 49/96/13
f 55/99/14 58/100/14 53/98/14
f 60/101/15 61/102/15 58/100/15
f 63/103/16 66/104/16 61/102/16
f 68/105/17 69/106/17 66/104/17
f 72/107/18 73/108/18 69/106/18
f 75/109/19 77/110/19 73/108/19
f 80/111/20 82/112/20 77/110/20
f 84/113/21 86/114/21 82/112/21
f 88/115/22 89/116/22 86/114/22
f 92/117/23 94/118/23 89/116/23
f 96/119/24 98/120/24 94/118/24
f 100/121/25 101/122/25 98/120/25
f 103/123/26 105/124/26 101/122/26
f 107/125/27 109/126/27 105/124/27
f 111/127/28 114/128/28 109/126/28
f 116/129/29 117/130/29 114/128/29
f 119/131/30 122/132/30 117/130/30
f 75/214/31 161/134/31 145/135/31
f 16/215/31 154/137/31 172/138/31
f 124/139/32 125/140/32 122/132/32
f 128/141/33 1/142/33 125/140/33
f 61/143/34 249/144/34 199/145/34
f 125/146/34 193/147/34 241/148/34
f 198/216/17 10/151/17 2/150/17
f 195/217/18 20/153/18 10/151/18
f 205/218/19 26/155/19 20/153/19
f 202/219/20 34/157/20 26/155/20
f 212/220/21 34/157/21 223/221/21
f 221/222/22 41/158/22 212/220/22
f 216/223/23 52/160/23 221/222/23
f 213/224/24 59/162/24 216/223/24
f 219/225/25 67/164/25 213/224/25
f 218/226/26 76/166/26 219/225/26
f 208/227/27 81/168/27 218/226/27
f 209/228/28 91/170/28 208/227/28
f 203/229/29 99/172/29 209/228/29
f 199/230/30 108/174/30 203/229/30
f 249/231/32 113/176/32 199/230/32
f 251/232/33 123/178/33 249/231/33
f 247/233/1 132/180/1 251/232/1
f 253/234/2 139/182/2 247/233/2
f 244/235/3 148/184/3 253/234/3
f 238/236/4 156/186/4 244/235/4
f 238/236/5 169/191/5 164/188/5
f 233/237/6 177/193/6 169/191/6
f 227/238/7 187/195/7 177/193/7
f 229/239/8 194/197/8 187/195/8
f 225/240/9 204/199/9 194/197/9
f 231/241/10 210/201/10 204/199/10
f 239/242/11 217/203/11 210/201/11
f 235/243/12 228/205/12 217/203/12
f 255/244/13 236/207/13 228/205/13
f 245/245/14 243/209/14 236/207/14
f 241/246/15 252/211/15 243/209/15
f 193/247/16 2/213/16 252/211/16
f 290/1/1 155/5/1 149/2/1
f 295/4/2 154/7/2 155/5/2
f 293/6/3 172/9/3 154/7/3
f 304/8/4 180/11/4 172/9/4
f 304/8/5 298/12/5 176/10/5
f 298/12/6 303/14/6 189/13/6
f 303/14/7 300/16/7 184/15/7
f 300/16/8 299/18/8 182/17/8
f 299/18/9 302/20/9 188/19/9
f 302/20/10 301/22/10 186/21/10
f 301/22/11 296/24/11 178/23/11
f 296/24/12 297/26/12 191/25/12
f 297/26/13 294/28/13 173/27/13
f 294/28/14 292/30/14 170/29/14
f 292/30/15 317/32/15 166/31/15
f 317/32/16 318/34/16 163/33/16
f 318/34/17 316/36/17 167/35/17
f 316/36/18 319/38/18 161/37/18
f 319/38/19 314/40/19 145/39/19
f 314/40/20 311/43/20 160/41/20
f 309/42/21 137/45/21 160/41/21
f 306/44/22 131/47/22 137/45/22
f 307/46/23 134/49/23 131/47/23
f 305/48/24 130/51/24 134/49/24
f 308/50/25 136/53/25 130/51/25
f 312/52/26 141/55/26 136/53/26
f 310/54/27 140/57/27 141/55/27
f 320/56/28 143/59/28 140/57/28
f 315/58/29 147/61/29 143/59/29
f 313/60/30 157/66/30 147/61/30
f 175/64/31 165/248/31 159/133/31
f 159/133/31 152/249/31 142/250/31
f 142/250/31 135/251/31 127/252/31
f 127/252/31 120/253/31 112/254/31
f 112/254/31 102/255/31 95/256/31
f 95/256/31 87/257/31 79/258/31
f 79/258/31 70/259/31 62/260/31
f 62/260/31 54/261/31 46/62/31
f 46/62/31 38/262/31 29/215/31
f 29/215/31 23/136/31 15/263/31
f 15/263/31 8/264/31 254/265/31
f 254/265/31 248/266/31 237/63/31
f 237/63/31 232/267/31 222/268/31
f 222/268/31 215/269/31 206/270/31
f 206/270/31 200/271/31 190/272/31
f 190/272/31 183/273/31 175/64/31
f 175/64/31 159/133/31 142/250/31
f 142/250/31 127/252/31 112/254/31
f 112/254/31 95/256/31 79/258/31
f 79/258/31 62/260/31 46/62/31
f 46/62/31 29/215/31 15/263/31
f 15/263/31 254/265/31 237/63/31
f 237/63/31 222/268/31 206/270/31
f 206/270/31 190/272/31 175/64/31
f 175/64/31 142/250/31 112/254/31
f 112/254/31 79/258/31 46/62/31
f 46/62/31 15/263/31 237/63/31
f 237/63/31 206/270/31 175/64/31
f 175/64/31 112/254/31 46/62/31
f 289/65/32 151/68/32 157/66/32
f 291/67/33 149/274/33 151/68/33
f 236/71/34 243/275/34 252/146/34
f 252/146/34 2/276/34 10/277/34
f 10/277/34 20/278/34 26/279/34
f 26/279/34 34/280/34 41/281/34
f 41/281/34 52/282/34 59/283/34
f 59/283/34 67/284/34 76/285/34
f 76/285/34 81/286/34 91/287/34
f 91/287/34 99/288/34 108/69/34
f 108/69/34 113/289/34 123/290/34
f 123/290/34 132/291/34 139/292/34
f 139/292/34 148/293/34 156/294/34
f 156/294/34 164/295/34 169/70/34
f 169/70/34 177/296/34 187/297/34
f 187/297/34 194/298/34 204/299/34
f 204/299/34 210/300/34 217/301/34
f 217/301/34 228/302/34 236/71/34
f 236/71/34 252/146/34 10/277/34
f 10/277/34 26/279/34 41/281/34
f 41/281/34 59/283/34 76/285/34
f 76/285/34 91/287/34 108/69/34
f 108/69/34 123/290/34 139/292/34
f 139/292/34 156/294/34 169/70/34
f 169/70/34 187/297/34 204/299/34
f 204/299/34 217/301/34 236/71/34
f 236/71/34 10/277/34 41/281/34
f 41/281/34 76/285/34 108/69/34
f 108/69/34 139/292/34 169/70/34
f 169/70/34 204/299/34 236/71/34
f 236/71/34 41/281/34 108/69/34
f 5/72/1 14/75/1 12/73/1
f 14/75/2 22/77/2 17/76/2
f 22/77/3 31/79/3 28/78/3
f 31/79/4 39/81/4 35/80/4
f 39/81/5 47/83/5 43/82/5
f 47/83/6 56/85/6 50/84/6
f 56/85/7 64/87/7 57/86/7
f 64/87/8 71/89/8 65/88/8
f 71/89/9 78/91/9 74/90/9
f 78/91/10 85/93/10 83/92/10
f 85/93/11 93/95/11 90/94/11
f 93/95/12 104/97/12 97/96/12
f 104/97/13 110/99/13 106/98/13
f 110/99/14 118/101/14 115/100/14
f 118/101/15 126/103/15 121/102/15
f 126/103/16 133/105/16 129/104/16
f 133/105/17 144/107/17 138/106/17
f 144/107/18 150/109/18 146/108/18
f 150/109/19 158/111/19 153/110/19
f 158/111/20 168/113/20 162/112/20
f 168/113/21 174/115/21 171/114/21
f 174/115/22 181/117/22 179/116/22
f 181/117/23 192/119/23 185/118/23
f 192/119/24 197/121/24 196/120/24
f 197/121/25 207/123/25 201/122/25
f 207/123/26 214/125/26 211/124/26
f 214/125/27 224/127/27 220/126/27
f 224/127/28 230/129/28 226/128/28
f 230/129/29 240/131/29 234/130/29
f 240/131/30 246/139/30 242/132/30
f 192/303/31 181/304/31 174/64/31
f 174/64/31 168/248/31 158/133/31
f 158/133/31 150/214/31 144/305/31
f 144/305/31 133/306/31 126/307/31
f 126/307/31 118/308/31 110/254/31
f 110/254/31 104/255/31 93/256/31
f 93/256/31 85/257/31 285/309/31
f 93/256/31 285/309/31 281/310/31
f 126/307/31 110/254/31 93/256/31
f 158/133/31 144/305/31 126/307/31
f 192/303/31 174/64/31 158/133/31
f 207/311/31 197/312/31 192/303/31
f 263/313/31 214/314/31 207/311/31
f 260/315/31 263/313/31 207/311/31
f 207/311/31 192/303/31 158/133/31
f 158/133/31 126/307/31 93/256/31
f 93/256/31 281/310/31 288/316/31
f 93/256/31 288/316/31 279/317/31
f 257/318/31 260/315/31 207/311/31
f 259/319/31 257/318/31 207/311/31
f 93/256/31 279/317/31 277/320/31
f 93/256/31 277/320/31 275/321/31
f 259/319/31 207/311/31 158/133/31
f 258/322/31 259/319/31 158/133/31
f 158/133/31 93/256/31 275/321/31
f 158/133/31 275/321/31 274/323/31
f 261/324/31 258/322/31 158/133/31
f 272/325/31 261/324/31 158/133/31
f 158/133/31 274/323/31 276/326/31
f 158/133/31 276/326/31 273/134/31
f 265/135/31 272/325/31 158/133/31
f 286/327/31 285/309/31 85/257/31
f 85/257/31 78/258/31 71/328/31
f 71/328/31 64/260/31 56/261/31
f 56/261/31 47/62/31 39/262/31
f 39/262/31 31/215/31 22/136/31
f 22/136/31 14/263/31 5/329/31
f 5/329/31 256/265/31 246/266/31
f 246/266/31 240/63/31 230/267/31
f 230/267/31 224/268/31 214/314/31
f 214/314/31 263/313/31 262/330/31
f 214/314/31 262/330/31 264/331/31
f 246/266/31 230/267/31 214/314/31
f 22/136/31 5/329/31 246/266/31
f 56/261/31 39/262/31 22/136/31
f 85/257/31 71/328/31 56/261/31
f 283/332/31 286/327/31 85/257/31
f 284/333/31 283/332/31 85/257/31
f 85/257/31 56/261/31 22/136/31
f 22/136/31 246/266/31 214/314/31
f 214/314/31 264/331/31 266/334/31
f 214/314/31 266/334/31 271/335/31
f 284/333/31 85/257/31 22/136/31
f 287/336/35 284/333/35 22/136/35
f 22/136/31 214/314/31 271/335/31
f 22/136/31 271/335/31 268/337/31
f 280/338/31 287/336/31 22/136/31
f 282/339/31 280/338/31 22/136/31
f 22/136/31 268/337/31 267/340/31
f 22/136/31 267/340/31 270/341/31
f 278/138/31 282/339/31 22/136/31
f 22/136/31 270/341/31 269/137/31
f 246/139/32 256/141/32 250/140/32
f 256/141/33 5/342/33 4/142/33
f 299/343/34 300/344/34 57/283/34
f 57/283/34 65/284/34 74/285/34
f 74/285/34 83/286/34 90/287/34
f 90/287/34 97/288/34 106/69/34
f 106/69/34 115/345/34 121/143/34
f 121/143/34 129/346/34 138/347/34
f 138/347/34 146/348/34 153/294/34
f 153/294/34 162/295/34 171/70/34
f 171/70/34 179/296/34 185/297/34
f 185/297/34 307/349/34 306/350/34
f 185/297/34 306/350/34 309/351/34
f 153/294/34 171/70/34 185/297/34
f 121/143/34 138/347/34 153/294/34
f 90/287/34 106/69/34 121/143/34
f 57/283/34 74/285/34 90/287/34
f 302/352/34 299/343/34 57/283/34
f 301/353/34 302/352/34 57/283/34
f 57/283/34 90/287/34 121/143/34
f 121/143/34 153/294/34 185/297/34
f 185/297/34 309/351/34 311/354/34
f 185/297/34 311/354/34 314/355/34
f 301/353/34 57/283/34 121/143/34
f 296/356/34 301/353/34 121/143/34
f 121/143/34 185/297/34 314/355/34
f 121/143/34 314/355/34 319/357/34
f 297/358/34 296/356/34 121/143/34
f 294/359/34 297/358/34 121/143/34
f 121/143/34 319/357/34 316/360/34
f 121/143/34 316/360/34 318/361/34
f 292/145/34 294/359/34 121/143/34
f 121/143/34 318/361/34 317/144/34
f 305/298/34 307/349/34 185/297/34
f 185/297/34 196/298/34 201/299/34
f 201/299/34 211/300/34 220/301/34
f 220/301/34 226/302/34 234/71/34
f 234/71/34 242/275/34 250/146/34
f 250/146/34 4/362/34 12/277/34
f 12/277/34 17/278/34 28/279/34
f 28/279/34 35/280/34 43/281/34
f 43/281/34 50/282/34 57/283/34
f 57/283/34 300/344/34 303/363/34
f 57/283/34 303/363/34 298/364/34
f 28/279/34 43/281/34 57/283/34
f 250/146/34 12/277/34 28/279/34
f 220/301/34 234/71/34 250/146/34
f 185/297/34 201/299/34 220/301/34
f 308/365/34 305/298/34 185/297/34
f 312/366/34 308/365/34 185/297/34
f 185/297/34 220/301/34 250/146/34
f 250/146/34 28/279/34 57/283/34
f 57/283/34 298/364/34 304/367/34
f 57/283/34 304/367/34 293/368/34
f 312/366/34 185/297/34 250/146/34
f 310/369/34 312/366/34 250/146/34
f 250/146/34 57/283/34 293/368/34
f 250/146/34 293/368/34 295/370/34
f 320/371/34 310/369/34 250/146/34
f 315/372/34 320/371/34 250/146/34
f 250/146/34 295/370/34 290/373/34
f 250/146/34 290/373/34 291/374/34
f 313/148/34 315/372/34 250/146/34
f 250/146/34 291/374/34 289/147/34
f 270/149/17 267/375/17 8/150/17
f 269/152/18 270/149/18 15/151/18
f 278/154/19 269/152/19 23/153/19
f 282/156/20 278/154/20 29/155/20
f 282/156/21 38/157/21 46/158/21
f 280/159/22 46/158/22 54/160/22
f 287/161/23 54/160/23 62/162/23
f 284/163/24 62/162/24 70/164/24
f 283/165/25 70/164/25 79/166/25
f 286/167/26 79/166/26 87/168/26
f 285/169/27 87/168/27 95/170/27
f 281/171/28 95/170/28 102/172/28
f 288/173/29 102/172/29 112/174/29
f 279/175/30 112/174/30 120/176/30
f 277/177/32 120/176/32 127/178/32
f 275/179/33 127/178/33 135/180/33
f 274/181/1 135/180/1 142/182/1
f 276/183/2 142/182/2 152/184/2
f 273/185/3 152/184/3 159/186/3
f 265/187/4 159/186/4 165/188/4
f 261/190/5 272/189/5 165/188/5
f 258/192/6 261/190/6 175/191/6
f 259/194/7 258/192/7 183/193/7
f 257/196/8 259/194/8 190/195/8
f 260/198/9 257/196/9 200/197/9
f 263/200/10 260/198/10 206/199/10
f 262/202/11 263/200/11 215/201/11
f 264/204/12 262/202/12 222/203/12
f 266/206/13 264/204/13 232/205/13
f 271/208/14 266/206/14 237/207/14
f 268/210/15 271/208/15 248/209/15
f 267/212/16 268/210/16 254/211/16
f 3/72/1 7/75/1 6/73/1
f 7/75/2 11/77/2 9/76/2
f 11/77/3 16/79/3 13/78/3
f 16/79/4 19/81/4 18/80/4
f 19/81/5 24/83/5 21/82/5
f 24/83/6 27/85/6 25/84/6
f 27/85/7 32/87/7 30/86/7
f 32/87/8 36/89/8 33/88/8
f 36/89/9 40/91/9 37/90/9
f 40/91/10 44/93/10 42/92/10
f 44/93/11 48/95/11 45/94/11
f 48/95/12 51/97/12 49/96/12
f 51/97/13 55/99/13 53/98/13
f 55/99/14 60/101/14 58/100/14
f 60/101/15 63/103/15 61/102/15
f 63/103/16 68/105/16 66/104/16
f 68/105/17 72/107/17 69/106/17
f 72/107/18 75/109/18 73/108/18
f 75/109/19 80/111/19 77/110/19
f 80/111/20 84/113/20 82/112/20
f 84/113/21 88/115/21 86/114/21
f 88/115/22 92/117/22 89/116/22
f 92/117/23 96/119/23 94/118/23
f 96/119/24 100/121/24 98/120/24
f 100/121/25 103/123/25 101/122/25
f 103/123/26 107/125/26 105/124/26
f 107/125/27 111/127/27 109/126/27
f 111/127/28 116/129/28 114/128/28
f 116/129/29 119/131/29 117/130/29
f 119/131/30 124/139/30 122/132/30
f 107/314/31 103/311/31 100/312/31
f 100/312/31 96/303/31 92/304/31
f 92/304/31 88/64/31 84/248/31
f 84/248/31 80/133/31 75/214/31
f 75/214/31 72/305/31 68/306/31
f 68/306/31 63/307/31 60/308/31
f 60/308/31 55/254/31 51/255/31
f 51/255/31 48/256/31 44/257/31
f 44/257/31 186/309/31 178/310/31
f 44/257/31 178/310/31 191/316/31
f 60/308/31 51/255/31 44/257/31
f 75/214/31 68/306/31 60/308/31
f 92/304/31 84/248/31 75/214/31
f 107/314/31 100/312/31 92/304/31
f 136/315/31 141/313/31 107/314/31
f 130/318/31 136/315/31 107/314/31
f 107/314/31 92/304/31 75/214/31
f 75/214/31 60/308/31 44/257/31
f 44/257/31 191/316/31 173/317/31
f 44/257/31 173/317/31 170/320/31
f 134/319/31 130/318/31 107/314/31
f 131/322/31 134/319/31 107/314/31
f 75/214/31 44/257/31 170/320/31
f 75/214/31 170/320/31 166/321/31
f 131/322/31 107/314/31 75/214/31
f 137/324/31 131/322/31 75/214/31
f 75/214/31 166/321/31 163/323/31
f 75/214/31 163/323/31 167/326/31
f 160/325/31 137/324/31 75/214/31
f 145/135/31 160/325/31 75/214/31
f 75/214/31 167/326/31 161/134/31
f 32/260/31 27/261/31 24/62/31
f 24/62/31 19/262/31 16/215/31
f 16/215/31 11/136/31 7/263/31
f 7/263/31 3/329/31 128/265/31
f 128/265/31 124/266/31 119/63/31
f 119/63/31 116/267/31 111/268/31
f 111/268/31 107/314/31 141/313/31
f 111/268/31 141/313/31 140/330/31
f 128/265/31 119/63/31 111/268/31
f 16/215/31 7/263/31 128/265/31
f 32/260/31 24/62/31 16/215/31
f 40/258/31 36/328/31 32/260/31
f 186/309/31 44/257/31 40/258/31
f 188/327/31 186/309/31 40/258/31
f 40/258/31 32/260/31 16/215/31
f 16/215/31 128/265/31 111/268/31
f 111/268/31 140/330/31 143/331/31
f 111/268/31 143/331/31 147/334/31
f 182/332/31 188/327/31 40/258/31
f 184/333/31 182/332/31 40/258/31
f 111/268/31 147/334/31 157/335/31
f 111/268/31 157/335/31 151/337/31
f 184/333/31 40/258/31 16/215/31
f 189/336/31 184/333/31 16/215/31
f 16/215/31 111/268/31 151/337/31
f 16/215/31 151/337/31 149/340/31
f 176/338/31 189/336/31 16/215/31
f 180/339/31 176/338/31 16/215/31
f 16/215/31 149/340/31 155/341/31
f 16/215/31 155/341/31 154/137/31
f 172/138/31 180/339/31 16/215/31
f 124/139/32 128/141/32 125/140/32
f 128/141/33 3/342/33 1/142/33
f 213/343/34 216/344/34 30/283/34
f 30/283/34 33/284/34 37/285/34
f 37/285/34 42/286/34 45/287/34
f 45/287/34 49/288/34 53/69/34
f 53/69/34 58/345/34 61/143/34
f 61/143/34 66/346/34 69/347/34
f 69/347/34 73/348/34 77/294/34
f 77/294/34 82/295/34 86/70/34
f 86/70/34 89/296/34 94/297/34
f 94/297/34 229/349/34 227/350/34
f 94/297/34 227/350/34 233/351/34
f 77/294/34 86/70/34 94/297/34
f 61/143/34 69/347/34 77/294/34
f 45/287/34 53/69/34 61/143/34
f 30/283/34 37/285/34 45/287/34
f 219/352/34 213/343/34 30/283/34
f 218/353/34 219/352/34 30/283/34
f 30/283/34 45/287/34 61/143/34
f 61/143/34 77/294/34 94/297/34
f 94/297/34 233/351/34 238/354/34
f 94/297/34 238/354/34 244/355/34
f 218/353/34 30/283/34 61/143/34
f 208/356/34 218/353/34 61/143/34
f 61/143/34 94/297/34 244/355/34
f 61/143/34 244/355/34 253/357/34
f 209/358/34 208/356/34 61/143/34
f 203/359/34 209/358/34 61/143/34
f 61/143/34 253/357/34 247/360/34
f 61/143/34 247/360/34 251/361/34
f 199/145/34 203/359/34 61/143/34
f 61/143/34 251/361/34 249/144/34
f 225/376/34 229/349/34 94/297/34
f 94/297/34 98/298/34 101/299/34
f 101/299/34 105/300/34 109/301/34
f 109/301/34 114/302/34 117/71/34
f 117/71/34 122/275/34 125/146/34
f 125/146/34 1/362/34 6/277/34
f 6/277/34 9/278/34 13/279/34
f 13/279/34 18/280/34 21/281/34
f 21/281/34 25/282/34 30/283/34
f 30/283/34 216/344/34 221/363/34
f 30/283/34 221/363/34 212/364/34
f 13/279/34 21/281/34 30/283/34
f 125/146/34 6/277/34 13/279/34
f 109/301/34 117/71/34 125/146/34
f 94/297/34 101/299/34 109/301/34
f 231/365/34 225/376/34 94/297/34
f 239/366/34 231/365/34 94/297/34
f 94/297/34 109/301/34 125/146/34
f 125/146/34 13/279/34 30/283/34
f 30/283/34 212/364/34 223/367/34
f 30/283/34 223/367/34 202/368/34
f 239/366/34 94/297/34 125/146/34
f 235/369/34 239/366/34 125/146/34
f 125/146/34 30/283/34 202/368/34
f 125/146/34 202/368/34 205/370/34
f 255/371/34 235/369/34 125/146/34
f 245/372/34 255/371/34 125/146/34
f 125/146/34 205/370/34 195/373/34
f 125/146/34 195/373/34 198/374/34
f 241/148/34 245/372/34 125/146/34
f 125/146/34 198/374/34 193/147/34
f 198/216/17 195/217/17 10/151/17
f 195/217/18 205/218/18 20/153/18
f 205/218/19 202/219/19 26/155/19
f 202/219/20 223/221/20 34/157/20
f 212/220/21 41/158/21 34/157/21
f 221/222/22 52/160/22 41/158/22
f 216/223/23 59/162/23 52/160/23
f 213/224/24 67/164/24 59/162/24
f 219/225/25 76/166/25 67/164/25
f 218/226/26 81/168/26 76/166/26
f 208/227/27 91/170/27 81/168/27
f 209/228/28 99/172/28 91/170/28
f 203/229/29 108/174/29 99/172/29
f 199/230/30 113/176/30 108/174/30
f 249/231/32 123/178/32 113/176/32
f 251/232/33 132/180/33 123/178/33
f 247/233/1 139/182/1 132/180/1
f 253/234/2 148/184/2 139/182/2
f 244/235/3 156/186/3 148/184/3
f 238/236/4 164/188/4 156/186/4
f 238/236/5 233/237/5 169/191/5
f 233/237/6 227/238/6 177/193/6
f 227/238/7 229/239/7 187/195/7
f 229/239/8 225/240/8 194/197/8
f 225/240/9 231/241/9 204/199/9
f 231/241/10 239/242/10 210/201/10
f 239/242/11 235/243/11 217/203/11
f 235/243/12 255/244/12 228/205/12
f 255/244/13 245/245/13 236/207/13
f 245/245/14 241/246/14 243/209/14
f 241/246/15 193/247/15 252/211/15
f 193/247/16 198/377/16 2/213/16
