# Blender 5.0.1
# www.blender.org
mtllib Untitled.mtl
o Sphere_Sphere_Material
v 5.411565 2.701503 -1.100247
v 5.500510 2.809883 -1.100247
v 5.422992 2.701503 -1.216262
v 5.608891 2.898828 -1.100247
v 5.732540 2.964920 -1.100247
v 5.616525 2.898828 -1.177765
v 5.732540 1.643390 -1.100247
v 5.608891 1.709482 -1.100247
v 5.616525 1.709482 -1.177766
v 5.500510 1.798428 -1.100247
v 5.411565 1.906808 -1.100247
v 5.510228 1.798428 -1.198910
v 5.345473 2.030457 -1.100247
v 5.304773 2.164625 -1.100247
v 5.358170 2.030457 -1.229156
v 5.291031 2.304155 -1.100247
v 5.304773 2.443685 -1.100247
v 5.304773 2.304155 -1.239777
v 5.345473 2.577853 -1.100247
v 5.510228 2.809883 -1.198910
v 5.866708 1.602691 -1.100247
v 5.737799 1.643390 -1.153643
v 5.866708 3.005620 -1.100247
v 5.869389 3.005620 -1.127468
v 5.422992 1.906808 -1.216262
v 5.318252 2.164625 -1.237096
v 5.358170 2.577853 -1.229156
v 5.395771 2.030457 -1.353111
v 5.358170 2.164625 -1.368686
v 5.318252 2.443685 -1.237096
v 5.358170 2.443685 -1.368686
v 5.456832 2.701503 -1.327819
v 5.737799 2.964920 -1.153643
v 5.753374 2.964920 -1.204987
v 5.753374 1.643390 -1.204987
v 5.539007 1.798428 -1.293781
v 5.395771 2.577853 -1.353111
v 5.639137 2.898828 -1.252306
v 5.869389 1.602691 -1.127468
v 5.877329 1.602691 -1.153643
v 5.877329 3.005620 -1.153643
v 5.639137 1.709482 -1.252306
v 5.456832 1.906808 -1.327819
v 5.511786 1.906808 -1.430630
v 5.345473 2.304155 -1.373945
v 5.422992 2.164625 -1.489960
v 5.422992 2.443685 -1.489960
v 5.539007 2.809883 -1.293781
v 5.585741 2.809883 -1.381214
v 5.675856 2.898828 -1.321002
v 5.675856 1.709482 -1.321002
v 5.585741 1.798428 -1.381215
v 5.456832 2.577853 -1.467349
v 5.778666 1.643390 -1.252306
v 5.778666 2.964920 -1.252306
v 5.456832 2.030457 -1.467349
v 5.585741 1.906808 -1.520745
v 5.411565 2.304155 -1.497595
v 5.510228 2.164625 -1.596258
v 5.510228 2.443685 -1.596258
v 5.511786 2.701503 -1.430629
v 5.585741 2.701503 -1.520745
v 5.725271 2.898828 -1.381214
v 5.812705 1.643390 -1.293781
v 5.648634 1.798428 -1.457851
v 5.539007 2.030457 -1.567479
v 5.500510 2.304155 -1.605975
v 5.648634 2.809883 -1.457851
v 5.890223 1.602691 -1.177766
v 5.907576 1.602691 -1.198910
v 5.890223 3.005620 -1.177765
v 5.907576 3.005620 -1.198910
v 5.675856 1.906808 -1.594700
v 5.616526 2.164625 -1.683494
v 5.539007 2.577853 -1.567479
v 5.616526 2.443685 -1.683494
v 5.675856 2.701503 -1.594700
v 5.812705 2.964920 -1.293781
v 5.854180 2.964920 -1.327819
v 5.725271 1.709482 -1.381215
v 5.854180 1.643390 -1.327819
v 5.639137 2.030457 -1.649654
v 5.639137 2.577853 -1.649654
v 5.725271 2.809883 -1.520745
v 5.928720 1.602691 -1.216262
v 5.785483 1.709482 -1.430630
v 5.753374 2.030457 -1.710715
v 5.608891 2.304155 -1.694920
v 5.737800 2.164625 -1.748316
v 5.737800 2.443685 -1.748316
v 5.778666 2.701503 -1.649654
v 5.785483 2.898828 -1.430629
v 5.854180 2.898828 -1.467349
v 5.901498 1.643390 -1.353111
v 5.725271 1.798428 -1.520745
v 5.812705 1.798428 -1.567479
v 5.753374 2.577853 -1.710715
v 5.928720 3.005620 -1.216262
v 5.901498 2.964920 -1.353111
v 5.854180 1.709482 -1.467349
v 5.778666 1.906808 -1.649654
v 5.890224 1.906808 -1.683494
v 5.732540 2.304155 -1.761013
v 5.869390 2.164625 -1.788233
v 5.869390 2.443685 -1.788233
v 5.812705 2.809883 -1.567479
v 5.890224 2.701503 -1.683493
v 5.928720 2.898828 -1.489959
v 5.928720 1.709482 -1.489960
v 5.907576 1.798428 -1.596258
v 5.907576 2.809883 -1.596258
v 5.952842 1.602691 -1.229156
v 5.979017 1.602691 -1.237096
v 5.952842 3.005620 -1.229156
v 5.979017 3.005620 -1.237097
v 5.877329 2.030457 -1.748316
v 6.006238 1.906808 -1.694920
v 5.866708 2.304155 -1.801712
v 6.006238 2.164625 -1.801712
v 5.877329 2.577853 -1.748316
v 6.006238 2.443685 -1.801712
v 6.006238 2.701503 -1.694919
v 5.952842 2.964920 -1.368685
v 6.006238 2.898828 -1.497594
v 5.952842 1.643390 -1.368686
v 6.006238 1.709482 -1.497595
v 6.006238 2.809883 -1.605975
v 6.006238 1.602691 -1.239777
v 6.006238 2.964920 -1.373945
v 6.006238 2.030457 -1.761013
v 6.122253 1.906808 -1.683494
v 6.006238 2.304155 -1.815454
v 6.143087 2.164625 -1.788233
v 6.006238 2.577853 -1.761013
v 6.143087 2.443685 -1.788233
v 6.122253 2.701503 -1.683493
v 6.059634 2.964920 -1.368685
v 6.006238 1.643390 -1.373945
v 6.083757 1.709482 -1.489960
v 6.006238 1.798428 -1.605975
v 6.104901 2.809883 -1.596258
v 6.059634 1.643390 -1.368686
v 6.006238 3.005620 -1.239778
v 6.135147 2.030457 -1.748316
v 6.259102 2.030457 -1.710715
v 6.145768 2.304155 -1.801712
v 6.274677 2.164625 -1.748316
v 6.135147 2.577853 -1.748316
v 6.274677 2.443685 -1.748316
v 6.199772 2.809883 -1.567479
v 6.083757 2.898828 -1.489959
v 6.110978 2.964920 -1.353111
v 6.110978 1.643390 -1.353111
v 6.104901 1.798428 -1.596258
v 6.199772 1.798428 -1.567479
v 6.259102 2.577853 -1.710715
v 6.033459 1.602691 -1.237096
v 6.059634 1.602691 -1.229156
v 6.033459 3.005620 -1.237097
v 6.158297 1.709482 -1.467349
v 6.233809 1.906808 -1.649653
v 6.336621 1.906808 -1.594700
v 6.279936 2.304155 -1.761013
v 6.395951 2.164625 -1.683494
v 6.395951 2.443685 -1.683494
v 6.233809 2.701503 -1.649652
v 6.336621 2.701503 -1.594700
v 6.158297 2.898828 -1.467349
v 6.158297 2.964920 -1.327819
v 6.158297 1.643390 -1.327819
v 6.287206 1.798428 -1.520745
v 6.403586 2.304155 -1.694920
v 6.373340 2.577853 -1.649652
v 6.287206 2.809883 -1.520745
v 6.083757 1.602691 -1.216262
v 6.059634 3.005620 -1.229156
v 6.083757 3.005620 -1.216262
v 6.373340 2.030457 -1.649653
v 6.426735 1.906808 -1.520745
v 6.502248 2.164625 -1.596258
v 6.473470 2.577853 -1.567479
v 6.363842 2.809883 -1.457851
v 6.226993 2.898828 -1.430629
v 6.287206 2.898828 -1.381214
v 6.226993 1.709482 -1.430630
v 6.287206 1.709482 -1.381215
v 6.363842 1.798428 -1.457851
v 6.473470 2.030457 -1.567479
v 6.511966 2.304155 -1.605975
v 6.104901 1.602691 -1.198910
v 6.199772 2.964920 -1.293781
v 6.500690 1.906808 -1.430630
v 6.589485 2.164625 -1.489960
v 6.502248 2.443685 -1.596258
v 6.589485 2.443685 -1.489960
v 6.426735 2.701503 -1.520745
v 6.500690 2.701503 -1.430629
v 6.336621 2.898828 -1.321002
v 6.199772 1.643390 -1.293781
v 6.233809 1.643390 -1.252306
v 6.426735 1.798428 -1.381215
v 6.600911 2.304155 -1.497595
v 6.122253 1.602691 -1.177766
v 6.104901 3.005620 -1.198910
v 6.233810 2.964920 -1.252306
v 6.336621 1.709482 -1.321002
v 6.555644 2.030457 -1.467349
v 6.555644 1.906808 -1.327819
v 6.654307 2.164625 -1.368686
v 6.555644 2.577853 -1.467349
v 6.654307 2.443685 -1.368686
v 6.426735 2.809883 -1.381214
v 6.473470 2.809883 -1.293781
v 6.259102 2.964920 -1.204987
v 6.373340 1.709482 -1.252306
v 6.473470 1.798428 -1.293781
v 6.555644 2.701503 -1.327819
v 6.259102 1.643390 -1.204987
v 6.122253 3.005620 -1.177765
v 6.135147 3.005620 -1.153643
v 6.616705 2.030457 -1.353111
v 6.589484 1.906808 -1.216262
v 6.667003 2.304155 -1.373945
v 6.694224 2.164625 -1.237096
v 6.616705 2.577853 -1.353111
v 6.694224 2.443685 -1.237096
v 6.502248 2.809883 -1.198910
v 6.373340 2.898828 -1.252306
v 6.395951 2.898828 -1.177765
v 6.395951 1.709482 -1.177766
v 6.502248 1.798428 -1.198910
v 6.654307 2.577853 -1.229156
v 6.135147 1.602691 -1.153643
v 6.274677 1.643390 -1.153643
v 6.274677 2.964920 -1.153643
v 6.654307 2.030457 -1.229156
v 6.600911 1.906808 -1.100247
v 6.707703 2.304155 -1.239777
v 6.707703 2.164625 -1.100247
v 6.707703 2.443685 -1.100247
v 6.589484 2.701503 -1.216262
v 6.600911 2.701503 -1.100247
v 6.279936 2.964920 -1.100247
v 6.279936 1.643390 -1.100247
v 6.721445 2.304155 -1.100247
v 6.667003 2.577853 -1.100247
v 6.403586 2.898828 -1.100247
v 6.143087 1.602691 -1.127468
v 6.145768 1.602691 -1.100247
v 6.143087 3.005620 -1.127468
v 6.145768 3.005620 -1.100247
v 6.511966 1.798428 -1.100247
v 6.667003 2.030457 -1.100247
v 6.589484 1.906808 -0.984232
v 6.694224 2.164625 -0.963398
v 6.694224 2.443685 -0.963398
v 6.511966 2.809883 -1.100247
v 6.502248 2.809883 -1.001585
v 6.395951 2.898828 -1.022729
v 6.403586 1.709482 -1.100247
v 6.274677 1.643390 -1.046852
v 6.502248 1.798428 -1.001585
v 6.707703 2.304155 -0.960717
v 6.589484 2.701503 -0.984232
v 6.143087 1.602691 -1.073026
v 6.274677 2.964920 -1.046852
v 6.395951 1.709482 -1.022729
v 6.654307 2.030457 -0.971339
v 6.555644 1.906808 -0.872676
v 6.654306 2.164625 -0.831809
v 6.654307 2.577853 -0.971339
v 6.654306 2.443685 -0.831809
v 6.555644 2.701503 -0.872676
v 6.259102 2.964920 -0.995508
v 6.373340 1.709482 -0.948189
v 6.667003 2.304155 -0.826549
v 6.473470 2.809883 -0.906714
v 6.259102 1.643390 -0.995508
v 6.143087 3.005620 -1.073025
v 6.135147 3.005620 -1.046852
v 6.473470 1.798428 -0.906714
v 6.616705 2.030457 -0.847384
v 6.500690 1.906808 -0.769865
v 6.589484 2.164625 -0.710535
v 6.616705 2.577853 -0.847384
v 6.589484 2.443685 -0.710535
v 6.500690 2.701503 -0.769865
v 6.373340 2.898828 -0.948189
v 6.336621 2.898828 -0.879493
v 6.233809 1.643390 -0.948189
v 6.600911 2.304155 -0.702900
v 6.555644 2.577853 -0.733146
v 6.426735 2.809883 -0.819280
v 6.135147 1.602691 -1.046852
v 6.122253 1.602691 -1.022729
v 6.233809 2.964920 -0.948189
v 6.336621 1.709482 -0.879493
v 6.555644 2.030457 -0.733146
v 6.426735 1.906808 -0.679750
v 6.502248 2.164625 -0.604237
v 6.502248 2.443685 -0.604237
v 6.363842 2.809883 -0.742644
v 6.287206 2.898828 -0.819280
v 6.199772 1.643390 -0.906714
v 6.426735 1.798428 -0.819280
v 6.363842 1.798428 -0.742644
v 6.511966 2.304155 -0.594520
v 6.426735 2.701503 -0.679750
v 6.122253 3.005620 -1.022729
v 6.199772 2.964920 -0.906714
v 6.287205 1.709482 -0.819280
v 6.473470 2.030457 -0.633016
v 6.336620 1.906808 -0.605795
v 6.395951 2.164625 -0.517001
v 6.473470 2.577853 -0.633016
v 6.395951 2.443685 -0.517001
v 6.336620 2.701503 -0.605795
v 6.158297 2.964920 -0.872676
v 6.226993 1.709482 -0.769865
v 6.403586 2.304155 -0.505575
v 6.287205 2.809883 -0.679750
v 6.104901 1.602691 -1.001585
v 6.083757 1.602691 -0.984232
v 6.104901 3.005620 -1.001585
v 6.373340 2.030457 -0.550841
v 6.233809 1.906808 -0.550842
v 6.274677 2.164625 -0.452179
v 6.373340 2.577853 -0.550841
v 6.274677 2.443685 -0.452179
v 6.233809 2.701503 -0.550842
v 6.226993 2.898828 -0.769864
v 6.158297 2.898828 -0.733146
v 6.158297 1.643390 -0.872676
v 6.110978 1.643390 -0.847384
v 6.287205 1.798428 -0.679750
v 6.259102 2.030457 -0.489780
v 6.279936 2.304155 -0.439482
v 6.199772 2.809883 -0.633016
v 6.059634 1.602691 -0.971339
v 6.083757 3.005620 -0.984232
v 6.110978 2.964920 -0.847383
v 6.199772 1.798428 -0.633016
v 6.122253 1.906808 -0.517001
v 6.143087 2.164625 -0.412262
v 6.259102 2.577853 -0.489780
v 6.143087 2.443685 -0.412262
v 6.122253 2.701503 -0.517001
v 6.083757 2.898828 -0.710535
v 6.158297 1.709482 -0.733146
v 6.059634 1.643390 -0.831809
v 6.145768 2.304155 -0.398783
v 6.135147 2.577853 -0.452179
v 6.033459 1.602691 -0.963399
v 6.059634 3.005620 -0.971337
v 6.059634 2.964920 -0.831809
v 6.083757 1.709482 -0.710535
v 6.135147 2.030457 -0.452179
v 6.006238 1.906808 -0.505575
v 6.006238 2.164625 -0.398783
v 6.006238 2.443685 -0.398783
v 6.104901 2.809883 -0.604237
v 6.006238 2.701503 -0.505575
v 6.006238 2.898828 -0.702900
v 6.006238 1.643390 -0.826550
v 6.104901 1.798428 -0.604237
v 6.006238 1.602691 -0.960717
v 6.033459 3.005620 -0.963398
v 6.006238 3.005620 -0.960717
v 6.006238 1.709482 -0.702900
v 6.006238 2.030457 -0.439482
v 5.890223 1.906808 -0.517001
v 6.006238 2.304155 -0.385041
v 5.869389 2.164625 -0.412262
v 6.006238 2.577853 -0.439482
v 5.869389 2.443685 -0.412262
v 6.006238 2.809883 -0.594519
v 5.890223 2.701503 -0.517001
v 6.006238 2.964920 -0.826550
v 5.952842 2.964920 -0.831809
v 5.952842 1.643390 -0.831809
v 6.006238 1.798428 -0.594520
v 5.907576 2.809883 -0.604237
v 5.979017 1.602691 -0.963399
v 5.928720 1.709482 -0.710535
v 5.877329 2.030457 -0.452179
v 5.778667 1.906808 -0.550842
v 5.866708 2.304155 -0.398783
v 5.737799 2.164625 -0.452179
v 5.877329 2.577853 -0.452179
v 5.737799 2.443685 -0.452179
v 5.778667 2.701503 -0.550842
v 5.928720 2.898828 -0.710535
v 5.901499 2.964920 -0.847383
v 5.901499 1.643390 -0.847384
v 5.907576 1.798428 -0.604237
v 5.812705 1.798428 -0.633016
v 5.812705 2.809883 -0.633016
v 5.952842 1.602691 -0.971339
v 5.979017 3.005620 -0.963398
v 5.952842 3.005620 -0.971337
v 5.854180 1.709482 -0.733146
v 5.753375 2.030457 -0.489780
v 5.675856 1.906808 -0.605795
v 5.732540 2.304155 -0.439483
v 5.616526 2.164625 -0.517001
v 5.753375 2.577853 -0.489780
v 5.616526 2.443685 -0.517001
v 5.675856 2.701503 -0.605795
v 5.854180 2.898828 -0.733146
v 5.785484 2.898828 -0.769864
v 5.854180 1.643390 -0.872676
v 5.725271 1.798428 -0.679750
v 5.608891 2.304155 -0.505575
v 5.725271 2.809883 -0.679750
v 5.928720 1.602691 -0.984233
v 5.928720 3.005620 -0.984232
v 5.639137 2.030457 -0.550841
v 5.585741 1.906808 -0.679751
v 5.510228 2.164625 -0.604238
v 5.639137 2.577853 -0.550841
v 5.510228 2.443685 -0.604238
v 5.585741 2.701503 -0.679751
v 5.854180 2.964920 -0.872676
v 5.812705 2.964920 -0.906714
v 5.785484 1.709482 -0.769865
v 5.812705 1.643390 -0.906714
v 5.648635 1.798428 -0.742644
v 5.539007 2.030457 -0.633016
v 5.500511 2.304155 -0.594520
v 5.648635 2.809883 -0.742644
v 5.907576 1.602691 -1.001585
v 5.725271 1.709482 -0.819280
v 5.511786 1.906808 -0.769865
v 5.422992 2.164625 -0.710535
v 5.539007 2.577853 -0.633016
v 5.422992 2.443685 -0.710535
v 5.511786 2.701503 -0.769865
v 5.725271 2.898828 -0.819280
v 5.675856 2.898828 -0.879493
v 5.778667 1.643390 -0.948189
v 5.585741 2.809883 -0.819280
v 5.890224 1.602691 -1.022729
v 5.907576 3.005620 -1.001585
v 5.778667 2.964920 -0.948189
v 5.585741 1.798428 -0.819280
v 5.456832 2.030457 -0.733146
v 5.456832 1.906808 -0.872676
v 5.411566 2.304155 -0.702900
v 5.358170 2.164625 -0.831809
v 5.456832 2.577853 -0.733146
v 5.358170 2.443685 -0.831809
v 5.456832 2.701503 -0.872676
v 5.639137 2.898828 -0.948189
v 5.675856 1.709482 -0.879493
v 5.639137 1.709482 -0.948189
v 5.539007 1.798428 -0.906714
v 5.345473 2.304155 -0.826550
v 5.539007 2.809883 -0.906714
v 5.753375 1.643390 -0.995508
v 5.890223 3.005620 -1.022729
v 5.877329 3.005620 -1.046852
v 5.395771 2.030457 -0.847384
v 5.422992 1.906808 -0.984233
v 5.318253 2.164625 -0.963399
v 5.395771 2.577853 -0.847384
v 5.318253 2.443685 -0.963399
v 5.422992 2.701503 -0.984233
v 5.753375 2.964920 -0.995508
v 5.737800 2.964920 -1.046852
v 5.737800 1.643390 -1.046852
v 5.510228 1.798428 -1.001585
v 5.304774 2.304155 -0.960718
v 5.616526 2.898828 -1.022729
v 5.877329 1.602691 -1.046852
v 5.869390 1.602691 -1.073026
v 5.616526 1.709482 -1.022729
v 6.006238 1.588948 -1.100247
v 6.006238 3.019362 -1.100247
v 5.869389 3.005620 -1.073025
v 5.358170 2.030457 -0.971339
v 5.358170 2.577853 -0.971339
v 5.510228 2.809883 -1.001585
v 6.006238 3.034000 -1.100247
vn -0.7708 0.6326 -0.0759
vn -0.4709 0.8810 -0.0464
vn -0.4709 -0.8810 -0.0464
vn -0.7708 -0.6326 -0.0759
vn -0.9527 -0.2890 -0.0938
vn -0.9904 0.0975 -0.0975
vn -0.9904 0.0975 -0.0976
vn -0.8786 0.4696 -0.0865
vn -0.6332 0.7715 -0.0624
vn -0.2902 -0.9565 -0.0286
vn -0.2902 -0.9566 -0.0286
vn -0.2902 0.9565 -0.0286
vn -0.6332 -0.7715 -0.0624
vn -0.8786 -0.4696 -0.0865
vn -0.9904 -0.0975 -0.0976
vn -0.9527 0.2890 -0.0938
vn -0.8449 -0.4696 -0.2563
vn -0.8448 -0.4696 -0.2563
vn -0.9524 -0.0975 -0.2889
vn -0.9524 -0.0976 -0.2889
vn -0.9161 0.2890 -0.2779
vn -0.7412 0.6326 -0.2248
vn -0.4528 0.8810 -0.1373
vn -0.4528 0.8810 -0.1374
vn -0.4528 -0.8810 -0.1373
vn -0.4528 -0.8810 -0.1374
vn -0.7412 -0.6326 -0.2248
vn -0.9161 -0.2890 -0.2779
vn -0.9524 0.0976 -0.2889
vn -0.9524 0.0975 -0.2889
vn -0.8448 0.4696 -0.2563
vn -0.8449 0.4696 -0.2563
vn -0.6088 0.7715 -0.1847
vn -0.2790 -0.9566 -0.0846
vn -0.2790 0.9565 -0.0846
vn -0.6088 -0.7715 -0.1847
vn -0.7786 -0.4696 -0.4162
vn -0.8777 -0.0976 -0.4691
vn -0.8443 0.2890 -0.4513
vn -0.6831 0.6326 -0.3651
vn -0.4173 0.8810 -0.2231
vn -0.4173 -0.8810 -0.2230
vn -0.4173 -0.8810 -0.2231
vn -0.6831 -0.6326 -0.3651
vn -0.8443 -0.2890 -0.4513
vn -0.8777 0.0976 -0.4691
vn -0.7786 0.4696 -0.4162
vn -0.5611 0.7715 -0.2999
vn -0.2571 -0.9566 -0.1374
vn -0.2571 -0.9565 -0.1374
vn -0.2571 0.9565 -0.1375
vn -0.2571 0.9566 -0.1374
vn -0.5611 -0.7715 -0.2999
vn -0.6825 -0.4696 -0.5601
vn -0.7693 -0.0976 -0.6314
vn -0.7400 0.2890 -0.6073
vn -0.5987 0.6326 -0.4913
vn -0.3658 0.8810 -0.3002
vn -0.3658 -0.8810 -0.3002
vn -0.5987 -0.6326 -0.4913
vn -0.7400 -0.2890 -0.6073
vn -0.7693 0.0976 -0.6314
vn -0.6825 0.4696 -0.5601
vn -0.4918 0.7715 -0.4036
vn -0.2254 -0.9566 -0.1850
vn -0.2254 0.9565 -0.1850
vn -0.4918 -0.7715 -0.4036
vn -0.5601 -0.4696 -0.6825
vn -0.6314 -0.0975 -0.7693
vn -0.6073 0.2890 -0.7400
vn -0.4913 0.6326 -0.5987
vn -0.3002 0.8810 -0.3658
vn -0.3002 -0.8810 -0.3658
vn -0.4913 -0.6326 -0.5987
vn -0.6073 -0.2890 -0.7400
vn -0.6314 0.0975 -0.7693
vn -0.5601 0.4696 -0.6825
vn -0.4036 0.7715 -0.4918
vn -0.1850 -0.9566 -0.2254
vn -0.1850 0.9565 -0.2254
vn -0.4036 -0.7715 -0.4918
vn -0.4162 -0.4696 -0.7786
vn -0.4691 -0.0975 -0.8777
vn -0.4692 -0.0976 -0.8777
vn -0.4513 0.2890 -0.8443
vn -0.3651 0.6326 -0.6830
vn -0.3651 0.6326 -0.6831
vn -0.2231 0.8810 -0.4173
vn -0.2230 0.8810 -0.4173
vn -0.2230 -0.8810 -0.4173
vn -0.3651 -0.6326 -0.6831
vn -0.4513 -0.2890 -0.8443
vn -0.4692 0.0976 -0.8777
vn -0.4691 0.0975 -0.8777
vn -0.4162 0.4696 -0.7786
vn -0.2999 0.7715 -0.5611
vn -0.1374 -0.9566 -0.2571
vn -0.1374 -0.9565 -0.2571
vn -0.1375 0.9565 -0.2571
vn -0.1374 0.9565 -0.2571
vn -0.2999 -0.7715 -0.5611
vn -0.2563 -0.4696 -0.8448
vn -0.2889 -0.0976 -0.9524
vn -0.2779 0.2890 -0.9161
vn -0.2248 0.6326 -0.7412
vn -0.1373 0.8810 -0.4528
vn -0.1374 -0.8810 -0.4528
vn -0.2248 -0.6326 -0.7412
vn -0.2779 -0.2890 -0.9161
vn -0.2889 0.0976 -0.9524
vn -0.2563 0.4696 -0.8448
vn -0.2563 0.4696 -0.8449
vn -0.1847 0.7715 -0.6088
vn -0.0846 -0.9565 -0.2790
vn -0.0846 -0.9566 -0.2790
vn -0.0846 0.9565 -0.2790
vn -0.0846 0.9566 -0.2790
vn -0.1847 -0.7715 -0.6088
vn -0.0865 -0.4696 -0.8786
vn -0.0976 -0.0976 -0.9904
vn -0.0975 -0.0976 -0.9904
vn -0.0938 0.2890 -0.9527
vn -0.0759 0.6326 -0.7708
vn -0.0464 0.8810 -0.4709
vn -0.0464 -0.8810 -0.4709
vn -0.0759 -0.6326 -0.7708
vn -0.0938 -0.2890 -0.9527
vn -0.0975 0.0975 -0.9904
vn -0.0976 0.0976 -0.9904
vn -0.0865 0.4696 -0.8786
vn -0.0624 0.7715 -0.6332
vn -0.0286 -0.9565 -0.2902
vn -0.0286 -0.9566 -0.2902
vn -0.0286 0.9565 -0.2902
vn -0.0624 -0.7715 -0.6332
vn 0.0865 -0.4696 -0.8786
vn 0.0976 -0.0975 -0.9904
vn 0.0975 -0.0975 -0.9904
vn 0.0938 0.2890 -0.9527
vn 0.0759 0.6326 -0.7708
vn 0.0464 0.8810 -0.4709
vn 0.0464 -0.8810 -0.4709
vn 0.0759 -0.6326 -0.7708
vn 0.0938 -0.2890 -0.9527
vn 0.0975 0.0975 -0.9904
vn 0.0976 0.0975 -0.9904
vn 0.0865 0.4696 -0.8786
vn 0.0624 0.7715 -0.6332
vn 0.0286 -0.9566 -0.2902
vn 0.0286 0.9565 -0.2902
vn 0.0624 -0.7715 -0.6332
vn 0.2563 -0.4696 -0.8448
vn 0.2889 -0.0976 -0.9524
vn 0.2779 0.2890 -0.9161
vn 0.2248 0.6326 -0.7412
vn 0.1373 0.8810 -0.4528
vn 0.1374 -0.8810 -0.4528
vn 0.2248 -0.6326 -0.7412
vn 0.2779 -0.2890 -0.9161
vn 0.2889 0.0976 -0.9524
vn 0.2563 0.4696 -0.8448
vn 0.1847 0.7715 -0.6088
vn 0.0846 -0.9566 -0.2790
vn 0.0846 0.9565 -0.2790
vn 0.1847 -0.7715 -0.6088
vn 0.4162 -0.4696 -0.7786
vn 0.4691 -0.0975 -0.8777
vn 0.4692 -0.0975 -0.8777
vn 0.4513 0.2890 -0.8443
vn 0.3651 0.6326 -0.6831
vn 0.2231 0.8810 -0.4173
vn 0.2230 0.8810 -0.4173
vn 0.2230 -0.8810 -0.4173
vn 0.3651 -0.6326 -0.6831
vn 0.4513 -0.2890 -0.8443
vn 0.4692 0.0975 -0.8777
vn 0.4691 0.0975 -0.8777
vn 0.4162 0.4696 -0.7786
vn 0.2999 0.7715 -0.5611
vn 0.1374 -0.9565 -0.2571
vn 0.1374 -0.9566 -0.2571
vn 0.1374 0.9565 -0.2571
vn 0.2999 -0.7715 -0.5611
vn 0.5601 -0.4696 -0.6825
vn 0.6314 -0.0975 -0.7693
vn 0.6073 0.2890 -0.7400
vn 0.4913 0.6326 -0.5987
vn 0.3002 0.8810 -0.3658
vn 0.3002 -0.8810 -0.3658
vn 0.4914 -0.6326 -0.5987
vn 0.4913 -0.6326 -0.5987
vn 0.6073 -0.2890 -0.7400
vn 0.6314 0.0975 -0.7693
vn 0.5601 0.4696 -0.6825
vn 0.4036 0.7715 -0.4918
vn 0.1850 -0.9566 -0.2254
vn 0.1850 -0.9565 -0.2254
vn 0.1850 0.9565 -0.2254
vn 0.4036 -0.7715 -0.4918
vn 0.6825 -0.4696 -0.5601
vn 0.7693 -0.0975 -0.6314
vn 0.7400 0.2890 -0.6073
vn 0.5987 0.6326 -0.4913
vn 0.3658 0.8810 -0.3002
vn 0.3658 -0.8810 -0.3002
vn 0.5987 -0.6326 -0.4913
vn 0.7400 -0.2890 -0.6073
vn 0.7693 0.0975 -0.6314
vn 0.6825 0.4696 -0.5601
vn 0.4918 0.7715 -0.4036
vn 0.2254 -0.9566 -0.1850
vn 0.2254 -0.9565 -0.1850
vn 0.2254 0.9565 -0.1850
vn 0.2254 0.9566 -0.1850
vn 0.4918 -0.7715 -0.4036
vn 0.7786 -0.4696 -0.4162
vn 0.8777 -0.0976 -0.4691
vn 0.8777 -0.0975 -0.4691
vn 0.8443 0.2890 -0.4513
vn 0.6831 0.6326 -0.3651
vn 0.4173 0.8810 -0.2231
vn 0.4173 0.8810 -0.2230
vn 0.4173 -0.8810 -0.2230
vn 0.4173 -0.8810 -0.2231
vn 0.6831 -0.6326 -0.3651
vn 0.8443 -0.2890 -0.4513
vn 0.8777 0.0975 -0.4691
vn 0.8777 0.0976 -0.4691
vn 0.7786 0.4696 -0.4162
vn 0.5611 0.7715 -0.2999
vn 0.2571 -0.9566 -0.1374
vn 0.2571 -0.9565 -0.1374
vn 0.2571 0.9565 -0.1375
vn 0.2571 0.9566 -0.1374
vn 0.5611 -0.7715 -0.2999
vn 0.8448 -0.4696 -0.2563
vn 0.9524 -0.0975 -0.2889
vn 0.9524 -0.0976 -0.2889
vn 0.9161 0.2890 -0.2779
vn 0.7412 0.6326 -0.2248
vn 0.4528 0.8810 -0.1373
vn 0.4528 -0.8810 -0.1373
vn 0.4528 -0.8810 -0.1374
vn 0.7412 -0.6326 -0.2248
vn 0.9161 -0.2890 -0.2779
vn 0.9524 0.0976 -0.2889
vn 0.9524 0.0975 -0.2889
vn 0.8449 0.4696 -0.2563
vn 0.6088 0.7715 -0.1847
vn 0.2790 -0.9566 -0.0846
vn 0.2790 0.9565 -0.0846
vn 0.6088 -0.7715 -0.1847
vn 0.8786 -0.4696 -0.0865
vn 0.9904 -0.0976 -0.0976
vn 0.9904 -0.0975 -0.0976
vn 0.9527 0.2890 -0.0938
vn 0.7708 0.6326 -0.0759
vn 0.4709 0.8810 -0.0464
vn 0.4709 -0.8810 -0.0464
vn 0.7708 -0.6326 -0.0759
vn 0.9527 -0.2890 -0.0938
vn 0.9904 0.0976 -0.0975
vn 0.9904 0.0975 -0.0976
vn 0.8786 0.4696 -0.0865
vn 0.6332 0.7715 -0.0624
vn 0.2902 -0.9565 -0.0286
vn 0.2902 -0.9566 -0.0286
vn 0.2902 0.9565 -0.0286
vn 0.6332 -0.7715 -0.0624
vn 0.8786 -0.4696 0.0865
vn 0.9904 -0.0975 0.0976
vn 0.9904 -0.0976 0.0976
vn 0.9527 0.2890 0.0938
vn 0.7708 0.6326 0.0759
vn 0.4709 0.8810 0.0464
vn 0.4709 -0.8810 0.0464
vn 0.7708 -0.6326 0.0759
vn 0.9527 -0.2890 0.0938
vn 0.9904 0.0975 0.0975
vn 0.9904 0.0976 0.0976
vn 0.8786 0.4696 0.0865
vn 0.6332 0.7715 0.0624
vn 0.2902 -0.9566 0.0286
vn 0.2902 0.9565 0.0286
vn 0.6332 -0.7715 0.0624
vn 0.8448 -0.4696 0.2563
vn 0.9524 -0.0976 0.2889
vn 0.9161 0.2890 0.2779
vn 0.7412 0.6326 0.2248
vn 0.4528 0.8810 0.1373
vn 0.4528 0.8810 0.1374
vn 0.4528 -0.8810 0.1374
vn 0.4528 -0.8810 0.1373
vn 0.7412 -0.6326 0.2248
vn 0.9161 -0.2890 0.2779
vn 0.9524 0.0976 0.2889
vn 0.8448 0.4696 0.2563
vn 0.6088 0.7715 0.1847
vn 0.2790 -0.9566 0.0846
vn 0.2790 0.9565 0.0846
vn 0.6088 -0.7715 0.1847
vn 0.7786 -0.4696 0.4162
vn 0.8777 -0.0976 0.4691
vn 0.8443 0.2890 0.4513
vn 0.6831 0.6326 0.3651
vn 0.4173 0.8810 0.2231
vn 0.4173 -0.8810 0.2230
vn 0.4173 -0.8810 0.2231
vn 0.6831 -0.6326 0.3651
vn 0.8443 -0.2890 0.4513
vn 0.8777 0.0976 0.4691
vn 0.7786 0.4696 0.4162
vn 0.5611 0.7715 0.2999
vn 0.2571 -0.9565 0.1374
vn 0.2571 0.9565 0.1374
vn 0.2571 0.9565 0.1375
vn 0.5611 -0.7715 0.2999
vn 0.6825 -0.4696 0.5601
vn 0.7693 -0.0975 0.6314
vn 0.7400 0.2890 0.6073
vn 0.5987 0.6326 0.4913
vn 0.3658 0.8810 0.3002
vn 0.3658 -0.8810 0.3002
vn 0.5987 -0.6326 0.4913
vn 0.7400 -0.2890 0.6073
vn 0.7693 0.0975 0.6314
vn 0.6825 0.4696 0.5601
vn 0.4918 0.7715 0.4036
vn 0.2254 -0.9566 0.1850
vn 0.2254 -0.9565 0.1850
vn 0.2254 0.9565 0.1850
vn 0.4918 -0.7715 0.4036
vn 0.5601 -0.4696 0.6825
vn 0.6314 -0.0975 0.7693
vn 0.6073 0.2890 0.7400
vn 0.4913 0.6326 0.5987
vn 0.3002 0.8810 0.3658
vn 0.3002 -0.8810 0.3658
vn 0.4913 -0.6326 0.5987
vn 0.6073 -0.2890 0.7400
vn 0.6314 0.0975 0.7693
vn 0.5601 0.4696 0.6825
vn 0.4036 0.7715 0.4918
vn 0.1850 -0.9565 0.2254
vn 0.1850 0.9565 0.2254
vn 0.4036 -0.7715 0.4918
vn 0.4162 -0.4696 0.7786
vn 0.4691 -0.0975 0.8777
vn 0.4513 0.2890 0.8443
vn 0.3651 0.6326 0.6831
vn 0.2230 0.8810 0.4173
vn 0.2231 0.8810 0.4173
vn 0.2230 -0.8810 0.4173
vn 0.3651 -0.6326 0.6831
vn 0.4513 -0.2890 0.8443
vn 0.4692 0.0975 0.8777
vn 0.4691 0.0975 0.8777
vn 0.4162 0.4696 0.7786
vn 0.2999 0.7715 0.5611
vn 0.1374 -0.9566 0.2571
vn 0.1374 0.9565 0.2571
vn 0.1375 0.9565 0.2571
vn 0.2999 -0.7715 0.5611
vn 0.2563 -0.4696 0.8448
vn 0.2889 -0.0976 0.9524
vn 0.2779 0.2890 0.9161
vn 0.2248 0.6326 0.7412
vn 0.1373 0.8810 0.4528
vn 0.1374 -0.8810 0.4528
vn 0.1373 -0.8810 0.4528
vn 0.2248 -0.6326 0.7412
vn 0.2779 -0.2890 0.9161
vn 0.2889 0.0976 0.9524
vn 0.2563 0.4696 0.8448
vn 0.1847 0.7715 0.6088
vn 0.0846 -0.9565 0.2790
vn 0.0846 -0.9566 0.2790
vn 0.0846 0.9565 0.2790
vn 0.1847 -0.7715 0.6088
vn 0.0865 -0.4696 0.8786
vn 0.0976 -0.0976 0.9904
vn 0.0975 -0.0975 0.9904
vn 0.0938 0.2890 0.9527
vn 0.0759 0.6326 0.7708
vn 0.0464 0.8810 0.4709
vn 0.0464 -0.8810 0.4709
vn 0.0759 -0.6326 0.7708
vn 0.0938 -0.2890 0.9527
vn 0.0975 0.0976 0.9904
vn 0.0976 0.0976 0.9904
vn 0.0865 0.4696 0.8786
vn 0.0624 0.7715 0.6332
vn 0.0286 -0.9566 0.2902
vn 0.0286 0.9565 0.2902
vn 0.0286 0.9566 0.2902
vn 0.0624 -0.7715 0.6332
vn -0.0865 -0.4696 0.8786
vn -0.0976 -0.0975 0.9904
vn -0.0975 -0.0976 0.9904
vn -0.0938 0.2890 0.9527
vn -0.0759 0.6326 0.7708
vn -0.0464 0.8810 0.4709
vn -0.0464 -0.8810 0.4709
vn -0.0759 -0.6326 0.7708
vn -0.0938 -0.2890 0.9527
vn -0.0975 0.0976 0.9904
vn -0.0976 0.0975 0.9904
vn -0.0865 0.4696 0.8786
vn -0.0624 0.7715 0.6332
vn -0.0286 -0.9566 0.2902
vn -0.0286 -0.9565 0.2902
vn -0.0286 0.9565 0.2902
vn -0.0624 -0.7715 0.6332
vn -0.2563 -0.4696 0.8448
vn -0.2889 -0.0976 0.9524
vn -0.2889 -0.0975 0.9524
vn -0.2779 0.2890 0.9161
vn -0.2248 0.6326 0.7412
vn -0.1373 0.8810 0.4528
vn -0.1374 -0.8810 0.4528
vn -0.2248 -0.6326 0.7412
vn -0.2779 -0.2890 0.9161
vn -0.2889 0.0976 0.9524
vn -0.2563 0.4696 0.8448
vn -0.1847 0.7715 0.6088
vn -0.0846 -0.9565 0.2790
vn -0.0846 0.9565 0.2790
vn -0.1847 -0.7715 0.6088
vn -0.4162 -0.4696 0.7786
vn -0.4692 -0.0975 0.8777
vn -0.4513 0.2890 0.8443
vn -0.3651 0.6326 0.6831
vn -0.2230 0.8810 0.4173
vn -0.2230 -0.8810 0.4173
vn -0.3651 -0.6326 0.6831
vn -0.4513 -0.2890 0.8443
vn -0.4691 0.0975 0.8777
vn -0.4162 0.4696 0.7786
vn -0.2999 0.7715 0.5611
vn -0.1374 -0.9566 0.2571
vn -0.1375 0.9565 0.2571
vn -0.2999 -0.7715 0.5611
vn -0.5601 -0.4696 0.6825
vn -0.6314 -0.0975 0.7693
vn -0.6314 -0.0976 0.7693
vn -0.6073 0.2890 0.7400
vn -0.4913 0.6326 0.5987
vn -0.3002 0.8810 0.3658
vn -0.3002 -0.8810 0.3658
vn -0.4913 -0.6326 0.5987
vn -0.6073 -0.2890 0.7400
vn -0.6314 0.0975 0.7693
vn -0.6314 0.0976 0.7693
vn -0.5601 0.4696 0.6825
vn -0.4036 0.7715 0.4918
vn -0.1850 -0.9565 0.2254
vn -0.1850 -0.9566 0.2254
vn -0.1850 0.9565 0.2254
vn -0.4036 -0.7715 0.4918
vn -0.6825 -0.4696 0.5601
vn -0.7693 -0.0975 0.6314
vn -0.7400 0.2890 0.6073
vn -0.5987 0.6326 0.4913
vn -0.3658 0.8810 0.3002
vn -0.3658 -0.8810 0.3002
vn -0.5987 -0.6326 0.4913
vn -0.7400 -0.2890 0.6073
vn -0.7693 0.0975 0.6314
vn -0.6825 0.4696 0.5601
vn -0.4918 0.7715 0.4036
vn -0.2254 -0.9566 0.1850
vn -0.2254 0.9565 0.1850
vn -0.4918 -0.7715 0.4036
vn -0.7786 -0.4696 0.4162
vn -0.8777 -0.0976 0.4691
vn -0.8443 0.2890 0.4513
vn -0.6831 0.6326 0.3651
vn -0.4173 0.8810 0.2231
vn -0.4173 0.8810 0.2230
vn -0.4173 -0.8810 0.2230
vn -0.4173 -0.8810 0.2231
vn -0.6831 -0.6326 0.3651
vn -0.8443 -0.2890 0.4513
vn -0.8777 0.0976 0.4692
vn -0.8777 0.0976 0.4691
vn -0.7786 0.4696 0.4162
vn -0.5611 0.7715 0.2999
vn -0.2571 -0.9565 0.1375
vn -0.2571 -0.9566 0.1374
vn -0.2571 0.9565 0.1374
vn -0.2572 0.9565 0.1375
vn -0.5611 -0.7715 0.2999
vn -0.8449 -0.4696 0.2563
vn -0.8448 -0.4696 0.2563
vn -0.9524 -0.0976 0.2889
vn -0.9161 0.2890 0.2779
vn -0.7412 0.6326 0.2248
vn -0.4528 0.8810 0.1373
vn -0.4528 0.8810 0.1374
vn -0.4528 -0.8810 0.1374
vn -0.4528 -0.8810 0.1373
vn -0.7412 -0.6326 0.2248
vn -0.9161 -0.2890 0.2779
vn -0.9524 0.0976 0.2889
vn -0.8448 0.4696 0.2563
vn -0.8449 0.4696 0.2563
vn -0.6088 0.7715 0.1847
vn -0.2790 -0.9566 0.0846
vn -0.2790 0.9565 0.0846
vn -0.6088 -0.7715 0.1847
vn -0.0980 -0.9951 -0.0097
vn -0.0980 0.9951 -0.0097
vn -0.0942 -0.9951 -0.0286
vn -0.0942 0.9951 -0.0286
vn -0.0869 -0.9951 -0.0464
vn -0.0869 0.9951 -0.0464
vn -0.0761 -0.9951 -0.0625
vn -0.0761 0.9951 -0.0625
vn -0.0625 -0.9951 -0.0761
vn -0.0625 0.9951 -0.0761
vn -0.0464 -0.9951 -0.0869
vn -0.0464 0.9951 -0.0869
vn -0.0286 -0.9951 -0.0943
vn -0.0286 0.9951 -0.0942
vn -0.0097 -0.9951 -0.0980
vn -0.0097 0.9951 -0.0980
vn 0.0097 -0.9951 -0.0980
vn 0.0097 0.9951 -0.0980
vn 0.0286 -0.9951 -0.0943
vn 0.0286 0.9951 -0.0942
vn 0.0464 -0.9951 -0.0869
vn 0.0464 0.9951 -0.0869
vn 0.0625 -0.9951 -0.0761
vn 0.0625 0.9951 -0.0761
vn 0.0761 -0.9951 -0.0625
vn 0.0761 0.9951 -0.0625
vn 0.0869 -0.9951 -0.0464
vn 0.0869 0.9951 -0.0464
vn 0.0942 -0.9951 -0.0286
vn 0.0942 0.9951 -0.0286
vn 0.0980 -0.9951 -0.0097
vn 0.0980 0.9951 -0.0097
vn 0.0980 -0.9951 0.0097
vn 0.0980 0.9951 0.0097
vn 0.0943 -0.9951 0.0286
vn 0.0942 0.9951 0.0286
vn 0.0869 -0.9951 0.0464
vn 0.0869 0.9951 0.0464
vn 0.0761 -0.9951 0.0625
vn 0.0761 0.9951 0.0625
vn 0.0625 -0.9951 0.0761
vn 0.0625 0.9951 0.0761
vn 0.0464 -0.9951 0.0869
vn 0.0464 0.9951 0.0869
vn 0.0286 -0.9951 0.0943
vn 0.0286 0.9951 0.0942
vn 0.0097 -0.9951 0.0980
vn 0.0097 0.9951 0.0980
vn -0.0097 -0.9951 0.0980
vn -0.0097 0.9951 0.0980
vn -0.0286 -0.9951 0.0943
vn -0.0286 0.9951 0.0942
vn -0.0464 -0.9951 0.0869
vn -0.0464 0.9951 0.0869
vn -0.0625 -0.9951 0.0761
vn -0.0625 0.9951 0.0761
vn -0.0761 -0.9951 0.0625
vn -0.0761 0.9951 0.0625
vn -0.0869 -0.9951 0.0464
vn -0.0869 0.9951 0.0464
vn -0.0943 -0.9951 0.0286
vn -0.0942 0.9951 0.0286
vn -0.8786 -0.4696 0.0865
vn -0.9904 -0.0976 0.0976
vn -0.9527 0.2890 0.0938
vn -0.7708 0.6326 0.0759
vn -0.0980 -0.9951 0.0097
vn -0.4709 0.8810 0.0464
vn -0.4709 -0.8810 0.0464
vn -0.0980 0.9951 0.0097
vn -0.7708 -0.6326 0.0759
vn -0.9527 -0.2890 0.0938
vn -0.9904 0.0976 0.0976
vn -0.8786 0.4696 0.0865
vn -0.6332 0.7715 0.0624
vn -0.2902 -0.9565 0.0286
vn -0.2902 0.9565 0.0286
vn -0.6332 -0.7715 0.0624
vn -0.9904 0.0976 -0.0976
vn -0.9904 -0.0976 -0.0975
vn -0.8777 -0.0975 -0.4691
vn -0.4173 0.8810 -0.2230
vn -0.8777 0.0975 -0.4691
vn -0.1373 -0.8810 -0.4528
vn -0.0975 -0.0975 -0.9904
vn 0.0975 -0.0976 -0.9904
vn 0.0975 0.0976 -0.9904
vn 0.2248 0.6325 -0.7412
vn 0.1373 -0.8810 -0.4528
vn 0.6314 0.0976 -0.7693
vn 0.4528 0.8810 -0.1374
vn 0.8448 0.4696 -0.2563
vn 0.9904 -0.0975 -0.0975
vn 0.9904 -0.0976 0.0975
vn 0.8449 0.4696 0.2563
vn 0.2572 0.9565 0.1375
vn 0.6314 0.0976 0.7693
vn 0.4692 -0.0976 0.8777
vn 0.2231 -0.8810 0.4173
vn 0.1375 0.9565 0.2572
vn 0.0975 0.0975 0.9904
vn 0.0286 -0.9565 0.2902
vn -0.1373 -0.8810 0.4528
vn -0.2889 0.0975 0.9524
vn -0.8777 -0.0976 0.4692
vn -0.2790 -0.9565 0.0846
vt 0.343750 0.500000
vt 0.375000 0.500000
vt 0.345182 0.551863
vt 0.406250 0.500000
vt 0.437500 0.500000
vt 0.407671 0.534568
vt 0.062500 0.500000
vt 0.093750 0.500000
vt 0.092329 0.534568
vt 0.125000 0.500000
vt 0.156250 0.500000
vt 0.123456 0.544051
vt 0.187500 0.500000
vt 0.218750 0.500000
vt 0.186401 0.557687
vt 0.250000 0.500000
vt 0.281250 0.500000
vt 0.250000 0.562500
vt 0.312500 0.500000
vt 0.376544 0.544051
vt 0.031250 0.500000
vt 0.061416 0.523786
vt 0.468750 0.500000
vt 0.469336 0.512118
vt 0.154818 0.551863
vt 0.218154 0.561284
vt 0.313599 0.557687
vt 0.182920 0.615027
vt 0.216249 0.622471
vt 0.281846 0.561284
vt 0.283751 0.622471
vt 0.349655 0.603075
vt 0.438584 0.523786
vt 0.441830 0.546784
vt 0.058170 0.546784
vt 0.118706 0.587222
vt 0.317080 0.615027
vt 0.411979 0.568196
vt 0.030664 0.512118
vt 0.028925 0.523786
vt 0.471075 0.523786
vt 0.088021 0.568196
vt 0.150346 0.603075
vt 0.142262 0.652847
vt 0.250000 0.625000
vt 0.212628 0.683431
vt 0.287372 0.683431
vt 0.381294 0.587221
vt 0.389604 0.628510
vt 0.419291 0.599880
vt 0.080709 0.599880
vt 0.110396 0.628510
vt 0.323559 0.671570
vt 0.052789 0.568196
vt 0.447211 0.568196
vt 0.176441 0.671570
vt 0.129504 0.700060
vt 0.250000 0.687500
vt 0.206357 0.743941
vt 0.293643 0.743941
vt 0.357738 0.652846
vt 0.370496 0.700060
vt 0.429752 0.628510
vt 0.045347 0.587221
vt 0.097957 0.666667
vt 0.165663 0.726608
vt 0.250000 0.750000
vt 0.402043 0.666667
vt 0.026086 0.534568
vt 0.022239 0.544051
vt 0.473914 0.534568
vt 0.477761 0.544051
vt 0.110396 0.742980
vt 0.195280 0.803535
vt 0.334337 0.726608
vt 0.304720 0.803535
vt 0.389604 0.742980
vt 0.454653 0.587221
vt 0.464001 0.603075
vt 0.070248 0.628510
vt 0.035999 0.603075
vt 0.148036 0.778836
vt 0.351964 0.778836
vt 0.419291 0.700060
vt 0.017517 0.551863
vt 0.056572 0.652846
vt 0.118706 0.825557
vt 0.250000 0.812500
vt 0.173709 0.860976
vt 0.326291 0.860976
vt 0.417220 0.778836
vt 0.443428 0.652846
vt 0.460158 0.671570
vt 0.025020 0.615027
vt 0.080709 0.700060
vt 0.058169 0.726608
vt 0.381294 0.825557
vt 0.482483 0.551862
vt 0.474980 0.615027
vt 0.039842 0.671570
vt 0.082781 0.778837
vt 0.045212 0.803535
vt 0.250000 0.875000
vt 0.123456 0.911898
vt 0.376545 0.911898
vt 0.441831 0.726608
vt 0.454788 0.803534
vt 0.479370 0.683430
vt 0.020630 0.683430
vt 0.030664 0.743941
vt 0.469336 0.743941
vt 0.012092 0.557687
vt 0.006173 0.561284
vt 0.487908 0.557687
vt 0.493827 0.561284
vt 0.070055 0.860975
vt 0.000000 0.812500
vt 0.250000 0.937500
vt 0.000000 0.937500
vt 0.429945 0.860975
vt 0.500000 0.937500
vt 0.500000 0.812499
vt 0.487167 0.622470
vt 0.500000 0.687500
vt 0.012833 0.622471
vt 0.000000 0.687500
vt 0.500000 0.750000
vt 0.000000 0.562500
vt 0.500000 0.625000
vt 1.000000 0.812500
vt 1.000000 0.875000
vt 0.954788 0.803534
vt 1.000000 0.937500
vt 0.500000 1.000000
vt 0.876544 0.911897
vt 0.500000 0.875000
vt 0.623456 0.911897
vt 0.545212 0.803534
vt 0.512833 0.622470
vt 1.000000 0.625000
vt 1.000000 0.687500
vt 0.979370 0.683430
vt 1.000000 0.750000
vt 0.530665 0.743941
vt 1.000000 0.562500
vt 0.987167 0.622471
vt 0.500000 0.562500
vt 0.929944 0.860975
vt 0.881294 0.825557
vt 0.750000 0.937500
vt 0.826291 0.860975
vt 0.570056 0.860975
vt 0.673709 0.860975
vt 0.558170 0.726608
vt 0.520630 0.683430
vt 0.525020 0.615027
vt 0.974980 0.615027
vt 0.969335 0.743941
vt 0.941830 0.726608
vt 0.618706 0.825557
vt 0.993827 0.561284
vt 0.987908 0.557687
vt 0.506173 0.561284
vt 0.960157 0.671570
vt 0.917220 0.778836
vt 0.889604 0.742980
vt 0.750000 0.875000
vt 0.804720 0.803534
vt 0.695280 0.803534
vt 0.582780 0.778836
vt 0.610396 0.742980
vt 0.539843 0.671570
vt 0.535999 0.603075
vt 0.964001 0.603075
vt 0.919291 0.700060
vt 0.750000 0.812500
vt 0.648036 0.778836
vt 0.580709 0.700060
vt 0.982483 0.551863
vt 0.512092 0.557687
vt 0.517517 0.551862
vt 0.851964 0.778836
vt 0.870496 0.700060
vt 0.793643 0.743941
vt 0.665663 0.726608
vt 0.597957 0.666667
vt 0.556572 0.652846
vt 0.570249 0.628510
vt 0.943428 0.652846
vt 0.929751 0.628510
vt 0.902043 0.666667
vt 0.834337 0.726608
vt 0.750000 0.750000
vt 0.977760 0.544051
vt 0.545347 0.587221
vt 0.857738 0.652846
vt 0.787372 0.683430
vt 0.706357 0.743941
vt 0.712628 0.683430
vt 0.629504 0.700060
vt 0.642262 0.652846
vt 0.580709 0.599880
vt 0.954653 0.587221
vt 0.947211 0.568196
vt 0.889604 0.628510
vt 0.750000 0.687500
vt 0.973914 0.534568
vt 0.522240 0.544051
vt 0.552789 0.568196
vt 0.919291 0.599880
vt 0.823559 0.671570
vt 0.849654 0.603075
vt 0.783751 0.622470
vt 0.676441 0.671570
vt 0.716249 0.622470
vt 0.610396 0.628510
vt 0.618706 0.587221
vt 0.558170 0.546784
vt 0.911978 0.568196
vt 0.881294 0.587221
vt 0.650345 0.603075
vt 0.941830 0.546784
vt 0.526086 0.534568
vt 0.528925 0.523786
vt 0.817080 0.615027
vt 0.845182 0.551863
vt 0.750000 0.625000
vt 0.781846 0.561284
vt 0.682920 0.615027
vt 0.718154 0.561284
vt 0.623456 0.544051
vt 0.588022 0.568196
vt 0.592329 0.534568
vt 0.907671 0.534568
vt 0.876544 0.544051
vt 0.686401 0.557687
vt 0.971075 0.523786
vt 0.938584 0.523786
vt 0.561416 0.523786
vt 0.813599 0.557687
vt 0.843750 0.500000
vt 0.750000 0.562500
vt 0.781250 0.500000
vt 0.718750 0.500000
vt 0.654818 0.551862
vt 0.656250 0.500000
vt 0.562500 0.500000
vt 0.937500 0.500000
vt 0.750000 0.500000
vt 0.687500 0.500000
vt 0.593750 0.500000
vt 0.969336 0.512118
vt 0.968750 0.500000
vt 0.530664 0.512118
vt 0.531250 0.500000
vt 0.875000 0.500000
vt 0.812500 0.500000
vt 0.845182 0.448137
vt 0.781846 0.438716
vt 0.718154 0.438716
vt 0.625000 0.500000
vt 0.623456 0.455949
vt 0.592329 0.465432
vt 0.906250 0.500000
vt 0.938584 0.476214
vt 0.876544 0.455949
vt 0.750000 0.437500
vt 0.654818 0.448137
vt 0.969336 0.487882
vt 0.561416 0.476214
vt 0.907671 0.465432
vt 0.813599 0.442313
vt 0.849654 0.396925
vt 0.783751 0.377529
vt 0.686401 0.442313
vt 0.716249 0.377529
vt 0.650345 0.396925
vt 0.558170 0.453216
vt 0.911978 0.431804
vt 0.750000 0.375000
vt 0.618706 0.412779
vt 0.941830 0.453216
vt 0.530664 0.487881
vt 0.528925 0.476214
vt 0.881294 0.412779
vt 0.817080 0.384973
vt 0.857738 0.347153
vt 0.787372 0.316569
vt 0.682920 0.384973
vt 0.712628 0.316570
vt 0.642262 0.347154
vt 0.588022 0.431804
vt 0.580709 0.400120
vt 0.947211 0.431804
vt 0.750000 0.312500
vt 0.676441 0.328430
vt 0.610396 0.371490
vt 0.971075 0.476214
vt 0.973914 0.465432
vt 0.552789 0.431804
vt 0.919291 0.400120
vt 0.823559 0.328430
vt 0.870496 0.299940
vt 0.793643 0.256059
vt 0.706357 0.256059
vt 0.597957 0.333333
vt 0.570249 0.371490
vt 0.954653 0.412779
vt 0.889604 0.371490
vt 0.902043 0.333333
vt 0.750000 0.250000
vt 0.629504 0.299940
vt 0.526086 0.465432
vt 0.545347 0.412779
vt 0.929751 0.371490
vt 0.834337 0.273392
vt 0.889604 0.257020
vt 0.804720 0.196466
vt 0.665663 0.273392
vt 0.695280 0.196466
vt 0.610396 0.257020
vt 0.535999 0.396925
vt 0.943428 0.347154
vt 0.750000 0.187500
vt 0.580709 0.299940
vt 0.977760 0.455949
vt 0.982483 0.448137
vt 0.522240 0.455949
vt 0.851964 0.221164
vt 0.917220 0.221163
vt 0.826291 0.139025
vt 0.648036 0.221164
vt 0.673709 0.139025
vt 0.582780 0.221164
vt 0.556572 0.347153
vt 0.539843 0.328430
vt 0.964001 0.396925
vt 0.974980 0.384973
vt 0.919291 0.299940
vt 0.881294 0.174443
vt 0.750000 0.125000
vt 0.558170 0.273392
vt 0.987908 0.442313
vt 0.517517 0.448137
vt 0.525020 0.384973
vt 0.941830 0.273392
vt 0.954788 0.196465
vt 0.876544 0.088102
vt 0.618706 0.174443
vt 0.623456 0.088103
vt 0.545212 0.196466
vt 0.520630 0.316570
vt 0.960157 0.328430
vt 0.987167 0.377529
vt 0.750000 0.062500
vt 0.570055 0.139025
vt 0.993827 0.438716
vt 0.512092 0.442312
vt 0.512833 0.377529
vt 0.979370 0.316570
vt 0.929945 0.139025
vt 1.000000 0.187500
vt 1.000000 0.062500
vt 0.500000 0.062500
vt 0.530664 0.256059
vt 0.500000 0.187500
vt 0.500000 0.312500
vt 1.000000 0.375000
vt 0.969335 0.256059
vt 1.000000 0.437500
vt 0.506173 0.438716
vt 0.500000 0.437500
vt 1.000000 0.312500
vt 0.000000 0.187500
vt 0.000000 0.125000
vt 0.045212 0.196465
vt 0.000000 0.062500
vt 0.500000 0.000000
vt 0.123456 0.088103
vt 0.500000 0.125000
vt 0.376544 0.088103
vt 0.500000 0.250000
vt 0.454788 0.196466
vt 0.500000 0.375000
vt 0.487167 0.377529
vt 0.000000 0.375000
vt 0.000000 0.312500
vt 0.012833 0.377529
vt 0.000000 0.250000
vt 0.469336 0.256059
vt 0.000000 0.437500
vt 0.006173 0.438716
vt 0.020630 0.316570
vt 0.070056 0.139025
vt 0.082780 0.221164
vt 0.250000 0.062500
vt 0.173709 0.139025
vt 0.429944 0.139025
vt 0.326291 0.139025
vt 0.417220 0.221164
vt 0.479370 0.316570
vt 0.474980 0.384973
vt 0.025020 0.384973
vt 0.030664 0.256059
vt 0.058169 0.273391
vt 0.441831 0.273392
vt 0.012092 0.442313
vt 0.493827 0.438716
vt 0.487908 0.442312
vt 0.039842 0.328430
vt 0.118706 0.174443
vt 0.110396 0.257020
vt 0.250000 0.125000
vt 0.195280 0.196465
vt 0.381294 0.174443
vt 0.304720 0.196466
vt 0.389604 0.257020
vt 0.460158 0.328430
vt 0.443428 0.347153
vt 0.035999 0.396925
vt 0.080709 0.299940
vt 0.250000 0.187500
vt 0.419291 0.299940
vt 0.017517 0.448137
vt 0.482483 0.448137
vt 0.148036 0.221164
vt 0.129504 0.299940
vt 0.206357 0.256059
vt 0.351964 0.221164
vt 0.293643 0.256059
vt 0.370496 0.299940
vt 0.464001 0.396925
vt 0.454653 0.412779
vt 0.056572 0.347154
vt 0.045347 0.412779
vt 0.097957 0.333333
vt 0.165663 0.273392
vt 0.250000 0.250000
vt 0.402044 0.333333
vt 0.022239 0.455949
vt 0.070248 0.371490
vt 0.142262 0.347153
vt 0.212628 0.316569
vt 0.334337 0.273392
vt 0.287372 0.316569
vt 0.357738 0.347154
vt 0.429752 0.371490
vt 0.419291 0.400120
vt 0.052789 0.431804
vt 0.389604 0.371490
vt 0.026086 0.465432
vt 0.477761 0.455949
vt 0.447211 0.431804
vt 0.110396 0.371490
vt 0.176441 0.328430
vt 0.150346 0.396925
vt 0.250000 0.312500
vt 0.216249 0.377529
vt 0.323559 0.328430
vt 0.283751 0.377529
vt 0.349655 0.396925
vt 0.411979 0.431804
vt 0.080709 0.400120
vt 0.088021 0.431804
vt 0.118706 0.412778
vt 0.250000 0.375000
vt 0.381294 0.412779
vt 0.058169 0.453216
vt 0.473914 0.465432
vt 0.471075 0.476214
vt 0.182920 0.384973
vt 0.154818 0.448137
vt 0.218154 0.438716
vt 0.317080 0.384973
vt 0.281846 0.438716
vt 0.345182 0.448137
vt 0.441831 0.453216
vt 0.438584 0.476214
vt 0.061416 0.476214
vt 0.123456 0.455949
vt 0.250000 0.437500
vt 0.407671 0.465432
vt 0.028925 0.476214
vt 0.030664 0.487882
vt 0.092329 0.465432
vt 0.000000 0.500000
vt 0.500000 0.500000
vt 1.000000 0.500000
vt 0.469336 0.487881
vt 0.186401 0.442313
vt 0.313599 0.442313
vt 0.376544 0.455949
vt 0.000000 0.875000
vt 0.000000 0.625000
vt 0.000000 0.750000
vt 1.000000 0.125000
vt 1.000000 0.250000
s 1
usemtl Material.001
f 1/1/1 2/2/1 3/3/1
f 4/4/2 5/5/2 6/6/2
f 7/7/3 8/8/3 9/9/3
f 10/10/4 11/11/4 12/12/4
f 13/13/5 14/14/5 15/15/5
f 16/16/6 17/17/7 18/18/7
f 19/19/8 1/1/8 3/3/8
f 2/2/9 4/4/9 20/20/9
f 21/21/10 7/7/11 22/22/11
f 5/5/12 23/23/12 24/24/12
f 8/8/13 10/10/13 12/12/13
f 11/11/14 13/13/14 25/25/14
f 14/14/15 16/16/15 26/26/15
f 17/17/16 19/19/16 27/27/16
f 25/25/17 15/15/18 28/28/18
f 26/26/19 18/18/20 29/29/20
f 30/30/21 27/27/21 31/31/21
f 3/3/22 20/20/22 32/32/22
f 6/6/23 33/33/24 34/34/24
f 22/22/25 9/9/26 35/35/25
f 12/12/27 25/25/27 36/36/27
f 15/15/28 26/26/28 29/29/28
f 18/18/29 30/30/30 31/31/29
f 27/27/31 3/3/32 37/37/32
f 20/20/33 6/6/33 38/38/33
f 39/39/34 22/22/34 40/40/34
f 33/33/35 24/24/35 41/41/35
f 9/9/36 12/12/36 42/42/36
f 43/43/37 28/28/37 44/44/37
f 29/29/38 45/45/38 46/46/38
f 31/31/39 37/37/39 47/47/39
f 32/32/40 48/48/40 49/49/40
f 38/38/41 34/34/41 50/50/41
f 35/35/42 42/42/43 51/51/43
f 36/36/44 43/43/44 52/52/44
f 28/28/45 29/29/45 46/46/45
f 45/45/46 31/31/46 47/47/46
f 37/37/47 32/32/47 53/53/47
f 48/48/48 38/38/48 49/49/48
f 40/40/49 35/35/50 54/54/50
f 34/34/51 41/41/52 55/55/51
f 42/42/53 36/36/53 51/51/53
f 44/44/54 56/56/54 57/57/54
f 46/46/55 58/58/55 59/59/55
f 47/47/56 53/53/56 60/60/56
f 61/61/57 49/49/57 62/62/57
f 50/50/58 55/55/58 63/63/58
f 54/54/59 51/51/59 64/64/59
f 52/52/60 44/44/60 65/65/60
f 56/56/61 46/46/61 66/66/61
f 58/58/62 47/47/62 67/67/62
f 53/53/63 61/61/63 62/62/63
f 49/49/64 50/50/64 68/68/64
f 69/69/65 54/54/65 70/70/65
f 55/55/66 71/71/66 72/72/66
f 51/51/67 52/52/67 65/65/67
f 57/57/68 66/66/68 73/73/68
f 59/59/69 67/67/69 74/74/69
f 60/60/70 75/75/70 76/76/70
f 62/62/71 68/68/71 77/77/71
f 63/63/72 78/78/72 79/79/72
f 64/64/73 80/80/73 81/81/73
f 65/65/74 57/57/74 73/73/74
f 66/66/75 59/59/75 82/82/75
f 67/67/76 60/60/76 76/76/76
f 75/75/77 62/62/77 83/83/77
f 68/68/78 63/63/78 84/84/78
f 70/70/79 64/64/79 85/85/79
f 78/78/80 72/72/80 79/79/80
f 80/80/81 65/65/81 86/86/81
f 73/73/82 82/82/82 87/87/82
f 74/74/83 88/88/84 89/89/84
f 76/76/85 83/83/85 90/90/85
f 77/77/86 84/84/87 91/91/87
f 92/92/88 79/79/89 93/93/88
f 81/81/90 86/86/90 94/94/90
f 95/95/91 73/73/91 96/96/91
f 82/82/92 74/74/92 89/89/92
f 88/88/93 76/76/94 90/90/93
f 83/83/95 77/77/95 97/97/95
f 84/84/96 92/92/96 93/93/96
f 85/85/97 81/81/98 94/94/98
f 79/79/99 98/98/100 99/99/99
f 86/86/101 95/95/101 100/100/101
f 101/101/102 87/87/102 102/102/102
f 89/89/103 103/103/103 104/104/103
f 90/90/104 97/97/104 105/105/104
f 91/91/105 106/106/105 107/107/105
f 93/93/106 99/99/106 108/108/106
f 94/94/107 100/100/107 109/109/107
f 96/96/108 101/101/108 110/110/108
f 87/87/109 89/89/109 104/104/109
f 103/103/110 90/90/110 105/105/110
f 97/97/111 91/91/112 107/107/111
f 106/106/113 93/93/113 111/111/113
f 112/112/114 94/94/115 113/113/114
f 99/99/116 114/114/117 115/115/116
f 100/100/118 96/96/118 109/109/118
f 102/102/119 116/116/119 117/117/119
f 104/104/120 118/118/121 119/119/121
f 105/105/122 120/120/122 121/121/122
f 107/107/123 111/111/123 122/122/123
f 108/108/124 123/123/124 124/124/124
f 125/125/125 109/109/125 126/126/125
f 110/110/126 102/102/126 117/117/126
f 116/116/127 104/104/127 119/119/127
f 118/118/128 105/105/129 121/121/128
f 120/120/130 107/107/130 122/122/130
f 111/111/131 108/108/131 127/127/131
f 113/113/132 125/125/133 128/128/132
f 123/123/134 115/115/134 129/129/134
f 109/109/135 110/110/135 126/126/135
f 117/130/136 130/131/136 131/132/136
f 119/133/137 132/134/138 133/135/138
f 121/121/139 134/136/139 135/137/139
f 122/122/140 127/127/140 136/138/140
f 124/124/141 129/129/141 137/139/141
f 138/140/142 126/141/142 139/142/142
f 140/143/143 117/130/143 131/132/143
f 130/131/144 119/133/144 133/135/144
f 132/134/145 121/121/146 135/137/145
f 134/136/147 122/122/147 136/138/147
f 127/127/148 124/124/148 141/144/148
f 128/145/149 138/140/149 142/146/149
f 129/129/150 143/147/150 137/139/150
f 126/141/151 140/143/151 139/142/151
f 131/132/152 144/148/152 145/149/152
f 133/135/153 146/150/153 147/151/153
f 135/137/154 148/152/154 149/153/154
f 136/138/155 141/144/155 150/154/155
f 151/155/156 137/139/156 152/156/156
f 142/146/157 139/142/157 153/157/157
f 154/158/158 131/132/158 155/159/158
f 144/148/159 133/135/159 147/151/159
f 146/150/160 135/137/160 149/153/160
f 148/152/161 136/138/161 156/160/161
f 141/144/162 151/155/162 150/154/162
f 157/161/163 142/146/163 158/162/163
f 137/139/164 159/163/164 152/156/164
f 139/142/165 154/158/165 160/164/165
f 161/165/166 145/149/166 162/166/166
f 147/151/167 163/167/168 164/168/168
f 149/153/169 156/160/169 165/169/169
f 166/170/170 150/154/170 167/171/170
f 168/172/171 152/156/172 169/173/172
f 153/157/173 160/164/173 170/174/173
f 155/159/174 161/165/174 171/175/174
f 145/149/175 147/151/175 164/168/175
f 163/167/176 149/153/177 172/176/177
f 156/160/178 166/170/178 173/177/178
f 150/154/179 168/172/179 174/178/179
f 158/162/180 153/157/181 175/179/180
f 152/156/182 176/180/182 177/181/182
f 160/164/183 155/159/183 171/175/183
f 162/166/184 178/182/184 179/183/184
f 164/168/185 172/176/185 180/184/185
f 165/169/186 173/177/186 181/185/186
f 167/171/187 174/178/187 182/186/187
f 183/187/188 169/173/188 184/188/188
f 170/174/189 185/189/189 186/190/189
f 171/175/190 162/166/191 187/191/191
f 178/182/192 164/168/192 188/192/192
f 172/176/193 165/169/193 189/193/193
f 173/177/194 167/171/194 181/185/194
f 174/178/195 183/187/195 182/186/195
f 175/179/196 170/174/197 190/194/196
f 169/173/198 177/181/198 191/195/198
f 185/189/199 171/175/199 186/190/199
f 179/183/200 188/192/200 192/196/200
f 180/184/201 189/193/201 193/197/201
f 194/198/202 181/185/202 195/199/202
f 196/200/203 182/186/203 197/201/203
f 184/188/204 191/195/204 198/202/204
f 199/203/205 186/190/205 200/204/205
f 187/191/206 179/183/206 201/205/206
f 188/192/207 180/184/207 193/197/207
f 189/193/208 194/198/208 202/206/208
f 181/185/209 196/200/209 197/201/209
f 182/186/210 184/188/210 198/202/210
f 190/194/211 199/203/212 203/207/211
f 191/195/213 204/208/214 205/209/213
f 186/190/215 187/191/215 206/210/215
f 192/196/216 207/211/216 208/212/216
f 193/197/217 202/206/218 209/213/218
f 195/199/219 210/214/219 211/215/219
f 197/201/220 212/216/220 213/217/220
f 198/202/221 205/209/222 214/218/222
f 200/204/223 206/210/224 215/219/224
f 201/205/225 192/196/225 216/220/225
f 207/211/226 193/197/226 209/213/226
f 202/206/227 195/199/228 211/215/227
f 210/214/229 197/201/229 217/221/229
f 212/216/230 198/202/230 213/217/230
f 203/207/231 200/204/232 218/222/232
f 205/209/233 219/223/234 220/224/233
f 206/210/235 201/205/235 215/219/235
f 208/212/236 221/225/236 222/226/236
f 209/213/237 223/227/238 224/228/238
f 211/215/239 225/229/239 226/230/239
f 217/221/240 213/217/240 227/231/240
f 228/232/241 214/218/241 229/233/241
f 218/222/242 215/219/243 230/234/242
f 216/220/244 208/212/244 231/235/244
f 221/225/245 209/213/245 224/228/245
f 223/227/246 211/215/247 226/230/246
f 225/229/248 217/221/248 232/236/248
f 213/217/249 228/232/249 227/231/249
f 233/237/250 218/222/250 234/238/250
f 214/218/251 220/224/251 235/239/251
f 215/219/252 216/220/252 230/234/252
f 222/226/253 236/240/253 237/241/253
f 224/228/254 238/242/255 239/243/255
f 226/230/256 232/236/256 240/244/256
f 241/245/257 227/231/257 242/246/257
f 229/233/258 235/239/258 243/247/258
f 234/238/259 230/234/259 244/248/259
f 231/235/260 222/226/260 237/241/260
f 236/240/261 224/228/261 239/243/261
f 238/242/262 226/230/263 245/249/263
f 232/236/264 241/245/264 246/250/264
f 227/231/265 229/233/265 247/251/265
f 248/252/266 234/238/267 249/253/266
f 235/239/268 250/254/268 251/255/268
f 230/234/269 231/235/269 252/256/269
f 237/241/270 253/257/270 254/258/270
f 239/243/271 245/249/272 255/259/272
f 240/244/273 246/250/273 256/260/273
f 242/246/274 257/261/274 258/262/274
f 247/251/275 243/247/275 259/263/275
f 244/248/276 260/264/276 261/265/276
f 252/256/277 237/241/277 262/266/277
f 253/257/278 239/243/278 255/259/278
f 245/249/279 240/244/280 263/267/280
f 246/250/281 242/246/281 264/268/281
f 257/261/282 247/251/282 258/262/282
f 249/253/283 244/248/283 265/269/283
f 243/247/284 251/255/284 266/270/284
f 260/264/285 252/256/285 267/271/285
f 254/258/286 268/272/286 269/273/286
f 255/259/287 263/267/287 270/274/287
f 256/260/288 271/275/288 272/276/288
f 264/268/289 258/262/289 273/277/289
f 259/263/290 266/270/291 274/278/290
f 261/265/292 267/271/293 275/279/293
f 262/266/294 254/258/294 269/273/294
f 268/272/295 255/259/295 270/274/295
f 263/267/296 256/260/296 276/280/296
f 271/275/297 264/268/297 273/277/297
f 258/262/298 259/263/298 277/281/298
f 265/269/299 261/265/299 278/282/299
f 266/270/300 279/283/300 280/284/300
f 267/271/301 262/266/301 281/285/301
f 269/273/302 282/286/302 283/287/302
f 270/274/303 276/280/303 284/288/303
f 272/276/304 285/289/304 286/290/304
f 273/277/305 277/281/305 287/291/305
f 288/292/306 274/278/306 289/293/306
f 278/282/307 275/279/308 290/294/307
f 281/285/309 269/273/309 283/287/309
f 282/286/310 270/274/310 284/288/310
f 276/280/311 272/276/311 291/295/311
f 285/289/312 273/277/312 292/296/312
f 277/281/313 288/292/313 293/297/313
f 294/298/314 278/282/314 295/299/314
f 274/278/315 280/284/316 296/300/316
f 275/279/317 281/285/317 297/301/317
f 283/287/318 298/302/318 299/303/318
f 284/288/319 291/295/319 300/304/319
f 286/290/320 292/296/320 301/305/320
f 287/291/321 293/297/321 302/306/321
f 289/293/322 296/300/322 303/307/322
f 290/294/323 297/301/323 304/308/323
f 305/309/324 283/287/324 306/310/324
f 298/302/325 284/288/325 300/304/325
f 291/295/326 286/290/326 307/311/326
f 292/296/327 287/291/327 308/312/327
f 293/297/328 289/293/328 302/306/328
f 295/299/329 290/294/330 304/308/329
f 296/300/331 309/313/331 310/314/331
f 297/301/332 305/309/332 311/315/332
f 299/303/333 312/316/333 313/317/333
f 300/304/334 307/311/334 314/318/334
f 301/305/335 315/319/335 316/320/335
f 308/312/336 302/306/336 317/321/336
f 303/307/337 310/314/337 318/322/337
f 304/308/338 311/315/338 319/323/338
f 306/310/339 299/303/339 313/317/339
f 312/316/340 300/304/340 314/318/340
f 307/311/341 301/305/341 320/324/341
f 315/319/342 308/312/342 317/321/342
f 302/306/343 303/307/343 321/325/343
f 322/326/344 304/308/344 323/327/344
f 310/314/345 324/328/345 318/322/345
f 311/315/346 306/310/346 319/323/346
f 313/317/347 325/329/347 326/330/347
f 314/318/348 320/324/348 327/331/348
f 316/320/349 328/332/349 329/333/349
f 317/321/350 321/325/350 330/334/350
f 331/335/351 318/322/352 332/336/351
f 333/337/353 319/323/353 334/338/353
f 335/339/354 313/317/354 326/330/354
f 325/329/355 314/318/355 336/340/355
f 320/324/356 316/320/357 337/341/357
f 328/332/358 317/321/358 330/334/358
f 321/325/359 331/335/359 338/342/359
f 323/327/360 333/337/360 339/343/360
f 318/322/361 340/344/362 341/345/361
f 319/323/363 335/339/363 342/346/363
f 326/330/364 336/340/364 343/347/364
f 327/331/365 337/341/365 344/348/365
f 329/333/366 345/349/366 346/350/366
f 330/334/367 338/342/367 347/351/367
f 332/336/368 341/345/368 348/352/368
f 334/338/369 349/353/370 350/354/369
f 342/346/371 326/330/371 343/347/371
f 336/340/372 327/331/372 344/348/372
f 337/341/373 329/333/373 351/355/373
f 345/349/374 330/334/374 352/356/374
f 338/342/375 332/336/375 348/352/375
f 339/343/376 334/338/377 353/357/376
f 341/345/378 354/358/378 355/359/378
f 349/353/379 342/346/379 356/360/379
f 343/347/380 357/361/380 358/362/380
f 344/348/381 351/355/382 359/363/382
f 346/350/383 352/356/383 360/364/383
f 347/351/384 361/365/384 362/366/384
f 348/352/385 355/359/385 363/367/385
f 350/354/386 356/360/386 364/368/386
f 365/369/387 343/347/387 358/362/387
f 357/361/388 344/348/388 359/363/388
f 351/355/389 346/350/390 360/364/389
f 352/356/391 347/351/391 362/366/391
f 361/365/392 348/352/392 363/367/392
f 353/357/393 350/354/393 366/370/393
f 355/359/394 367/371/395 368/372/395
f 356/360/396 365/369/396 369/373/396
f 358/374/397 370/375/397 371/376/397
f 359/377/398 372/378/399 373/379/399
f 360/364/400 374/380/400 375/381/400
f 362/366/401 376/382/401 377/383/401
f 363/367/402 378/384/402 379/385/402
f 364/386/403 369/387/403 380/388/403
f 381/389/404 358/374/404 371/376/404
f 370/375/405 359/377/405 373/379/405
f 372/378/406 360/364/407 375/381/406
f 374/380/408 362/366/408 377/383/408
f 376/382/409 363/367/409 382/390/409
f 366/391/410 364/386/411 383/392/410
f 378/384/412 368/372/412 379/385/412
f 369/387/413 381/389/413 384/393/413
f 371/376/414 385/394/414 386/395/414
f 373/379/415 387/396/416 388/397/416
f 375/381/417 389/398/417 390/399/417
f 377/383/418 382/390/418 391/400/418
f 392/401/419 379/385/419 393/402/419
f 380/388/420 384/393/420 394/403/420
f 395/404/421 371/376/421 396/405/421
f 385/394/422 373/379/422 388/397/422
f 387/396/423 375/381/423 390/399/423
f 389/398/424 377/383/424 391/400/424
f 382/390/425 392/401/425 397/406/425
f 383/392/426 380/388/426 398/407/426
f 379/385/427 399/408/427 400/409/427
f 384/393/428 395/404/428 401/410/428
f 386/395/429 402/411/429 403/412/429
f 388/397/430 404/413/430 405/414/430
f 390/399/431 406/415/431 407/416/431
f 391/400/432 397/406/432 408/417/432
f 409/418/433 393/402/433 410/419/433
f 394/403/434 401/410/434 411/420/434
f 396/405/435 386/395/435 412/421/435
f 402/411/436 388/397/436 405/414/436
f 404/413/437 390/399/437 413/422/437
f 406/415/438 391/400/438 408/417/438
f 397/406/439 409/418/439 414/423/439
f 398/407/440 394/403/440 415/424/440
f 393/402/441 400/409/441 416/425/441
f 401/410/442 396/405/442 412/421/442
f 403/412/443 417/426/443 418/427/443
f 405/414/444 413/422/445 419/428/445
f 407/416/446 420/429/446 421/430/446
f 408/417/447 414/423/447 422/431/447
f 410/419/448 423/432/448 424/433/448
f 411/420/449 425/434/449 426/435/449
f 412/421/450 403/412/450 427/436/450
f 417/426/451 405/414/451 428/437/451
f 413/422/452 407/416/453 429/438/453
f 420/429/454 408/417/454 422/431/454
f 414/423/455 410/419/455 430/439/455
f 415/424/456 411/420/457 431/440/456
f 423/432/458 416/425/458 424/433/458
f 425/434/459 412/421/459 432/441/459
f 418/427/460 428/437/460 433/442/460
f 419/428/461 429/438/461 434/443/461
f 421/430/462 435/444/462 436/445/462
f 422/431/463 430/439/463 437/446/463
f 438/447/464 424/433/464 439/448/464
f 426/435/465 432/441/465 440/449/465
f 427/436/466 418/427/466 433/442/466
f 428/437/467 419/428/467 434/443/467
f 429/438/468 421/430/468 436/445/468
f 435/444/469 422/431/469 437/446/469
f 430/439/470 438/447/470 441/450/470
f 431/440/471 426/435/471 442/451/471
f 424/433/472 443/452/472 444/453/472
f 432/441/473 427/436/473 445/454/473
f 433/442/474 446/455/474 447/456/474
f 434/443/475 448/457/475 449/458/475
f 436/445/476 450/459/476 451/460/476
f 437/446/477 441/450/477 452/461/477
f 439/448/478 444/453/479 453/462/478
f 440/449/480 454/463/481 455/464/480
f 445/454/482 433/442/482 456/465/482
f 446/455/483 434/443/483 449/458/483
f 448/457/484 436/445/485 457/466/485
f 450/459/486 437/446/486 452/461/486
f 441/450/487 439/448/487 458/467/487
f 442/451/488 440/449/489 459/468/489
f 444/453/490 460/469/491 461/470/490
f 454/463/492 445/454/492 455/464/492
f 447/456/493 462/471/494 463/472/493
f 449/458/495 457/466/495 464/473/495
f 451/460/496 465/474/496 466/475/496
f 452/461/497 458/467/497 467/476/497
f 453/462/498 468/477/499 469/478/498
f 459/468/500 455/464/501 470/479/500
f 456/465/502 447/456/502 471/480/502
f 462/471/503 449/458/503 464/473/503
f 457/466/504 451/460/504 472/481/504
f 465/474/505 452/461/506 467/476/506
f 458/467/507 453/462/507 473/482/507
f 474/483/508 459/468/508 475/484/508
f 468/477/509 461/470/509 469/478/509
f 455/464/510 456/465/510 476/485/510
f 477/486/511 21/21/511 39/39/511
f 23/23/512 478/487/512 24/24/512
f 477/486/513 39/39/513 40/40/513
f 24/24/514 478/487/514 41/41/514
f 477/486/515 40/40/515 69/69/515
f 41/41/516 478/487/516 71/71/516
f 477/486/517 69/69/517 70/70/517
f 71/71/518 478/487/518 72/72/518
f 477/486/519 70/70/519 85/85/519
f 72/72/520 478/487/520 98/98/520
f 477/486/521 85/85/521 112/112/521
f 98/98/522 478/487/522 114/114/522
f 477/486/523 112/112/523 113/113/523
f 114/114/524 478/487/524 115/115/524
f 477/486/525 113/113/525 128/128/525
f 115/115/526 478/487/526 143/147/526
f 477/488/527 128/145/527 157/161/527
f 143/147/528 478/487/528 159/163/528
f 477/488/529 157/161/529 158/162/529
f 159/163/530 478/487/530 176/180/530
f 477/488/531 158/162/531 175/179/531
f 176/180/532 478/487/532 177/181/532
f 477/488/533 175/179/533 190/194/533
f 177/181/534 478/487/534 204/208/534
f 477/488/535 190/194/535 203/207/535
f 204/208/536 478/487/536 219/223/536
f 477/488/537 203/207/537 233/237/537
f 219/223/538 478/487/538 220/224/538
f 477/488/539 233/237/539 248/252/539
f 220/224/540 478/487/540 250/254/540
f 477/488/541 248/252/541 249/253/541
f 250/254/542 478/487/542 251/255/542
f 477/488/543 249/253/543 265/269/543
f 251/255/544 478/487/544 279/283/544
f 477/488/545 265/269/545 294/298/545
f 279/283/546 478/487/546 280/284/546
f 477/488/547 294/298/547 295/299/547
f 280/284/548 478/487/548 309/313/548
f 477/488/549 295/299/549 322/326/549
f 309/313/550 478/487/550 324/328/550
f 477/488/551 322/326/551 323/327/551
f 324/328/552 478/487/552 340/344/552
f 477/488/553 323/327/553 339/343/553
f 340/344/554 478/487/554 354/358/554
f 477/488/555 339/343/555 353/357/555
f 354/358/556 478/487/556 367/371/556
f 477/488/557 353/357/557 366/370/557
f 367/371/558 478/487/558 368/372/558
f 477/486/559 366/391/559 383/392/559
f 368/372/560 478/487/560 399/408/560
f 477/486/561 383/392/561 398/407/561
f 399/408/562 478/487/562 400/409/562
f 477/486/563 398/407/563 415/424/563
f 400/409/564 478/487/564 416/425/564
f 477/486/565 415/424/565 431/440/565
f 416/425/566 478/487/566 443/452/566
f 477/486/567 431/440/567 442/451/567
f 443/452/568 478/487/568 460/469/568
f 477/486/569 442/451/569 474/483/569
f 460/469/570 478/487/570 461/470/570
f 477/486/571 474/483/571 475/484/571
f 461/470/572 478/487/572 479/489/572
f 463/472/573 480/490/573 13/13/573
f 464/473/574 472/481/574 16/16/574
f 466/475/575 481/491/575 17/17/575
f 482/492/576 1/1/576 467/476/576
f 477/486/577 475/484/577 21/21/577
f 473/482/578 469/478/578 4/4/578
f 470/479/579 476/485/579 8/8/579
f 479/489/580 478/487/580 23/23/580
f 471/480/581 463/472/581 11/11/581
f 480/490/582 464/473/582 14/14/582
f 472/481/583 466/475/583 16/16/583
f 481/491/584 467/476/584 19/19/584
f 482/492/585 473/482/585 2/2/585
f 475/484/586 470/479/586 7/7/586
f 469/478/587 479/489/587 5/5/587
f 476/485/588 471/480/588 10/10/588
f 2/2/1 20/20/1 3/3/1
f 5/5/2 33/33/2 6/6/2
f 22/22/3 7/7/3 9/9/3
f 11/11/4 25/25/4 12/12/4
f 14/14/5 26/26/5 15/15/5
f 17/17/7 30/30/589 18/18/7
f 27/27/8 19/19/8 3/3/8
f 4/4/9 6/6/9 20/20/9
f 39/39/10 21/21/10 22/22/11
f 33/33/12 5/5/12 24/24/12
f 9/9/13 8/8/13 12/12/13
f 13/13/14 15/15/14 25/25/14
f 16/16/15 18/18/590 26/26/15
f 30/30/16 17/17/16 27/27/16
f 43/43/17 25/25/17 28/28/18
f 18/18/20 45/45/20 29/29/20
f 27/27/21 37/37/21 31/31/21
f 20/20/22 48/48/22 32/32/22
f 38/38/23 6/6/23 34/34/24
f 9/9/26 42/42/26 35/35/25
f 25/25/27 43/43/27 36/36/27
f 28/28/28 15/15/28 29/29/28
f 45/45/29 18/18/29 31/31/29
f 3/3/32 32/32/32 37/37/32
f 48/48/33 20/20/33 38/38/33
f 22/22/34 35/35/34 40/40/34
f 34/34/35 33/33/35 41/41/35
f 12/12/36 36/36/36 42/42/36
f 28/28/37 56/56/37 44/44/37
f 45/45/38 58/58/591 46/46/38
f 37/37/39 53/53/39 47/47/39
f 61/61/40 32/32/40 49/49/40
f 34/34/41 55/55/592 50/50/41
f 54/54/42 35/35/42 51/51/43
f 43/43/44 44/44/44 52/52/44
f 56/56/45 28/28/45 46/46/45
f 58/58/593 45/45/46 47/47/46
f 32/32/47 61/61/47 53/53/47
f 38/38/48 50/50/48 49/49/48
f 69/69/49 40/40/49 54/54/50
f 41/41/52 71/71/52 55/55/51
f 36/36/53 52/52/53 51/51/53
f 56/56/54 66/66/54 57/57/54
f 58/58/55 67/67/55 59/59/55
f 53/53/56 75/75/56 60/60/56
f 49/49/57 68/68/57 62/62/57
f 55/55/58 78/78/58 63/63/58
f 51/51/59 80/80/59 64/64/59
f 44/44/60 57/57/60 65/65/60
f 46/46/61 59/59/61 66/66/61
f 47/47/62 60/60/62 67/67/62
f 75/75/63 53/53/63 62/62/63
f 50/50/64 63/63/64 68/68/64
f 54/54/65 64/64/65 70/70/65
f 78/78/66 55/55/66 72/72/66
f 80/80/67 51/51/67 65/65/67
f 66/66/68 82/82/68 73/73/68
f 67/67/69 88/88/69 74/74/69
f 75/75/70 83/83/70 76/76/70
f 68/68/71 84/84/71 77/77/71
f 92/92/72 63/63/72 79/79/72
f 80/80/73 86/86/73 81/81/73
f 95/95/74 65/65/74 73/73/74
f 59/59/75 74/74/75 82/82/75
f 88/88/76 67/67/76 76/76/76
f 62/62/77 77/77/77 83/83/77
f 63/63/78 92/92/78 84/84/78
f 64/64/79 81/81/79 85/85/79
f 72/72/80 98/98/80 79/79/80
f 65/65/81 95/95/81 86/86/81
f 101/101/82 73/73/82 87/87/82
f 88/88/84 103/103/84 89/89/84
f 83/83/85 97/97/85 90/90/85
f 84/84/87 106/106/87 91/91/87
f 79/79/89 99/99/89 93/93/88
f 86/86/90 100/100/90 94/94/90
f 73/73/91 101/101/91 96/96/91
f 87/87/92 82/82/92 89/89/92
f 103/103/93 88/88/93 90/90/93
f 77/77/95 91/91/95 97/97/95
f 106/106/96 84/84/96 93/93/96
f 112/112/97 85/85/97 94/94/98
f 98/98/100 114/114/100 99/99/99
f 95/95/101 96/96/101 100/100/101
f 87/87/102 116/116/102 102/102/102
f 103/103/103 118/118/103 104/104/103
f 97/97/104 120/120/104 105/105/104
f 106/106/105 111/111/105 107/107/105
f 99/99/106 123/123/106 108/108/106
f 125/125/594 94/94/107 109/109/107
f 101/101/108 102/102/108 110/110/108
f 116/116/109 87/87/109 104/104/109
f 118/118/110 103/103/110 105/105/110
f 120/120/111 97/97/111 107/107/111
f 93/93/113 108/108/113 111/111/113
f 94/94/115 125/125/115 113/113/114
f 123/123/116 99/99/116 115/115/116
f 96/96/118 110/110/118 109/109/118
f 116/116/119 130/493/119 117/117/119
f 118/118/121 132/134/595 119/119/121
f 120/120/122 134/136/122 121/121/122
f 111/111/123 127/127/123 122/122/123
f 123/123/124 129/129/124 124/124/124
f 138/494/125 125/125/125 126/126/125
f 140/495/126 110/110/126 117/117/126
f 130/493/127 116/116/127 119/119/127
f 132/134/128 118/118/128 121/121/128
f 134/136/130 120/120/130 122/122/130
f 108/108/131 124/124/131 127/127/131
f 125/125/133 138/494/133 128/128/132
f 115/115/134 143/147/134 129/129/134
f 110/110/135 140/495/135 126/126/135
f 130/131/136 144/148/136 131/132/136
f 132/134/138 146/150/596 133/135/138
f 134/136/139 148/152/139 135/137/139
f 127/127/140 141/144/140 136/138/140
f 151/155/141 124/124/141 137/139/141
f 142/146/142 138/140/142 139/142/142
f 154/158/143 140/143/143 131/132/143
f 144/148/144 130/131/144 133/135/144
f 146/150/597 132/134/145 135/137/145
f 148/152/147 134/136/147 136/138/147
f 124/124/148 151/155/148 141/144/148
f 157/161/149 128/145/149 142/146/149
f 143/147/150 159/163/150 137/139/150
f 140/143/151 154/158/151 139/142/151
f 161/165/152 131/132/152 145/149/152
f 146/150/153 163/167/153 147/151/153
f 148/152/154 156/160/154 149/153/154
f 166/170/598 136/138/155 150/154/155
f 168/172/156 151/155/156 152/156/156
f 139/142/157 160/164/599 153/157/157
f 131/132/158 161/165/158 155/159/158
f 145/149/159 144/148/159 147/151/159
f 163/167/160 146/150/160 149/153/160
f 136/138/161 166/170/161 156/160/161
f 151/155/162 168/172/162 150/154/162
f 142/146/163 153/157/163 158/162/163
f 159/163/164 176/180/164 152/156/164
f 154/158/165 155/159/165 160/164/165
f 145/149/166 178/182/166 162/166/166
f 163/167/168 172/176/168 164/168/168
f 156/160/169 173/177/169 165/169/169
f 150/154/170 174/178/170 167/171/170
f 183/187/171 168/172/171 169/173/172
f 160/164/173 185/189/173 170/174/173
f 161/165/174 162/166/174 171/175/174
f 178/182/175 145/149/175 164/168/175
f 149/153/177 165/169/177 172/176/177
f 166/170/178 167/171/178 173/177/178
f 168/172/179 183/187/179 174/178/179
f 153/157/181 170/174/181 175/179/180
f 169/173/182 152/156/182 177/181/182
f 185/189/183 160/164/183 171/175/183
f 178/182/184 188/192/184 179/183/184
f 172/176/185 189/193/185 180/184/185
f 194/198/186 165/169/186 181/185/186
f 196/200/187 167/171/187 182/186/187
f 169/173/188 191/195/188 184/188/188
f 199/203/189 170/174/189 186/190/189
f 162/166/191 179/183/191 187/191/191
f 164/168/192 180/184/192 188/192/192
f 165/169/193 194/198/600 189/193/193
f 167/171/194 196/200/194 181/185/194
f 183/187/195 184/188/195 182/186/195
f 170/174/197 199/203/197 190/194/196
f 177/181/198 204/208/198 191/195/198
f 171/175/199 187/191/199 186/190/199
f 188/192/200 207/211/200 192/196/200
f 189/193/201 202/206/201 193/197/201
f 181/185/202 210/214/202 195/199/202
f 182/186/203 212/216/203 197/201/203
f 191/195/204 205/209/204 198/202/204
f 186/190/205 206/210/205 200/204/205
f 179/183/206 192/196/206 201/205/206
f 207/211/207 188/192/207 193/197/207
f 194/198/208 195/199/208 202/206/208
f 210/214/209 181/185/209 197/201/209
f 212/216/210 182/186/210 198/202/210
f 199/203/212 200/204/212 203/207/211
f 204/208/214 219/223/214 205/209/213
f 187/191/215 201/205/215 206/210/215
f 207/211/216 221/225/216 208/212/216
f 202/206/218 223/227/218 209/213/218
f 210/214/219 225/229/219 211/215/219
f 217/221/220 197/201/220 213/217/220
f 228/232/221 198/202/221 214/218/222
f 218/222/223 200/204/223 215/219/224
f 192/196/225 208/212/225 216/220/225
f 221/225/226 207/211/226 209/213/226
f 223/227/227 202/206/227 211/215/227
f 225/229/229 210/214/229 217/221/229
f 198/202/230 228/232/230 213/217/230
f 233/237/231 203/207/231 218/222/232
f 214/218/233 205/209/233 220/224/233
f 201/205/235 216/220/235 215/219/235
f 221/225/236 236/240/236 222/226/236
f 223/227/238 238/242/238 224/228/238
f 225/229/239 232/236/239 226/230/239
f 241/245/240 217/221/240 227/231/240
f 214/218/241 235/239/601 229/233/241
f 234/238/242 218/222/242 230/234/242
f 208/212/244 222/226/244 231/235/244
f 236/240/245 221/225/245 224/228/245
f 238/242/246 223/227/246 226/230/246
f 217/221/248 241/245/602 232/236/248
f 228/232/249 229/233/249 227/231/249
f 248/252/250 233/237/250 234/238/250
f 220/224/251 250/254/251 235/239/251
f 216/220/252 231/235/252 230/234/252
f 236/240/253 253/257/253 237/241/253
f 238/242/255 245/249/603 239/243/255
f 232/236/256 246/250/256 240/244/256
f 227/231/257 257/261/257 242/246/257
f 247/251/258 229/233/258 243/247/258
f 230/234/259 260/264/259 244/248/259
f 252/256/260 231/235/260 237/241/260
f 253/257/261 236/240/261 239/243/261
f 226/230/263 240/244/263 245/249/263
f 241/245/264 242/246/264 246/250/264
f 257/261/265 227/231/265 247/251/265
f 234/238/267 244/248/267 249/253/266
f 243/247/268 235/239/268 251/255/268
f 260/264/269 230/234/269 252/256/269
f 253/257/270 268/272/270 254/258/270
f 245/249/272 263/267/604 255/259/272
f 246/250/273 271/275/273 256/260/273
f 264/268/274 242/246/274 258/262/274
f 243/247/275 266/270/275 259/263/275
f 260/264/276 267/271/276 261/265/276
f 237/241/277 254/258/277 262/266/277
f 268/272/278 253/257/278 255/259/278
f 240/244/280 256/260/280 263/267/280
f 271/275/281 246/250/281 264/268/281
f 247/251/282 259/263/282 258/262/282
f 244/248/283 261/265/283 265/269/283
f 251/255/284 279/283/284 266/270/284
f 252/256/285 262/266/285 267/271/285
f 268/272/286 282/286/286 269/273/286
f 263/267/287 276/280/287 270/274/287
f 271/275/288 285/289/288 272/276/288
f 258/262/289 277/281/289 273/277/289
f 288/292/290 259/263/290 274/278/290
f 278/282/292 261/265/292 275/279/293
f 281/285/294 262/266/294 269/273/294
f 282/286/295 268/272/295 270/274/295
f 256/260/296 272/276/296 276/280/296
f 285/289/605 271/275/297 273/277/297
f 259/263/298 288/292/298 277/281/298
f 294/298/299 265/269/299 278/282/299
f 274/278/300 266/270/300 280/284/300
f 275/279/301 267/271/301 281/285/301
f 282/286/302 298/302/302 283/287/302
f 276/280/303 291/295/303 284/288/303
f 285/289/304 292/296/304 286/290/304
f 277/281/305 293/297/305 287/291/305
f 274/278/306 296/300/306 289/293/306
f 275/279/308 297/301/308 290/294/307
f 305/309/309 281/285/309 283/287/309
f 298/302/310 282/286/310 284/288/310
f 272/276/311 286/290/311 291/295/311
f 273/277/312 287/291/312 292/296/312
f 288/292/313 289/293/313 293/297/313
f 278/282/314 290/294/314 295/299/314
f 280/284/316 309/313/606 296/300/316
f 281/285/317 305/309/317 297/301/317
f 298/302/318 312/316/318 299/303/318
f 291/295/319 307/311/319 300/304/319
f 292/296/320 315/319/320 301/305/320
f 308/312/321 287/291/321 302/306/321
f 296/300/322 310/314/322 303/307/322
f 297/301/323 311/315/323 304/308/323
f 283/287/324 299/303/324 306/310/324
f 312/316/325 298/302/325 300/304/325
f 286/290/326 301/305/326 307/311/326
f 315/319/327 292/296/327 308/312/327
f 289/293/328 303/307/328 302/306/328
f 322/326/329 295/299/329 304/308/329
f 309/313/331 324/328/331 310/314/331
f 305/309/332 306/310/332 311/315/332
f 312/316/333 325/329/333 313/317/333
f 307/311/334 320/324/334 314/318/334
f 315/319/335 328/332/335 316/320/335
f 302/306/336 321/325/336 317/321/336
f 331/335/337 303/307/337 318/322/337
f 333/337/338 304/308/338 319/323/338
f 335/339/339 306/310/339 313/317/339
f 325/329/340 312/316/340 314/318/340
f 301/305/341 316/320/607 320/324/341
f 328/332/342 315/319/342 317/321/342
f 303/307/343 331/335/343 321/325/343
f 304/308/344 333/337/344 323/327/344
f 324/328/345 340/344/345 318/322/345
f 306/310/346 335/339/346 319/323/346
f 325/329/347 336/340/347 326/330/347
f 320/324/348 337/341/608 327/331/348
f 328/332/349 345/349/349 329/333/349
f 321/325/350 338/342/350 330/334/350
f 318/322/352 341/345/352 332/336/351
f 319/323/353 349/353/609 334/338/353
f 342/346/354 335/339/354 326/330/354
f 314/318/355 327/331/355 336/340/355
f 316/320/357 329/333/357 337/341/357
f 345/349/358 328/332/358 330/334/358
f 331/335/359 332/336/359 338/342/359
f 333/337/360 334/338/360 339/343/360
f 340/344/362 354/358/610 341/345/361
f 349/353/363 319/323/363 342/346/363
f 336/340/364 357/361/364 343/347/364
f 337/341/365 351/355/365 344/348/365
f 345/349/366 352/356/366 346/350/366
f 338/342/367 361/365/367 347/351/367
f 341/345/368 355/359/368 348/352/368
f 349/353/370 356/360/370 350/354/369
f 365/369/371 342/346/371 343/347/371
f 357/361/372 336/340/372 344/348/372
f 329/333/373 346/350/373 351/355/373
f 330/334/374 347/351/374 352/356/374
f 361/365/375 338/342/375 348/352/375
f 334/338/377 350/354/377 353/357/376
f 354/358/378 367/371/378 355/359/378
f 342/346/379 365/369/379 356/360/379
f 357/361/380 370/496/380 358/362/380
f 351/355/382 372/378/382 359/363/382
f 352/356/383 374/380/383 360/364/383
f 361/365/384 376/382/384 362/366/384
f 355/359/385 378/384/385 363/367/385
f 356/360/386 369/373/386 364/368/386
f 381/497/387 365/369/387 358/362/387
f 370/496/388 357/361/388 359/363/388
f 372/378/611 351/355/389 360/364/389
f 374/380/391 352/356/391 362/366/391
f 376/382/392 361/365/392 363/367/392
f 350/354/393 364/368/612 366/370/393
f 378/384/394 355/359/394 368/372/395
f 365/369/396 381/497/396 369/373/396
f 370/375/397 385/394/397 371/376/397
f 372/378/399 387/396/399 373/379/399
f 374/380/400 389/398/400 375/381/400
f 376/382/401 382/390/401 377/383/401
f 392/401/402 363/367/402 379/385/402
f 369/387/403 384/393/403 380/388/403
f 395/404/404 381/389/404 371/376/404
f 385/394/405 370/375/405 373/379/405
f 387/396/406 372/378/406 375/381/406
f 389/398/408 374/380/408 377/383/408
f 363/367/409 392/401/409 382/390/409
f 364/386/411 380/388/411 383/392/410
f 368/372/412 399/408/412 379/385/412
f 381/389/413 395/404/413 384/393/413
f 385/394/414 402/411/414 386/395/414
f 387/396/416 404/413/416 388/397/416
f 389/398/417 406/415/417 390/399/417
f 382/390/418 397/406/418 391/400/418
f 409/418/419 392/401/419 393/402/419
f 384/393/420 401/410/613 394/403/420
f 371/376/421 386/395/421 396/405/421
f 402/411/422 385/394/422 388/397/422
f 404/413/614 387/396/423 390/399/423
f 406/415/424 389/398/424 391/400/424
f 392/401/425 409/418/425 397/406/425
f 380/388/426 394/403/426 398/407/426
f 393/402/427 379/385/427 400/409/427
f 395/404/428 396/405/428 401/410/428
f 402/411/429 417/426/429 403/412/429
f 404/413/430 413/422/430 405/414/430
f 406/415/431 420/429/431 407/416/431
f 397/406/432 414/423/432 408/417/432
f 393/402/433 423/432/433 410/419/433
f 401/410/434 425/434/434 411/420/434
f 386/395/435 403/412/435 412/421/435
f 417/426/436 402/411/436 405/414/436
f 390/399/437 407/416/437 413/422/437
f 420/429/438 406/415/438 408/417/438
f 409/418/439 410/419/439 414/423/439
f 394/403/440 411/420/440 415/424/440
f 423/432/441 393/402/441 416/425/441
f 425/434/442 401/410/442 412/421/442
f 417/426/443 428/437/443 418/427/443
f 413/422/445 429/438/445 419/428/445
f 420/429/446 435/444/446 421/430/446
f 414/423/447 430/439/447 422/431/447
f 438/447/448 410/419/448 424/433/448
f 425/434/449 432/441/449 426/435/449
f 403/412/450 418/427/450 427/436/450
f 405/414/451 419/428/451 428/437/451
f 407/416/453 421/430/453 429/438/453
f 435/444/454 420/429/454 422/431/454
f 410/419/455 438/447/455 430/439/455
f 411/420/457 426/435/457 431/440/456
f 416/425/458 443/452/458 424/433/458
f 412/421/459 427/436/459 432/441/459
f 428/437/460 446/455/460 433/442/460
f 429/438/461 448/457/461 434/443/461
f 435/444/462 450/459/462 436/445/462
f 430/439/463 441/450/463 437/446/463
f 424/433/464 444/453/464 439/448/464
f 432/441/465 454/463/465 440/449/465
f 445/454/466 427/436/466 433/442/466
f 446/455/467 428/437/467 434/443/467
f 448/457/468 429/438/468 436/445/468
f 450/459/469 435/444/469 437/446/469
f 438/447/470 439/448/470 441/450/470
f 426/435/471 440/449/471 442/451/471
f 443/452/472 460/469/472 444/453/472
f 454/463/473 432/441/473 445/454/473
f 446/455/474 462/471/474 447/456/474
f 448/457/475 457/466/615 449/458/475
f 450/459/476 465/474/476 451/460/476
f 441/450/477 458/467/477 452/461/477
f 444/453/479 468/477/479 453/462/478
f 459/468/480 440/449/480 455/464/480
f 433/442/482 447/456/482 456/465/482
f 462/471/483 446/455/483 449/458/483
f 436/445/485 451/460/485 457/466/485
f 465/474/486 450/459/486 452/461/486
f 439/448/487 453/462/487 458/467/487
f 474/483/488 442/451/488 459/468/489
f 468/477/490 444/453/490 461/470/490
f 445/454/492 456/465/492 455/464/492
f 462/471/494 480/490/494 463/472/493
f 457/466/495 472/481/495 464/473/495
f 465/474/496 481/491/496 466/475/496
f 458/467/497 482/492/497 467/476/497
f 473/482/498 453/462/498 469/478/498
f 455/464/501 476/485/501 470/479/500
f 447/456/502 463/472/502 471/480/502
f 480/490/503 462/471/503 464/473/503
f 451/460/504 466/475/504 472/481/504
f 481/491/505 465/474/505 467/476/506
f 482/492/507 458/467/507 473/482/507
f 459/468/508 470/479/616 475/484/508
f 461/470/509 479/489/509 469/478/509
f 456/465/510 471/480/510 476/485/510
f 11/11/573 463/472/573 13/13/573
f 14/14/574 464/473/574 16/16/574
f 481/491/575 19/19/575 17/17/575
f 2/2/576 1/1/576 482/492/576
f 469/478/578 5/5/578 4/4/578
f 7/7/579 470/479/579 8/8/579
f 10/10/581 471/480/581 11/11/581
f 13/13/582 480/490/582 14/14/582
f 466/475/583 17/17/583 16/16/583
f 467/476/584 1/1/584 19/19/584
f 473/482/585 4/4/585 2/2/585
f 21/21/586 475/484/586 7/7/586
f 479/489/587 23/23/587 5/5/587
f 8/8/588 476/485/588 10/10/588
l 478 483
